<?xml version="1.0" encoding="UTF-8"?>
<svg id="Layer_2" data-name="Layer 2" xmlns="http://www.w3.org/2000/svg" viewBox="0 0 145.99 145.86">
  <defs>
    <style>
      .cls-1 {
        fill: #e82828;
      }

      .cls-2 {
        fill: #606060;
      }
    </style>
  </defs>
  <g id="Layer_1-2" data-name="Layer 1">
    <g>
      <path class="cls-1" d="M107.13,51.48c-.92-6.54-6.03-11.7-12.57-12.69-14.27-2.02-28.75-2.02-43.02,0-6.54.92-11.7,6.03-12.69,12.57-2.02,14.27-2.02,28.75,0,43.02.92,6.54,6.03,11.7,12.57,12.69,7.14,1.01,14.35,1.52,21.57,1.52,7.18,0,14.34-.51,21.45-1.52,6.54-.92,11.7-6.03,12.69-12.57,1.01-7.14,1.52-14.35,1.52-21.57,0-7.18-.51-14.34-1.52-21.45h0ZM84.88,93.73h-23.77c-1.64,0-2.97-1.33-2.97-2.97s1.33-2.97,2.97-2.97h23.77c1.64,0,2.97,1.33,2.97,2.97s-1.33,2.97-2.97,2.97ZM76.84,73.8c1.18-1.14,3.06-1.11,4.2.07,1.11,1.15,1.11,2.98,0,4.13l-5.94,5.94c-1.16,1.16-3.04,1.16-4.2,0h0s-5.94-5.94-5.94-5.94c-1.14-1.18-1.11-3.06.07-4.2,1.15-1.11,2.98-1.11,4.13,0l.87.87v-19.57c0-1.64,1.33-2.97,2.97-2.97s2.97,1.33,2.97,2.97v19.57l.87-.87Z"/>
      <g>
        <g>
          <path class="cls-2" d="M108.12,10.58s-.12-.07-.36-.22c-.24-.14-.59-.38-1.08-.6-.98-.47-2.42-1.17-4.25-2.05-.45-.22-.94-.45-1.44-.69-.52-.22-1.08-.4-1.65-.62-1.15-.42-2.39-.88-3.72-1.36-1.31-.55-2.79-.85-4.32-1.26-.77-.2-1.56-.4-2.36-.6-.81-.21-1.63-.44-2.49-.54-6.83-1.35-15.04-1.68-23.65-.5-8.61,1.19-17.57,4.17-25.59,8.84-8.04,4.63-15.09,10.9-20.46,17.73-.65.87-1.3,1.73-1.94,2.59-.64.86-1.29,1.69-1.81,2.6-1.07,1.8-2.18,3.52-3.15,5.26-.87,1.8-1.71,3.54-2.52,5.23-.78,1.71-1.31,3.45-1.93,5.07-.29.82-.61,1.61-.86,2.4-.21.81-.41,1.59-.61,2.36-.39,1.54-.76,3-1.11,4.36-.42,2.8-.82,5.23-1.08,7.24-.21,4.05-.32,6.37-.32,6.37-.02.41-.35.74-.74.74s-.69-.34-.67-.76c0,0,.12-2.36.33-6.49.27-2.05.67-4.53,1.1-7.38.36-1.4.73-2.89,1.13-4.45.2-.78.41-1.59.62-2.41.25-.81.57-1.62.87-2.45.64-1.65,1.18-3.43,1.97-5.17.83-1.72,1.69-3.5,2.57-5.33.98-1.77,2.11-3.54,3.21-5.36.52-.93,1.19-1.78,1.84-2.66.65-.87,1.31-1.75,1.97-2.64,5.47-6.97,12.66-13.36,20.86-18.08C44.67,4.99,53.82,1.95,62.59.74c8.78-1.2,17.14-.86,24.11.51.88.1,1.72.34,2.54.55.82.21,1.63.42,2.41.62,1.56.42,3.07.73,4.4,1.28,1.36.5,2.62.96,3.79,1.39.58.22,1.15.4,1.68.63.52.25,1.01.49,1.47.7,1.86.9,3.33,1.61,4.33,2.09.51.22.86.47,1.1.62.25.15.37.22.37.22.36.22.49.66.3,1-.2.33-.64.43-.99.22Z"/>
          <path class="cls-2" d="M104.75,16.54s-.11-.07-.33-.2c-.22-.12-.52-.35-.98-.55-.88-.42-2.18-1.05-3.84-1.84-.41-.2-.85-.41-1.3-.63-.46-.2-.97-.36-1.49-.55-1.04-.38-2.16-.79-3.36-1.23-1.18-.5-2.52-.76-3.91-1.14-.69-.18-1.4-.36-2.13-.55-.73-.19-1.47-.41-2.25-.49-6.17-1.22-13.61-1.51-21.39-.45-7.78,1.08-15.88,3.77-23.13,7.98-7.27,4.19-13.65,9.86-18.51,16.04-.59.79-1.17,1.57-1.75,2.35-.58.78-1.18,1.52-1.64,2.35-.97,1.63-1.97,3.19-2.85,4.76-.78,1.62-1.54,3.2-2.28,4.73-.71,1.54-1.18,3.12-1.74,4.58-.26.74-.56,1.45-.78,2.17-.19.73-.37,1.44-.54,2.13-.36,1.39-.69,2.71-1.01,3.94-.38,2.53-.71,4.73-.98,6.55-.18,3.67-.29,5.77-.29,5.77-.01.19-.17.33-.37.33s-.34-.15-.34-.34c0,0,.11-2.12.29-5.83.24-1.84.62-4.06.99-6.61.32-1.25.66-2.58,1.02-3.99.18-.7.36-1.42.55-2.16.22-.73.52-1.45.79-2.2.58-1.48,1.05-3.07,1.76-4.63.75-1.54,1.51-3.14,2.31-4.78.88-1.59,1.91-3.16,2.88-4.8.46-.84,1.07-1.6,1.65-2.38.59-.78,1.17-1.57,1.77-2.37,4.91-6.25,11.36-11.98,18.71-16.21,7.33-4.27,15.52-6.99,23.38-8.07,7.87-1.08,15.39-.78,21.63.45.79.09,1.54.31,2.28.5.74.19,1.46.37,2.16.56,1.4.37,2.75.64,3.95,1.15,1.21.44,2.35.86,3.4,1.24.52.2,1.03.37,1.51.57.46.22.9.43,1.32.64,1.67.8,2.98,1.43,3.88,1.87.46.2.77.42.99.55.22.13.33.2.33.2.16.09.21.31.11.48-.1.17-.3.23-.46.13Z"/>
          <path class="cls-2" d="M5.48,65.55c-.03.19-.21.33-.4.31l-4.02-.41c-.19-.02-.32-.2-.29-.41.03-.21.21-.36.4-.33l4.02.46c.19.02.32.19.3.39Z"/>
          <path class="cls-2" d="M31.75,19.05c-.16.12-.38.09-.5-.07l-2.47-3.2c-.12-.15-.08-.38.09-.5.17-.12.4-.1.51.05l2.44,3.22c.12.15.09.37-.07.49Z"/>
          <path class="cls-2" d="M64.9,5.54c-.19.03-.37-.11-.39-.3l-.5-4.01c-.02-.2.12-.38.33-.41.21-.03.39.1.41.29l.45,4.01c.02.2-.12.37-.31.41Z"/>
          <path class="cls-2" d="M72.1,5.06c-.19,0-.36-.14-.36-.33l-.07-4.04c0-.19.16-.36.37-.37.21,0,.38.14.38.33l.03,4.04c0,.19-.15.36-.35.37Z"/>
          <path class="cls-2" d="M96.57,9.31c-.18-.07-.28-.27-.21-.45l1.39-3.79c.07-.18.28-.28.47-.2.19.07.3.28.23.46l-1.43,3.78c-.07.18-.27.27-.45.21Z"/>
          <path class="cls-2" d="M12.83,41.45c-.08.18-.29.25-.46.16l-3.59-1.86c-.17-.09-.24-.31-.15-.5.09-.19.31-.26.47-.17l3.57,1.89c.17.09.24.31.16.48Z"/>
          <path class="cls-2" d="M16.99,34.52c-.12.16-.34.19-.5.09l-3.34-2.27c-.16-.11-.19-.33-.07-.5.12-.17.36-.21.51-.1l3.32,2.3c.16.11.19.33.08.48Z"/>
        </g>
        <g>
          <path class="cls-2" d="M109.39,134.51s.49-.3,1.42-.86c.93-.57,2.32-1.35,3.91-2.62,1.6-1.25,3.68-2.59,5.71-4.57,1.04-.96,2.17-1.95,3.32-3.05,1.07-1.17,2.19-2.4,3.36-3.69,4.52-5.27,9.08-12.11,12.32-20.19,3.27-8.06,5.15-17.32,5.16-26.6,0-9.28-1.89-18.54-5.16-26.6-3.24-8.09-7.8-14.92-12.32-20.19-1.17-1.28-2.29-2.52-3.36-3.69-1.15-1.09-2.28-2.09-3.32-3.04-2.02-1.98-4.11-3.33-5.71-4.57-1.59-1.27-2.98-2.05-3.91-2.61-.93-.57-1.42-.87-1.42-.87-.35-.21-.48-.66-.28-.99.19-.34.64-.43,1-.22,0,0,.5.31,1.45.89.95.58,2.37,1.38,3.99,2.67,1.63,1.27,3.75,2.64,5.82,4.66,1.06.97,2.22,1.99,3.38,3.1,1.09,1.2,2.23,2.45,3.43,3.77,4.6,5.37,9.26,12.34,12.56,20.59,3.34,8.22,5.26,17.66,5.26,27.12,0,9.46-1.92,18.9-5.26,27.12-3.31,8.25-7.96,15.22-12.56,20.59-1.19,1.31-2.34,2.57-3.43,3.76-1.16,1.12-2.32,2.13-3.38,3.1-2.06,2.02-4.19,3.39-5.82,4.66-1.62,1.29-3.04,2.09-3.99,2.67-.95.57-1.45.88-1.45.88-.36.21-.8.12-1-.22-.19-.34-.07-.78.28-1Z"/>
          <path class="cls-2" d="M105.89,128.61s.45-.27,1.29-.78c.84-.51,2.11-1.21,3.54-2.36,1.45-1.13,3.34-2.33,5.16-4.14.94-.86,1.97-1.76,3.01-2.75.96-1.06,1.98-2.18,3.03-3.34,4.08-4.77,8.21-10.95,11.14-18.26,2.96-7.28,4.66-15.64,4.67-24.05,0-8.41-1.71-16.76-4.67-24.05-2.93-7.31-7.06-13.49-11.14-18.26-1.06-1.17-2.07-2.28-3.03-3.35-1.04-.99-2.07-1.88-3.01-2.75-1.82-1.8-3.72-3-5.16-4.14-1.43-1.15-2.7-1.85-3.54-2.37-.84-.51-1.29-.78-1.29-.78-.16-.09-.21-.31-.11-.48.1-.17.31-.22.47-.13,0,0,.45.27,1.3.79.85.52,2.13,1.23,3.58,2.4,1.46,1.14,3.38,2.36,5.22,4.18.95.88,1.99,1.78,3.04,2.78.98,1.08,2,2.2,3.07,3.38,4.13,4.83,8.3,11.07,11.26,18.46,2.99,7.36,4.71,15.81,4.72,24.31,0,8.5-1.73,16.95-4.72,24.31-2.96,7.39-7.13,13.63-11.26,18.45-1.07,1.18-2.09,2.31-3.07,3.38-1.05,1-2.09,1.9-3.04,2.78-1.84,1.82-3.76,3.04-5.22,4.18-1.45,1.17-2.73,1.88-3.58,2.39-.85.52-1.3.79-1.3.79-.16.1-.37.04-.47-.13-.1-.17-.05-.38.11-.48Z"/>
          <path class="cls-2" d="M113.08,18.21c-.16-.12-.19-.34-.07-.5l2.37-3.27c.11-.16.34-.18.51-.06.17.12.21.35.09.51l-2.41,3.24c-.12.16-.34.19-.49.07Z"/>
          <path class="cls-2" d="M140.26,64.16c-.03-.19.1-.37.3-.39l4.01-.54c.19-.02.37.12.4.33.03.21-.1.39-.29.41l-4.01.5c-.19.03-.37-.11-.4-.31Z"/>
          <path class="cls-2" d="M135.42,99.65c.08-.17.3-.26.47-.18l3.72,1.57c.18.08.25.29.16.48-.09.19-.31.27-.49.2l-3.71-1.61c-.18-.08-.25-.28-.17-.46Z"/>
          <path class="cls-2" d="M132.21,106.11c.1-.17.32-.22.49-.13l3.53,1.96c.17.09.22.31.11.49-.11.18-.33.24-.5.15l-3.51-2c-.17-.1-.22-.31-.12-.47Z"/>
          <path class="cls-2" d="M116.31,125.22c.14-.13.36-.12.49.03l2.6,3.1c.12.15.1.38-.06.52-.15.15-.39.12-.51-.03l-2.57-3.13c-.12-.15-.09-.36.05-.49Z"/>
          <path class="cls-2" d="M130.29,36.6c-.1-.17-.05-.39.11-.49l3.4-2.18c.16-.11.39-.05.49.13.11.18.06.4-.1.51l-3.42,2.15c-.16.1-.38.05-.48-.12Z"/>
          <path class="cls-2" d="M134.2,43.67c-.08-.17-.01-.39.16-.47l3.64-1.77c.17-.08.39,0,.48.19.09.18.02.4-.16.49l-3.65,1.73c-.18.08-.39,0-.47-.17Z"/>
        </g>
        <g>
          <path class="cls-2" d="M1.41,73.67s.12,2.32.32,6.37c.26,2.01.66,4.44,1.08,7.24.35,1.37.72,2.83,1.11,4.37.2.77.4,1.56.61,2.36.24.8.57,1.59.86,2.41.62,1.62,1.15,3.36,1.93,5.07.82,1.69,1.66,3.44,2.52,5.23.97,1.74,2.08,3.47,3.15,5.26.51.92,1.17,1.75,1.81,2.6.64.85,1.29,1.72,1.94,2.59,5.37,6.83,12.42,13.1,20.46,17.73,8.02,4.67,16.99,7.64,25.59,8.84,8.61,1.18,16.82.85,23.65-.5.87-.1,1.69-.33,2.49-.54.8-.21,1.59-.41,2.36-.61,1.53-.41,3.01-.71,4.32-1.26,1.33-.49,2.57-.94,3.72-1.36.57-.22,1.13-.4,1.65-.62.5-.24.99-.47,1.44-.69,1.83-.88,3.27-1.57,4.25-2.05.5-.22.84-.46,1.08-.6.24-.14.36-.22.36-.22.35-.21.79-.11.99.22.19.33.06.78-.3,1,0,0-.12.08-.37.22-.25.14-.6.39-1.1.62-1,.48-2.47,1.19-4.33,2.09-.47.22-.96.46-1.47.71-.53.22-1.1.41-1.68.63-1.17.43-2.44.89-3.79,1.38-1.33.56-2.84.87-4.4,1.29-.79.2-1.59.41-2.41.62-.82.21-1.66.45-2.54.55-6.96,1.38-15.33,1.72-24.11.51-8.78-1.21-17.92-4.25-26.1-9.01-8.2-4.72-15.38-11.11-20.86-18.08-.67-.89-1.32-1.77-1.97-2.64-.65-.88-1.32-1.72-1.84-2.66-1.1-1.83-2.23-3.59-3.21-5.36-.88-1.83-1.74-3.61-2.57-5.34-.79-1.74-1.34-3.51-1.97-5.17-.3-.83-.62-1.64-.87-2.45-.21-.82-.42-1.62-.62-2.41-.4-1.57-.78-3.05-1.13-4.45-.43-2.85-.84-5.33-1.1-7.38C.12,76.05,0,73.68,0,73.68c-.02-.42.28-.76.67-.76s.72.34.74.74Z"/>
          <path class="cls-2" d="M8.26,73.6s.11,2.1.29,5.76c.27,1.82.6,4.02.98,6.55.32,1.24.65,2.55,1.01,3.94.17.69.36,1.41.54,2.13.22.72.52,1.43.78,2.17.57,1.46,1.04,3.04,1.74,4.58.74,1.53,1.5,3.11,2.28,4.73.88,1.57,1.89,3.13,2.85,4.75.45.84,1.06,1.58,1.64,2.36.58.77,1.16,1.55,1.75,2.34,4.86,6.18,11.24,11.85,18.51,16.04,7.26,4.22,15.35,6.91,23.13,7.98,7.79,1.06,15.23.77,21.39-.45.78-.08,1.53-.3,2.25-.49.73-.19,1.44-.37,2.13-.55,1.38-.37,2.72-.64,3.91-1.13,1.2-.44,2.32-.85,3.36-1.23.52-.2,1.03-.36,1.49-.55.46-.22.89-.44,1.3-.63,1.66-.8,2.95-1.42,3.84-1.85.45-.19.76-.42.98-.54.22-.13.33-.2.33-.2.16-.1.36-.04.46.13.1.17.04.39-.11.48,0,0-.11.07-.33.2-.22.13-.53.35-.99.55-.9.43-2.21,1.06-3.88,1.87-.42.2-.86.41-1.32.64-.47.2-.98.37-1.51.56-1.05.38-2.19.8-3.4,1.25-1.19.5-2.55.77-3.95,1.15-.7.18-1.42.37-2.16.55-.74.19-1.48.41-2.28.49-6.24,1.24-13.76,1.53-21.63.46-7.87-1.09-16.05-3.81-23.38-8.07-7.35-4.23-13.8-9.96-18.71-16.21-.6-.8-1.18-1.59-1.77-2.37-.59-.78-1.19-1.54-1.65-2.38-.98-1.65-2-3.22-2.88-4.81-.79-1.64-1.56-3.24-2.31-4.78-.71-1.55-1.19-3.15-1.76-4.63-.26-.75-.56-1.47-.79-2.2-.19-.73-.37-1.46-.55-2.16-.36-1.4-.7-2.74-1.02-3.99-.37-2.56-.75-4.78-.99-6.62-.19-3.71-.29-5.83-.29-5.83,0-.19.14-.34.34-.34.19,0,.36.15.37.34Z"/>
          <path class="cls-2" d="M100.33,135.07c.17-.08.38-.01.46.17l1.65,3.69c.08.18,0,.39-.2.48-.19.09-.4.02-.48-.16l-1.61-3.71c-.07-.18,0-.39.18-.47Z"/>
          <path class="cls-2" d="M46.9,135.64c.18.07.27.27.2.44l-1.53,3.74c-.07.18-.29.27-.49.19-.19-.07-.29-.27-.22-.45l1.57-3.72c.07-.18.29-.27.47-.2Z"/>
          <path class="cls-2" d="M18.68,113.6c.12.16.09.38-.07.49l-3.22,2.44c-.16.12-.38.08-.5-.09-.12-.17-.1-.4.06-.52l3.25-2.41c.16-.11.38-.08.49.07Z"/>
          <path class="cls-2" d="M14.66,107.61c.1.17.05.38-.12.48l-3.46,2.09c-.16.1-.39.04-.5-.14s-.06-.4.11-.5l3.48-2.05c.17-.1.38-.04.49.12Z"/>
          <path class="cls-2" d="M6.09,84.31c.03.19-.1.37-.29.41l-3.98.7c-.19.03-.37-.11-.4-.31-.03-.21.1-.4.29-.43l3.99-.65c.19-.03.37.1.4.29Z"/>
          <path class="cls-2" d="M75.79,140.7c.19,0,.36.14.37.33l.19,4.04c0,.19-.15.36-.36.37-.21,0-.38-.14-.39-.33l-.14-4.04c0-.2.14-.36.34-.37Z"/>
          <path class="cls-2" d="M67.7,140.58c.19.01.34.17.33.37l-.29,4.03c-.01.19-.19.34-.4.33-.21-.01-.36-.17-.35-.37l.33-4.03c.02-.19.19-.35.38-.34Z"/>
        </g>
      </g>
    </g>
  </g>
</svg>