<?xml version="1.0" encoding="UTF-8"?>
<svg id="Layer_2" data-name="Layer 2" xmlns="http://www.w3.org/2000/svg" viewBox="0 0 469.52 469.19">
  <defs>
    <style>
      .cls-1 {
        fill: #606060;
      }

      .cls-2 {
        fill: #eb2426;
      }
    </style>
  </defs>
  <g id="Layer_1-2" data-name="Layer 1">
    <g>
      <g>
        <g>
          <path class="cls-2" d="M340.13,125.1c12.85,14.72,25.95,29.23,38.71,44.04,11.09,12.44,17.88,20.77,17.8,38.41-.36,17.54-8.03,34.28-17.38,48.83-13.48,20.7-30.19,39.63-48.78,55.92-4.69,3.35-9.13-.93-13.02-3.59-14.99-10.73-29.7-22.12-43.99-33.61-5.25-4.28-10.65-8.17-16.01-12.4-3.99-3.2-7.74-6.37-3.1-11.2,3.64-3.64,7.86-6.78,11.6-10.3,18.01-16.97,34.79-34.94,49.81-54.66,7.91-10.56,15-21.91,19.12-34.5,2.21-6.78,3.56-13.9,2.53-21-.28-2.05-.97-4.21-1.32-6.18-.85-4.44,1.92-2.07,3.97.2l.04.05Z"/>
          <path class="cls-2" d="M322.45,144.45c-1.7,5.62-6.32,6.34-11.19,8.04-26.23,9.51-52.24,28.64-68.51,51.57-3.25,3.66-5.74,1.04-7.98-2.2-1.52-2.17-3.1-4.22-4.85-6.3-8.02-9.53-17.08-18.01-27.22-24.96-12.44-8.74-26.06-14.31-40.14-19.51-1.75-.81-3.3-2.02-4.35-3.62-2.34-3.79-2.89-8.77-2.59-13.1,1.17-11.53,9.21-17.1,20.32-17.64,22.78-.9,44.08,12.63,59.1,29.29,3.8,4.3,6.12,3.68,9.67-.49,10.49-11.9,24.26-21.41,39.42-26.18,12.58-3.82,33.03-6.27,38.33,9.27,1.56,4.89,1.42,10.7.02,15.76l-.02.06Z"/>
        </g>
        <path class="cls-2" d="M140.03,123.99c1.25-1.27,3.3-3.14,2.7.41-.31,2.04-.94,4.12-1.2,6.19-.45,3.24-.42,6.55-.07,9.74,2.78,21.76,18.8,42.73,32.33,59.43,35.24,41.57,78.1,75.94,121.13,109.08,5.39,4.23,10.91,8.13,16.64,12,4.75,3.43,3.88,5.98-.38,9.68-4.33,3.87-8.97,7.64-13.65,11.19-12.36,9.29-25.05,18.02-37.65,26.95-3.53,2.46-7.12,4.89-10.73,7.22-3.65,2.17-7.47,5.51-11.84,5.39-1.99-.08-3.95-.99-5.88-2.24-50.02-33.72-134.22-99.15-147.36-160.03-2.81-14.64-.74-30.49,9.37-42.03,15.18-17.8,31.25-35.31,46.55-52.95l.04-.04ZM135.02,162.81c1.59-2.55,2.2-5.89,1.04-8.67-2.01-4.03-5.19.11-7.32,2.69-1.75,2.09-3.12,4.58-3.06,7.37.03,1.79.58,4.38,2.39,5.06,2.3.54,5.6-4.48,6.92-6.38l.04-.06ZM141.62,196.4c2.28-1.53,4.31-3.95,5.55-6.44,1.55-2.97.48-6.39-1.15-9.13-3.48-6.44-6.81-2.44-10.34,1.3-2.13,2.22-2.73,4.43-1.65,7.12.46,1.24,1.09,2.46,1.75,3.63,1.25,2.13,3.12,5.19,5.8,3.55l.05-.03ZM95.67,208.02c2.38-2.01,4.41-4.73,5.38-7.69.53-1.6.65-3.47.27-5.08-.34-1.67-1.48-3.44-3.28-2.47-1.17.58-2.09,1.56-2.94,2.57-1.9,2.27-3.28,4.95-3.5,7.88-.29,2.46.54,7.77,4.03,4.83l.05-.04ZM164.94,216.55c1.31-1.75,1.78-3.77.92-5.73-1.04-2.33-3.17-4.8-5.14-6.5-2.6-2.2-5.13-.96-7.43,1.41-1.97,2-4.35,4.51-3.58,7.54.51,2.26,2.56,4.98,4.34,6.93,2.03,2.25,4.17,2.44,6.56.56,1.51-1.13,3.18-2.64,4.29-4.15l.04-.06ZM104.42,236.46c1.08-.38,2.15-1.29,3.05-2.14,1.14-1.1,2.23-2.32,3-3.7,1.65-2.71.73-6.04-.77-8.68-1.14-2.08-2.96-4.41-5.44-2.99-1.74.96-3.33,2.75-4.52,4.38-1.81,2.36-2.02,5.11-.88,7.95.86,2.26,2.7,6.15,5.52,5.2l.05-.02ZM181.64,229.64c-3.41-1.16-7.1,3.06-9.26,5.44-3.66,4.31.74,8.2,3.99,11.43,1.57,1.45,3.62,2.76,5.81,2.24,2.54-.44,8.54-5.62,8.52-8.57,0-2.77-2.8-5-4.58-7-1.47-1.54-2.9-3.01-4.42-3.52l-.05-.02ZM121.59,244.49c-3.23-1.27-7.71,3.97-8.73,6.75-1.2,3.24,1.51,6.96,3.43,9.7,1.5,2.11,3.23,3.17,5.64,1.41,2.23-1.71,4.83-3.97,6.05-6.59.92-2.2-.02-4.02-1.5-6.21-1.34-1.84-2.75-4.07-4.84-5.04l-.05-.02ZM209.54,256.12c-2.03-.58-4.36.8-6.05,2.27-1.42,1.21-2.91,2.5-4.1,3.92-3.29,3.89-.19,6.44,2.98,9.48,1.06,1.02,2.13,2.11,3.25,3.03,1.95,1.7,3.92,1.68,6.23.07,2.31-1.65,4.99-3.8,6.85-5.97,2.71-3.21-.14-6-3.01-8.51-1.88-1.57-3.7-3.62-6.1-4.27h-.06ZM146.31,275.41c-3.42-3.23-7.1-8.76-12.04-4.6-2.81,2.17-5.91,5.69-3.75,9.28.85,1.48,2.14,2.77,3.32,4.03,2.96,3.17,5.96,5.59,9.5,3.13,2.07-1.44,4.7-3.52,5.52-5.87.75-2-.89-4.31-2.5-5.9l-.05-.06ZM248.03,288.64c-2.53-1.93-4.89-3.54-7.76-2.96-1.72.36-3.39,1.56-5.05,2.87-6.58,5.02-7.63,7.25-.31,12.54,2.14,1.61,4.4,3.77,7.21,3.81,2.29.03,4.33-1.44,6.04-2.86,1.97-1.64,4.08-3.3,4.84-5.12,1.56-3.65-2.45-6.22-4.9-8.24l-.06-.05ZM167.99,295.28c-3.19-2.04-6.4-.6-9.08,1.73-2.31,1.92-5.71,4.86-3.61,8.02,1.01,1.6,3.33,3.48,5.18,5.03,3.08,2.63,6.16,4.44,9.91,1.87,2.21-1.5,4.64-3.21,5.84-5.5,1.26-2.45-.62-4.79-2.41-6.43-1.79-1.61-3.79-3.46-5.77-4.69l-.06-.03ZM283.02,314.94c-3.37-1.21-6.53.9-9.19,2.89-2.13,1.53-4.8,3.5-5.81,5.2-1.5,2.33,1,4.31,2.78,5.63,2.71,1.79,6.04,4.71,9.23,4.84,1.27.01,2.4-.5,3.49-1.17,1.42-.89,2.82-1.96,4.2-2.95,2.4-1.84,4.99-3.28,5.52-5.49.34-2.23-1.84-3.62-3.42-4.86-2.08-1.44-4.46-3.28-6.74-4.07l-.06-.02ZM204.73,324.13c-4-3.18-7.48-4.54-11.88-1.24-7.39,5.05-7.08,7.92.22,13.12,5.31,4.28,8.6,4.4,13.98.15,7.88-5.75,3.77-7.43-2.25-11.99l-.06-.05ZM242.64,349.25c-4.5-2.53-8.29-1.66-12.4,1.12-1.58.99-3.24,1.97-4.6,3.15-4.05,3.3.5,5.49,3.6,7.5,3.43,2.22,7.22,5.4,11.55,3.93,1.98-.6,3.81-1.79,5.58-2.86,2.13-1.32,4.43-2.61,5.31-4.01,1.42-2.11-.86-3.97-2.57-5.06-2.06-1.31-4.26-2.58-6.4-3.74l-.06-.03Z"/>
      </g>
      <g>
        <g>
          <path class="cls-1" d="M347.73,34.03s-.39-.23-1.17-.72c-.78-.46-1.89-1.24-3.49-1.92-3.16-1.5-7.76-3.75-13.66-6.59-1.47-.72-3-1.43-4.63-2.25-1.66-.68-3.46-1.3-5.28-1.99-3.68-1.37-7.69-2.84-11.96-4.37-4.21-1.76-8.97-2.74-13.89-4.04-2.48-.62-4.99-1.27-7.6-1.96-2.61-.65-5.25-1.43-8.02-1.73-21.97-4.34-48.35-5.41-76.06-1.63-27.68,3.85-56.5,13.4-82.32,28.43-25.85,14.9-48.54,35.05-65.79,57.02-2.09,2.8-4.17,5.57-6.23,8.31-2.05,2.77-4.14,5.41-5.8,8.38-3.46,5.77-7.01,11.35-10.14,16.92-2.77,5.77-5.48,11.41-8.12,16.82-2.51,5.48-4.21,11.08-6.23,16.3-.95,2.64-1.96,5.18-2.77,7.73-.68,2.61-1.34,5.12-1.96,7.6-1.27,4.96-2.45,9.65-3.55,14.02-1.37,9-2.64,16.82-3.49,23.28-.65,13.04-1.04,20.47-1.04,20.47-.07,1.3-1.11,2.38-2.38,2.38S-.06,233.42,0,232.05c0,0,.39-7.6,1.08-20.86.85-6.59,2.15-14.57,3.55-23.73,1.14-4.5,2.35-9.29,3.65-14.31.65-2.51,1.3-5.09,2.02-7.76.82-2.61,1.86-5.18,2.8-7.89,2.05-5.31,3.78-11.02,6.36-16.63,2.67-5.54,5.44-11.28,8.28-17.15,3.16-5.71,6.78-11.38,10.33-17.25,1.66-3,3.81-5.74,5.93-8.54,2.09-2.8,4.21-5.64,6.36-8.48,17.6-22.4,40.72-42.94,67.09-58.13,26.24-15.29,55.65-25.07,83.85-28.95,28.23-3.88,55.13-2.77,77.53,1.66,2.84.33,5.54,1.08,8.18,1.76,2.64.68,5.22,1.34,7.76,1.99,5.02,1.34,9.88,2.35,14.15,4.14,4.37,1.6,8.44,3.1,12.19,4.47,1.86.68,3.72,1.3,5.41,2.02,1.66.82,3.23,1.56,4.73,2.25,6,2.9,10.73,5.18,13.92,6.72,1.63.72,2.77,1.53,3.55,1.99.78.49,1.21.72,1.21.72,1.17.68,1.56,2.12.95,3.23-.62,1.08-2.05,1.4-3.16.72h.01Z"/>
          <path class="cls-1" d="M336.91,53.2s-.36-.23-1.08-.65c-.72-.39-1.7-1.11-3.16-1.76-2.84-1.37-7.01-3.39-12.36-5.93-1.3-.65-2.71-1.3-4.21-2.02-1.5-.62-3.13-1.17-4.79-1.79-3.33-1.24-6.94-2.54-10.79-3.94-3.81-1.63-8.12-2.45-12.55-3.65-2.22-.59-4.5-1.17-6.85-1.76-2.35-.62-4.73-1.3-7.24-1.56-19.82-3.94-43.78-4.86-68.79-1.43-25.04,3.46-51.05,12.1-74.4,25.66-23.38,13.46-43.88,31.72-59.53,51.58-1.89,2.54-3.78,5.05-5.64,7.53-1.86,2.48-3.81,4.89-5.25,7.56-3.1,5.25-6.36,10.24-9.16,15.29-2.51,5.22-4.96,10.3-7.34,15.22-2.28,4.96-3.78,10.04-5.61,14.74-.85,2.38-1.79,4.66-2.51,7.01-.59,2.35-1.17,4.63-1.76,6.85-1.14,4.47-2.22,8.7-3.26,12.68-1.21,8.12-2.28,15.22-3.16,21.06-.59,11.8-.91,18.55-.91,18.55-.03.59-.55,1.08-1.17,1.08s-1.11-.49-1.08-1.11c0,0,.36-6.81.95-18.75.78-5.9,1.99-13.07,3.19-21.29,1.01-4.01,2.12-8.31,3.29-12.81.59-2.25,1.17-4.56,1.76-6.94.72-2.35,1.66-4.66,2.51-7.07,1.86-4.76,3.39-9.88,5.67-14.9,2.41-4.96,4.86-10.11,7.4-15.39,2.84-5.12,6.13-10.17,9.26-15.45,1.47-2.71,3.42-5.15,5.31-7.66s3.78-5.05,5.71-7.63c15.78-20.08,36.51-38.53,60.18-52.13,23.57-13.73,49.88-22.46,75.18-25.95,25.3-3.46,49.49-2.51,69.54,1.47,2.54.29,4.96.98,7.34,1.6s4.69,1.21,6.94,1.79c4.5,1.21,8.87,2.05,12.68,3.68,3.91,1.43,7.53,2.74,10.92,3.98,1.66.65,3.33,1.17,4.86,1.83,1.47.72,2.9,1.4,4.24,2.05,5.38,2.58,9.58,4.6,12.49,6,1.47.65,2.48,1.37,3.19,1.79s1.08.65,1.08.65c.52.29.68,1.01.36,1.53-.33.55-.98.72-1.47.42l.02-.03Z"/>
          <path class="cls-1" d="M17.64,210.79c-.1.62-.68,1.08-1.3,1.01l-12.91-1.34c-.62-.07-1.04-.65-.95-1.3.1-.65.68-1.14,1.3-1.08l12.91,1.47c.62.07,1.04.62.95,1.24h0Z"/>
          <path class="cls-1" d="M102.14,61.25c-.49.36-1.21.26-1.6-.23l-7.95-10.27c-.39-.49-.26-1.21.26-1.63.52-.39,1.27-.33,1.66.16l7.86,10.37c.36.49.26,1.21-.23,1.56v.03h0Z"/>
          <path class="cls-1" d="M208.75,17.82c-.62.1-1.17-.36-1.27-.98l-1.6-12.88c-.07-.62.39-1.21,1.08-1.3.65-.1,1.24.33,1.34.95l1.47,12.91c.07.62-.36,1.21-.98,1.3h-.04Z"/>
          <path class="cls-1" d="M231.9,16.26c-.62,0-1.14-.46-1.14-1.08l-.23-13.01c0-.62.52-1.14,1.21-1.21.68,0,1.21.46,1.21,1.08l.1,13.01c0,.62-.49,1.14-1.11,1.21h-.04Z"/>
          <path class="cls-1" d="M310.6,29.95c-.59-.23-.88-.88-.68-1.47l4.47-12.19c.23-.59.88-.88,1.53-.65.62.23.95.91.75,1.47l-4.6,12.16c-.23.59-.88.88-1.47.68Z"/>
          <path class="cls-1" d="M41.28,133.3c-.26.55-.95.78-1.5.52l-11.54-5.97c-.55-.29-.78-1.01-.49-1.63.29-.59.98-.85,1.53-.55l11.48,6.1c.55.29.78,1.01.52,1.53Z"/>
          <path class="cls-1" d="M54.68,111c-.36.52-1.11.62-1.63.29l-10.76-7.3c-.52-.36-.62-1.08-.23-1.6.39-.55,1.14-.68,1.66-.33l10.69,7.4c.52.36.62,1.04.26,1.53h.01Z"/>
        </g>
        <g>
          <path class="cls-1" d="M351.84,432.58s1.6-.98,4.56-2.77c3-1.83,7.47-4.34,12.58-8.41,5.15-4.01,11.83-8.31,18.35-14.7,3.36-3.1,6.98-6.26,10.66-9.81,3.42-3.75,7.04-7.73,10.79-11.87,14.54-16.95,29.21-38.93,39.61-64.94,10.53-25.92,16.56-55.68,16.59-85.55,0-29.83-6.06-59.63-16.59-85.51-10.43-26.02-25.1-47.99-39.61-64.94-3.75-4.14-7.37-8.12-10.79-11.87-3.68-3.52-7.34-6.72-10.66-9.78-6.52-6.39-13.2-10.69-18.35-14.7-5.12-4.08-9.58-6.59-12.58-8.41-3-1.83-4.56-2.8-4.56-2.8-1.14-.68-1.53-2.12-.91-3.19.62-1.08,2.05-1.4,3.19-.72,0,0,1.63.98,4.66,2.84s7.6,4.43,12.81,8.57c5.25,4.08,12.06,8.51,18.71,15,3.42,3.13,7.14,6.39,10.89,9.98,3.49,3.85,7.17,7.89,11.02,12.13,14.8,17.28,29.77,39.71,40.39,66.21,10.73,26.44,16.89,56.79,16.92,87.21,0,30.42-6.19,60.8-16.92,87.21-10.63,26.54-25.59,48.93-40.39,66.21-3.85,4.21-7.53,8.25-11.02,12.1-3.75,3.59-7.47,6.85-10.89,9.98-6.65,6.49-13.46,10.92-18.71,15-5.22,4.14-9.78,6.72-12.81,8.57-3.06,1.83-4.66,2.84-4.66,2.84-1.14.68-2.58.39-3.19-.68s-.23-2.51.91-3.19v.03-.04Z"/>
          <path class="cls-1" d="M340.59,413.61s1.43-.88,4.14-2.51c2.71-1.63,6.78-3.88,11.38-7.6,4.66-3.65,10.73-7.5,16.59-13.3,3.03-2.77,6.32-5.67,9.68-8.83,3.1-3.42,6.36-7.01,9.75-10.76,13.14-15.36,26.41-35.24,35.83-58.72,9.52-23.41,15-50.3,15-77.33s-5.51-53.92-15-77.33c-9.42-23.51-22.69-43.36-35.83-58.72-3.39-3.75-6.65-7.34-9.75-10.76-3.36-3.16-6.65-6.03-9.68-8.84-5.87-5.8-11.96-9.65-16.59-13.3-4.6-3.72-8.67-5.97-11.38-7.6-2.71-1.63-4.14-2.51-4.14-2.51-.52-.29-.65-1.01-.36-1.53.33-.55.98-.72,1.5-.39,0,0,1.47.88,4.21,2.54s6.85,3.94,11.51,7.69c4.69,3.68,10.86,7.6,16.79,13.46,3.06,2.8,6.39,5.74,9.78,8.93,3.13,3.46,6.42,7.07,9.88,10.86,13.27,15.52,26.7,35.6,36.22,59.37,9.62,23.67,15.16,50.83,15.16,78.18s-5.54,54.51-15.16,78.18c-9.52,23.77-22.95,43.85-36.22,59.33-3.46,3.78-6.75,7.43-9.88,10.89-3.36,3.23-6.72,6.13-9.78,8.93-5.93,5.87-12.1,9.78-16.79,13.46-4.66,3.75-8.77,6.03-11.51,7.69s-4.21,2.54-4.21,2.54c-.52.29-1.17.13-1.5-.39-.33-.55-.16-1.24.36-1.53v-.13.03Z"/>
          <path class="cls-1" d="M363.71,58.54c-.49-.36-.62-1.08-.23-1.6l7.63-10.53c.36-.49,1.11-.59,1.63-.2s.68,1.11.29,1.63l-7.73,10.43c-.39.49-1.08.62-1.56.23l-.03.03h0Z"/>
          <path class="cls-1" d="M451.11,206.33c-.1-.62.33-1.17.95-1.27l12.88-1.73c.62-.07,1.21.39,1.3,1.04s-.33,1.24-.95,1.34l-12.91,1.6c-.62.1-1.21-.36-1.3-.98h.03Z"/>
          <path class="cls-1" d="M435.53,320.46c.26-.55.98-.82,1.53-.59l11.96,5.05c.59.26.82.95.52,1.53s-.98.88-1.56.65l-11.93-5.18c-.59-.26-.82-.91-.55-1.47h.03Z"/>
          <path class="cls-1" d="M425.19,341.23c.33-.52,1.01-.72,1.56-.42l11.38,6.29c.55.29.72,1.01.36,1.56-.33.59-1.08.78-1.6.49l-11.31-6.42c-.55-.33-.72-.98-.39-1.53v.03h0Z"/>
          <path class="cls-1" d="M374.07,402.69c.46-.42,1.17-.36,1.56.1l8.35,9.98c.39.49.33,1.21-.16,1.66s-1.27.39-1.66-.1l-8.25-10.04c-.39-.49-.29-1.17.16-1.6Z"/>
          <path class="cls-1" d="M419.03,117.68c-.33-.52-.16-1.24.36-1.56l10.92-7.01c.52-.36,1.24-.16,1.6.42s.2,1.3-.33,1.63l-11.02,6.91c-.52.33-1.21.16-1.53-.36v-.03h0Z"/>
          <path class="cls-1" d="M431.61,140.44c-.26-.55-.03-1.24.52-1.5l11.7-5.67c.55-.26,1.24,0,1.53.59s.07,1.3-.49,1.56l-11.74,5.54c-.59.26-1.24,0-1.53-.52h0Z"/>
        </g>
        <g>
          <path class="cls-1" d="M4.57,236.91s.36,7.43,1.04,20.47c.85,6.46,2.12,14.28,3.49,23.28,1.11,4.4,2.31,9.1,3.55,14.05.65,2.48,1.3,4.99,1.96,7.6.78,2.58,1.83,5.09,2.77,7.76,2.02,5.22,3.72,10.82,6.23,16.3,2.61,5.44,5.31,11.05,8.12,16.82,3.1,5.61,6.68,11.15,10.14,16.92,1.66,2.97,3.75,5.61,5.8,8.38,2.05,2.74,4.14,5.51,6.23,8.31,17.28,21.97,39.94,42.12,65.79,57.02,25.79,15.03,54.61,24.58,82.32,28.43,27.68,3.78,54.09,2.74,76.06-1.63,2.77-.33,5.41-1.08,8.02-1.73,2.58-.65,5.12-1.34,7.6-1.96,4.92-1.3,9.68-2.28,13.89-4.04,4.27-1.56,8.28-3.03,11.96-4.37,1.83-.68,3.65-1.3,5.28-2.02,1.63-.78,3.16-1.53,4.63-2.22,5.9-2.84,10.5-5.05,13.66-6.59,1.6-.72,2.71-1.5,3.49-1.92.78-.46,1.17-.68,1.17-.68,1.11-.68,2.54-.36,3.16.72s.2,2.51-.95,3.23c0,0-.39.26-1.21.72-.78.46-1.92,1.24-3.55,1.99-3.23,1.53-7.92,3.81-13.92,6.72-1.5.72-3.06,1.5-4.73,2.28-1.7.72-3.52,1.3-5.41,2.05-3.78,1.4-7.82,2.87-12.19,4.47-4.3,1.79-9.13,2.8-14.15,4.14-2.51.65-5.09,1.3-7.76,1.99-2.64.68-5.35,1.43-8.18,1.76-22.4,4.43-49.29,5.54-77.53,1.66-28.23-3.88-57.64-13.66-83.92-28.98-26.37-15.19-49.49-35.73-67.09-58.13-2.15-2.87-4.27-5.71-6.36-8.48-2.09-2.8-4.24-5.54-5.93-8.54-3.52-5.87-7.17-11.54-10.33-17.25-2.84-5.9-5.61-11.61-8.28-17.18-2.54-5.57-4.3-11.28-6.36-16.63-.95-2.67-1.99-5.28-2.8-7.89-.68-2.64-1.37-5.22-2.02-7.73-1.27-5.05-2.51-9.81-3.65-14.31-1.4-9.16-2.71-17.15-3.55-23.73C.43,244.54.04,236.97.04,236.97c-.07-1.34.88-2.45,2.15-2.45s2.31,1.08,2.38,2.38h0Z"/>
          <path class="cls-1" d="M26.61,236.68s.33,6.75.91,18.52c.88,5.84,1.92,12.91,3.16,21.06,1.01,3.98,2.12,8.22,3.26,12.68.55,2.22,1.14,4.53,1.76,6.88.72,2.31,1.66,4.6,2.51,6.98,1.83,4.69,3.33,9.78,5.61,14.74,2.38,4.92,4.79,10.01,7.34,15.22,2.8,5.05,6.06,10.04,9.16,15.29,1.47,2.71,3.39,5.09,5.25,7.56,1.86,2.48,3.75,4.99,5.64,7.53,15.62,19.89,36.12,38.11,59.53,51.58,23.34,13.56,49.36,22.23,74.4,25.69,25.04,3.42,48.97,2.48,68.79-1.43,2.51-.26,4.89-.98,7.24-1.56s4.63-1.21,6.85-1.76c4.47-1.21,8.77-2.05,12.55-3.65,3.85-1.43,7.47-2.74,10.79-3.94,1.66-.62,3.29-1.14,4.79-1.79,1.47-.72,2.87-1.4,4.21-2.05,5.31-2.58,9.49-4.56,12.36-5.93,1.47-.62,2.45-1.34,3.16-1.76s1.08-.65,1.08-.65c.52-.33,1.17-.13,1.47.42.33.55.13,1.24-.36,1.56,0,0-.36.23-1.08.65-.72.39-1.73,1.14-3.19,1.76-2.87,1.4-7.11,3.42-12.49,6-1.34.65-2.77,1.34-4.24,2.05-1.53.65-3.16,1.17-4.86,1.79-3.39,1.24-7.04,2.58-10.92,4.01-3.85,1.63-8.18,2.48-12.68,3.68-2.25.59-4.56,1.17-6.94,1.79s-4.76,1.34-7.34,1.6c-20.05,3.98-44.24,4.92-69.54,1.47-25.3-3.49-51.61-12.23-75.18-25.95-23.64-13.59-44.37-32.05-60.18-52.13-1.92-2.58-3.81-5.12-5.71-7.63s-3.85-4.96-5.31-7.66c-3.13-5.28-6.42-10.37-9.26-15.49-2.54-5.28-5.02-10.4-7.4-15.39-2.28-4.99-3.81-10.14-5.67-14.9-.85-2.41-1.83-4.73-2.51-7.07-.62-2.35-1.21-4.69-1.76-6.94-1.17-4.5-2.25-8.8-3.29-12.81-1.21-8.22-2.41-15.36-3.19-21.29-.59-11.93-.95-18.75-.95-18.75,0-.59.46-1.08,1.08-1.11.62,0,1.14.49,1.17,1.08v.07l-.02-.02Z"/>
          <path class="cls-1" d="M322.69,434.37c.55-.26,1.21-.03,1.47.52l5.31,11.87c.26.59,0,1.27-.62,1.53-.59.29-1.3.07-1.53-.49l-5.18-11.93c-.23-.59,0-1.27.59-1.53l-.03.03h-.01Z"/>
          <path class="cls-1" d="M150.88,436.2c.59.23.88.85.65,1.43l-4.92,12.03c-.23.59-.95.85-1.56.62-.62-.23-.95-.88-.68-1.47l5.05-11.96c.23-.59.91-.88,1.5-.65h-.04Z"/>
          <path class="cls-1" d="M60.09,365.32c.36.49.26,1.21-.23,1.6l-10.37,7.86c-.49.36-1.21.26-1.63-.26-.39-.55-.33-1.27.16-1.66l10.43-7.76c.49-.36,1.21-.26,1.56.23h.08Z"/>
          <path class="cls-1" d="M47.18,346.06c.33.55.16,1.24-.39,1.56l-11.12,6.72c-.52.33-1.24.13-1.6-.46s-.2-1.3.36-1.63l11.21-6.59c.52-.33,1.24-.13,1.56.39h-.03,0Z"/>
          <path class="cls-1" d="M19.63,271.14c.1.62-.33,1.21-.95,1.3l-12.81,2.25c-.62.1-1.21-.36-1.3-1.01s.33-1.27.91-1.4l12.81-2.09c.62-.1,1.21.33,1.27.95h.07Z"/>
          <path class="cls-1" d="M243.76,452.47c.62,0,1.14.46,1.17,1.08l.62,12.98c0,.62-.49,1.17-1.17,1.21-.68,0-1.24-.42-1.24-1.08l-.46-12.98c0-.62.46-1.14,1.08-1.21h0Z"/>
          <path class="cls-1" d="M217.75,452.08c.62.03,1.11.55,1.04,1.21l-.95,12.98c-.03.62-.62,1.11-1.27,1.08-.68-.03-1.17-.55-1.11-1.21l1.08-12.94c.07-.62.59-1.11,1.21-1.08v-.03h0Z"/>
        </g>
      </g>
    </g>
  </g>
</svg>