<?xml version="1.0" encoding="UTF-8"?>
<svg id="Layer_2" data-name="Layer 2" xmlns="http://www.w3.org/2000/svg" viewBox="0 0 144.01 143.88">
  <defs>
    <style>
      .cls-1 {
        fill: #606060;
      }

      .cls-2 {
        fill: #eb2426;
      }
    </style>
  </defs>
  <g id="Layer_1-2" data-name="Layer 1">
    <path class="cls-2" d="M110.61,51.83c-12.41-20.4-31.12-6.21-31.12-6.21-1.21.91-3.45,1.67-4.97,1.67h-5.01c-1.52,0-3.75-.74-4.97-1.67,0,0-18.7-14.2-31.12,6.2-12.41,20.39-7.41,42.6-7.41,42.6.88,5.44,3.77,9.06,9.22,8.61,5.44-.46,17.23-14.65,17.23-14.65.97-1.17,3.02-2.12,4.54-2.12h30.03c1.52,0,3.55.95,4.53,2.12,0,0,11.8,14.19,17.24,14.65,5.44.46,8.34-3.18,9.21-8.61,0,0,5.01-22.21-7.4-42.6h0ZM60.73,68.43h-6.44v6.21s-1.36,1.04-3.47,1.02c-2.11-.03-3.06-1.14-3.06-1.14v-6.08h-6.08s-.76-.78-.96-2.82c-.2-2.05.84-3.7.84-3.7h6.44v-6.44s1.33-.71,3.23-.66c1.91.06,3.3.77,3.3.77l-.03,6.32h6.08s1.06,1.36,1.15,3.01c.09,1.65-1,3.52-1,3.52h0ZM90.27,75.51c-2.82,0-5.1-2.28-5.1-5.1s2.27-5.1,5.1-5.1,5.1,2.28,5.1,5.1-2.29,5.1-5.1,5.1ZM90.27,61.48c-2.82,0-5.1-2.28-5.1-5.1s2.27-5.1,5.1-5.1,5.1,2.28,5.1,5.1-2.29,5.1-5.1,5.1ZM102.96,69.01c-2.82,0-5.1-2.28-5.1-5.1s2.27-5.1,5.1-5.1,5.1,2.28,5.1,5.1-2.29,5.1-5.1,5.1Z"/>
    <g>
      <g>
        <path class="cls-1" d="M106.65,10.44s-.12-.07-.36-.22c-.24-.14-.58-.38-1.07-.59-.97-.46-2.38-1.15-4.19-2.02-.45-.22-.92-.44-1.42-.69-.51-.21-1.06-.4-1.62-.61-1.13-.42-2.36-.87-3.67-1.34-1.29-.54-2.75-.84-4.26-1.24-.76-.19-1.53-.39-2.33-.6-.8-.2-1.61-.44-2.46-.53-6.74-1.33-14.83-1.66-23.33-.5-8.49,1.18-17.33,4.11-25.25,8.72-7.93,4.57-14.89,10.75-20.18,17.49-.64.86-1.28,1.71-1.91,2.55-.63.85-1.27,1.66-1.78,2.57-1.06,1.77-2.15,3.48-3.11,5.19-.85,1.77-1.68,3.5-2.49,5.16-.77,1.68-1.29,3.4-1.91,5-.29.81-.6,1.59-.85,2.37-.21.8-.41,1.57-.6,2.33-.39,1.52-.75,2.96-1.09,4.3-.42,2.76-.81,5.16-1.07,7.14-.2,4-.32,6.28-.32,6.28-.02.4-.34.73-.73.73s-.68-.33-.66-.75c0,0,.12-2.33.33-6.4.26-2.02.66-4.47,1.09-7.28.35-1.38.72-2.85,1.12-4.39.2-.77.4-1.56.62-2.38.25-.8.57-1.59.86-2.42.63-1.63,1.16-3.38,1.95-5.1.82-1.7,1.67-3.46,2.54-5.26.97-1.75,2.08-3.49,3.17-5.29.51-.92,1.17-1.76,1.82-2.62.64-.86,1.29-1.73,1.95-2.6,5.4-6.87,12.49-13.17,20.58-17.83C44.07,4.92,53.09,1.92,61.74.73c8.66-1.19,16.91-.85,23.78.51.87.1,1.7.33,2.51.54.81.21,1.6.41,2.38.61,1.54.41,3.03.72,4.34,1.27,1.34.49,2.59.95,3.74,1.37.57.21,1.14.4,1.66.62.51.25.99.48,1.45.69,1.84.89,3.29,1.59,4.27,2.06.5.22.85.47,1.09.61.24.15.37.22.37.22.36.21.48.65.29.99-.19.33-.63.43-.97.22Z"/>
        <path class="cls-1" d="M103.33,16.32s-.11-.07-.33-.2c-.22-.12-.52-.34-.97-.54-.87-.42-2.15-1.04-3.79-1.82-.4-.2-.83-.4-1.29-.62-.46-.19-.96-.36-1.47-.55-1.02-.38-2.13-.78-3.31-1.21-1.17-.5-2.49-.75-3.85-1.12-.68-.18-1.38-.36-2.1-.54-.72-.19-1.45-.4-2.22-.48-6.08-1.21-13.43-1.49-21.1-.44-7.68,1.06-15.66,3.71-22.82,7.87-7.17,4.13-13.46,9.73-18.26,15.82-.58.78-1.16,1.55-1.73,2.31-.57.76-1.17,1.5-1.61,2.32-.95,1.61-1.95,3.14-2.81,4.69-.77,1.6-1.52,3.16-2.25,4.67-.7,1.52-1.16,3.08-1.72,4.52-.26.73-.55,1.43-.77,2.15-.18.72-.36,1.42-.54,2.1-.35,1.37-.68,2.67-1,3.89-.37,2.49-.7,4.67-.97,6.46-.18,3.62-.28,5.69-.28,5.69-.01.18-.17.33-.36.33s-.34-.15-.33-.34c0,0,.11-2.09.29-5.75.24-1.81.61-4.01.98-6.53.31-1.23.65-2.55,1.01-3.93.18-.69.36-1.4.54-2.13.22-.72.51-1.43.77-2.17.57-1.46,1.04-3.03,1.74-4.57.74-1.52,1.49-3.1,2.27-4.72.87-1.57,1.88-3.12,2.84-4.74.45-.83,1.05-1.58,1.63-2.35.58-.77,1.16-1.55,1.75-2.34,4.84-6.16,11.2-11.82,18.46-15.99,7.23-4.21,15.3-6.89,23.06-7.96,7.76-1.06,15.18-.77,21.33.45.78.09,1.52.3,2.25.49.73.19,1.44.37,2.13.55,1.38.37,2.72.63,3.89,1.13,1.2.44,2.31.84,3.35,1.22.51.2,1.02.36,1.49.56.45.22.89.43,1.3.63,1.65.79,2.94,1.41,3.83,1.84.45.2.76.42.98.55.22.13.33.2.33.2.16.09.21.31.11.47-.1.17-.3.22-.45.13Z"/>
        <path class="cls-1" d="M5.4,64.66c-.03.19-.21.33-.4.31l-3.96-.41c-.19-.02-.32-.2-.29-.4.03-.2.21-.35.4-.33l3.96.45c.19.02.32.19.29.38Z"/>
        <path class="cls-1" d="M31.32,18.79c-.15.11-.37.08-.49-.07l-2.44-3.15c-.12-.15-.08-.37.08-.5.16-.12.39-.1.51.05l2.41,3.18c.11.15.08.37-.07.48Z"/>
        <path class="cls-1" d="M64.02,5.47c-.19.03-.36-.11-.39-.3l-.49-3.95c-.02-.19.12-.37.33-.4.2-.03.38.1.41.29l.45,3.96c.02.19-.11.37-.3.4Z"/>
        <path class="cls-1" d="M71.12,4.99c-.19,0-.35-.14-.35-.33l-.07-3.99c0-.19.16-.35.37-.37.21,0,.37.14.37.33l.03,3.99c0,.19-.15.35-.34.37Z"/>
        <path class="cls-1" d="M95.26,9.19c-.18-.07-.27-.27-.21-.45l1.37-3.74c.07-.18.27-.27.47-.2.19.07.29.28.23.45l-1.41,3.73c-.07.18-.27.27-.45.21Z"/>
        <path class="cls-1" d="M12.65,40.89c-.08.17-.29.24-.46.16l-3.54-1.83c-.17-.09-.24-.31-.15-.5.09-.18.3-.26.47-.17l3.52,1.87c.17.09.24.31.16.47Z"/>
        <path class="cls-1" d="M16.76,34.05c-.11.16-.34.19-.5.09l-3.3-2.24c-.16-.11-.19-.33-.07-.49.12-.17.35-.21.51-.1l3.28,2.27c.16.11.19.32.08.47Z"/>
      </g>
      <g>
        <path class="cls-1" d="M107.91,132.69s.49-.3,1.4-.85c.92-.56,2.29-1.33,3.86-2.58,1.58-1.23,3.63-2.55,5.63-4.51,1.03-.95,2.14-1.92,3.27-3.01,1.05-1.15,2.16-2.37,3.31-3.64,4.46-5.2,8.96-11.94,12.15-19.92,3.23-7.95,5.08-17.08,5.09-26.24,0-9.15-1.86-18.29-5.09-26.23-3.2-7.98-7.7-14.72-12.15-19.92-1.15-1.27-2.26-2.49-3.31-3.64-1.13-1.08-2.25-2.06-3.27-3-2-1.96-4.05-3.28-5.63-4.51-1.57-1.25-2.94-2.02-3.86-2.58-.92-.56-1.4-.86-1.4-.86-.35-.21-.47-.65-.28-.98.19-.33.63-.43.98-.22,0,0,.5.3,1.43.87.93.57,2.33,1.36,3.93,2.63,1.61,1.25,3.7,2.61,5.74,4.6,1.05.96,2.19,1.96,3.34,3.06,1.07,1.18,2.2,2.42,3.38,3.72,4.54,5.3,9.13,12.18,12.39,20.31,3.29,8.11,5.18,17.42,5.19,26.75,0,9.33-1.9,18.65-5.19,26.75-3.26,8.14-7.85,15.01-12.39,20.31-1.18,1.29-2.31,2.53-3.38,3.71-1.15,1.1-2.29,2.1-3.34,3.06-2.04,1.99-4.13,3.35-5.74,4.6-1.6,1.27-3,2.06-3.93,2.63-.94.56-1.43.87-1.43.87-.35.21-.79.12-.98-.21-.19-.33-.07-.77.28-.98Z"/>
        <path class="cls-1" d="M104.46,126.87s.44-.27,1.27-.77c.83-.5,2.08-1.19,3.49-2.33,1.43-1.12,3.29-2.3,5.09-4.08.93-.85,1.94-1.74,2.97-2.71.95-1.05,1.95-2.15,2.99-3.3,4.03-4.71,8.1-10.81,10.99-18.01,2.92-7.18,4.6-15.43,4.6-23.72,0-8.29-1.69-16.54-4.6-23.72-2.89-7.21-6.96-13.3-10.99-18.01-1.04-1.15-2.04-2.25-2.99-3.3-1.03-.97-2.04-1.85-2.97-2.71-1.8-1.78-3.67-2.96-5.09-4.08-1.41-1.14-2.66-1.83-3.49-2.33-.83-.5-1.27-.77-1.27-.77-.16-.09-.2-.31-.11-.47.1-.17.3-.22.46-.12,0,0,.45.27,1.29.78.84.51,2.1,1.21,3.53,2.36,1.44,1.13,3.33,2.33,5.15,4.13.94.86,1.96,1.76,3,2.74.96,1.06,1.97,2.17,3.03,3.33,4.07,4.76,8.19,10.92,11.11,18.21,2.95,7.26,4.65,15.59,4.65,23.98,0,8.39-1.7,16.72-4.65,23.98-2.92,7.29-7.04,13.45-11.11,18.2-1.06,1.16-2.07,2.28-3.03,3.34-1.03.99-2.06,1.88-3,2.74-1.82,1.8-3.71,3-5.15,4.13-1.43,1.15-2.69,1.85-3.53,2.36-.84.51-1.29.78-1.29.78-.16.09-.36.04-.46-.12-.1-.17-.05-.38.11-.47Z"/>
        <path class="cls-1" d="M111.55,17.96c-.15-.11-.19-.33-.07-.49l2.34-3.23c.11-.15.34-.18.5-.06.16.12.21.34.09.5l-2.37,3.2c-.12.15-.33.19-.48.07Z"/>
        <path class="cls-1" d="M138.36,63.29c-.03-.19.1-.36.29-.39l3.95-.53c.19-.02.37.12.4.32.03.2-.1.38-.29.41l-3.96.49c-.19.03-.37-.11-.4-.3Z"/>
        <path class="cls-1" d="M133.58,98.3c.08-.17.3-.25.47-.18l3.67,1.55c.18.08.25.29.16.47-.09.18-.3.27-.48.2l-3.66-1.59c-.18-.08-.25-.28-.17-.45Z"/>
        <path class="cls-1" d="M130.41,104.67c.1-.16.31-.22.48-.13l3.49,1.93c.17.09.22.31.11.48-.1.18-.33.24-.49.15l-3.47-1.97c-.17-.1-.22-.3-.12-.47Z"/>
        <path class="cls-1" d="M114.73,123.52c.14-.13.36-.11.48.03l2.56,3.06c.12.15.1.37-.05.51-.15.14-.39.12-.51-.03l-2.53-3.08c-.12-.15-.09-.36.05-.49Z"/>
        <path class="cls-1" d="M128.52,36.1c-.1-.16-.05-.38.11-.48l3.35-2.15c.16-.11.38-.05.49.13.11.18.06.4-.1.5l-3.38,2.12c-.16.1-.37.05-.47-.11Z"/>
        <path class="cls-1" d="M132.38,43.08c-.08-.17-.01-.38.16-.46l3.59-1.74c.17-.08.38,0,.47.18.09.18.02.4-.15.48l-3.6,1.7c-.18.08-.38,0-.47-.16Z"/>
      </g>
      <g>
        <path class="cls-1" d="M1.39,72.67s.11,2.28.32,6.28c.26,1.98.65,4.38,1.07,7.14.34,1.35.71,2.79,1.09,4.31.2.76.4,1.53.6,2.33.24.79.56,1.56.85,2.38.62,1.6,1.14,3.32,1.91,5,.8,1.67,1.63,3.39,2.49,5.16.95,1.72,2.05,3.42,3.11,5.19.51.91,1.15,1.72,1.78,2.57.63.84,1.27,1.69,1.91,2.55,5.3,6.74,12.25,12.92,20.18,17.49,7.91,4.61,16.75,7.54,25.25,8.72,8.49,1.16,16.59.84,23.33-.5.85-.1,1.66-.33,2.46-.53.79-.2,1.57-.41,2.33-.6,1.51-.4,2.97-.7,4.26-1.24,1.31-.48,2.54-.93,3.67-1.34.56-.21,1.12-.4,1.62-.62.5-.24.97-.47,1.42-.68,1.81-.87,3.22-1.55,4.19-2.02.49-.22.83-.46,1.07-.59.24-.14.36-.21.36-.21.34-.21.78-.11.97.22.19.33.06.77-.29.99,0,0-.12.08-.37.22-.24.14-.59.38-1.09.61-.99.47-2.43,1.17-4.27,2.06-.46.22-.94.46-1.45.7-.52.22-1.08.4-1.66.63-1.16.43-2.4.88-3.74,1.37-1.32.55-2.8.86-4.34,1.27-.77.2-1.56.4-2.38.61-.81.21-1.64.44-2.51.54-6.87,1.36-15.12,1.7-23.78.51-8.66-1.19-17.68-4.19-25.74-8.89-8.09-4.66-15.18-10.96-20.58-17.83-.66-.88-1.31-1.75-1.95-2.6-.64-.86-1.3-1.7-1.82-2.62-1.08-1.8-2.2-3.54-3.17-5.29-.87-1.81-1.72-3.56-2.54-5.27-.78-1.71-1.32-3.46-1.95-5.1-.29-.82-.61-1.62-.86-2.42-.21-.81-.42-1.6-.62-2.37-.39-1.55-.77-3.01-1.12-4.39-.43-2.81-.83-5.26-1.09-7.28C.12,75.01,0,72.69,0,72.69c-.02-.41.27-.75.66-.75s.71.33.73.73Z"/>
        <path class="cls-1" d="M8.15,72.6s.1,2.07.28,5.68c.27,1.79.59,3.96.97,6.46.31,1.22.65,2.52,1,3.89.17.68.35,1.39.54,2.11.22.71.51,1.41.77,2.14.56,1.44,1.02,3,1.72,4.52.73,1.51,1.47,3.07,2.25,4.67.86,1.55,1.86,3.08,2.81,4.69.45.83,1.04,1.56,1.61,2.32.57.76,1.15,1.53,1.73,2.31,4.79,6.1,11.08,11.69,18.26,15.82,7.16,4.16,15.14,6.82,22.82,7.88,7.68,1.05,15.02.76,21.1-.44.77-.08,1.5-.3,2.22-.48.72-.18,1.42-.37,2.1-.54,1.37-.37,2.69-.63,3.85-1.12,1.18-.44,2.29-.84,3.31-1.21.51-.19,1.01-.35,1.47-.55.45-.22.88-.43,1.29-.63,1.63-.79,2.91-1.4,3.79-1.82.45-.19.75-.41.97-.54.22-.13.33-.2.33-.2.16-.1.36-.04.45.13.1.17.04.38-.11.48,0,0-.11.07-.33.2-.22.12-.53.35-.98.54-.88.43-2.18,1.05-3.83,1.84-.41.2-.85.41-1.3.63-.47.2-.97.36-1.49.55-1.04.38-2.16.79-3.35,1.23-1.18.5-2.51.76-3.89,1.13-.69.18-1.4.36-2.13.55-.73.19-1.46.41-2.25.49-6.15,1.22-13.57,1.51-21.33.45-7.76-1.07-15.83-3.75-23.06-7.96-7.25-4.17-13.61-9.83-18.46-15.99-.59-.79-1.17-1.57-1.75-2.34-.58-.77-1.18-1.52-1.63-2.35-.96-1.62-1.97-3.18-2.84-4.75-.78-1.62-1.54-3.19-2.27-4.72-.7-1.53-1.17-3.11-1.74-4.57-.26-.74-.56-1.45-.77-2.17-.19-.72-.37-1.44-.54-2.13-.36-1.38-.69-2.7-1.01-3.93-.37-2.52-.74-4.71-.98-6.53-.18-3.66-.29-5.75-.29-5.75,0-.18.14-.33.33-.34.19,0,.35.15.36.33Z"/>
        <path class="cls-1" d="M98.97,133.24c.17-.08.37-.01.45.16l1.63,3.64c.08.18,0,.39-.19.47-.18.09-.4.02-.47-.15l-1.59-3.66c-.07-.18,0-.39.18-.47Z"/>
        <path class="cls-1" d="M46.27,133.8c.18.07.27.26.2.44l-1.51,3.69c-.07.18-.29.26-.48.19-.19-.07-.29-.27-.21-.45l1.55-3.67c.07-.18.28-.27.46-.2Z"/>
        <path class="cls-1" d="M18.42,112.06c.11.15.08.37-.07.49l-3.18,2.41c-.15.11-.37.08-.5-.08-.12-.17-.1-.39.05-.51l3.2-2.38c.15-.11.37-.08.48.07Z"/>
        <path class="cls-1" d="M14.46,106.15c.1.17.05.38-.12.48l-3.41,2.06c-.16.1-.38.04-.49-.14s-.06-.4.11-.5l3.44-2.02c.16-.1.38-.04.48.12Z"/>
        <path class="cls-1" d="M6.01,83.17c.03.19-.1.37-.29.4l-3.93.69c-.19.03-.37-.11-.4-.31-.03-.2.1-.39.28-.43l3.93-.64c.19-.03.37.1.39.29Z"/>
        <path class="cls-1" d="M74.76,138.79c.19,0,.35.14.36.33l.19,3.98c0,.19-.15.36-.36.37-.21,0-.38-.13-.38-.33l-.14-3.98c0-.19.14-.35.33-.37Z"/>
        <path class="cls-1" d="M66.78,138.67c.19.01.34.17.32.37l-.29,3.98c-.01.19-.19.34-.39.33-.21-.01-.36-.17-.34-.37l.33-3.97c.02-.19.18-.34.37-.33Z"/>
      </g>
    </g>
  </g>
</svg>