<?xml version="1.0" encoding="UTF-8"?>
<svg id="Layer_2" data-name="Layer 2" xmlns="http://www.w3.org/2000/svg" viewBox="0 0 212.18 211.99">
  <defs>
    <style>
      .cls-1 {
        fill: #606060;
      }

      .cls-2 {
        fill: #eb2426;
      }
    </style>
  </defs>
  <g id="Layer_1-2" data-name="Layer 1">
    <g>
      <g>
        <g>
          <path class="cls-1" d="M157.14,15.38s-.18-.11-.53-.32c-.35-.2-.85-.55-1.58-.87-1.42-.68-3.51-1.69-6.17-2.97-.66-.32-1.36-.66-2.1-1.01-.75-.31-1.56-.58-2.39-.89-1.67-.61-3.47-1.28-5.41-1.98-1.9-.79-4.05-1.23-6.28-1.83-1.12-.28-2.26-.58-3.43-.88-1.17-.3-2.37-.64-3.62-.79-9.93-1.96-21.86-2.45-34.37-.73-12.51,1.73-25.54,6.06-37.2,12.84-11.69,6.73-21.93,15.84-29.74,25.77-.95,1.27-1.89,2.52-2.82,3.76-.92,1.25-1.88,2.45-2.62,3.78-1.56,2.61-3.17,5.12-4.58,7.65-1.26,2.61-2.48,5.15-3.66,7.6-1.13,2.48-1.9,5.01-2.81,7.37-.42,1.19-.89,2.34-1.25,3.49-.3,1.17-.6,2.32-.89,3.43-.57,2.24-1.1,4.36-1.61,6.34-.62,4.07-1.2,7.6-1.58,10.53-.3,5.89-.47,9.25-.47,9.25-.03.59-.51,1.07-1.07,1.07s-1-.49-.97-1.1c0,0,.17-3.43.48-9.43.39-2.98.98-6.59,1.6-10.73.52-2.03,1.07-4.19,1.64-6.47.29-1.14.6-2.3.91-3.5.36-1.18.83-2.35,1.27-3.57.92-2.4,1.71-4.98,2.87-7.51,1.21-2.5,2.45-5.09,3.74-7.75,1.43-2.58,3.07-5.14,4.67-7.8.76-1.36,1.73-2.59,2.68-3.86.95-1.27,1.9-2.54,2.87-3.84,7.96-10.12,18.4-19.41,30.32-26.27,11.89-6.91,25.18-11.33,37.93-13.1,12.76-1.75,24.92-1.25,35.04.75,1.29.15,2.5.49,3.7.8,1.2.31,2.36.61,3.5.9,2.27.61,4.46,1.06,6.4,1.86,1.97.73,3.81,1.4,5.51,2.03.85.31,1.67.59,2.44.91.75.36,1.46.71,2.14,1.02,2.71,1.31,4.84,2.34,6.29,3.04.74.33,1.25.69,1.6.89.36.21.54.33.54.33.52.32.71.96.43,1.45-.29.48-.93.63-1.44.33Z"/>
          <path class="cls-1" d="M152.24,24.05s-.16-.1-.48-.29c-.32-.18-.76-.51-1.42-.79-1.29-.62-3.17-1.53-5.58-2.68-.6-.29-1.23-.59-1.89-.92-.67-.29-1.41-.52-2.16-.8-1.51-.56-3.14-1.15-4.88-1.79-1.72-.73-3.66-1.11-5.68-1.65-1.01-.26-2.04-.53-3.1-.8-1.06-.27-2.14-.59-3.28-.71-8.97-1.78-19.78-2.2-31.1-.66-11.31,1.57-23.07,5.47-33.62,11.6-10.57,6.09-19.84,14.33-26.9,23.31-.85,1.15-1.71,2.28-2.54,3.41-.84,1.13-1.72,2.21-2.38,3.42-1.4,2.37-2.87,4.63-4.14,6.92-1.14,2.36-2.24,4.66-3.31,6.87-1.03,2.24-1.71,4.53-2.54,6.66-.38,1.08-.81,2.11-1.13,3.16-.27,1.06-.54,2.09-.79,3.1-.52,2.02-1.01,3.93-1.47,5.73-.55,3.67-1.03,6.88-1.42,9.51-.27,5.33-.42,8.38-.42,8.38-.02.27-.25.48-.54.48s-.5-.22-.49-.5c0,0,.16-3.08.43-8.47.35-2.67.89-5.9,1.44-9.61.46-1.82.96-3.75,1.48-5.79.26-1.02.53-2.07.8-3.14.32-1.06.76-2.1,1.14-3.19.84-2.15,1.53-4.46,2.56-6.73,1.08-2.24,2.2-4.56,3.35-6.95,1.29-2.31,2.77-4.59,4.19-6.98.67-1.23,1.55-2.32,2.4-3.46.85-1.14,1.7-2.29,2.57-3.44,7.13-9.08,16.51-17.41,27.19-23.56,10.65-6.2,22.55-10.15,33.98-11.73,11.44-1.56,22.37-1.13,31.43.66,1.15.13,2.24.45,3.31.72,1.07.27,2.12.54,3.14.81,2.03.54,4,.93,5.74,1.67,1.76.64,3.41,1.24,4.94,1.8.76.29,1.5.53,2.19.82.67.32,1.31.63,1.91.93,2.43,1.17,4.34,2.08,5.64,2.71.66.29,1.11.62,1.44.81.32.19.48.29.48.29.23.14.31.45.17.7-.14.25-.44.33-.67.19Z"/>
          <path class="cls-1" d="M7.96,95.27c-.04.28-.31.49-.59.46l-5.84-.6c-.28-.03-.47-.29-.43-.6.04-.3.31-.52.59-.48l5.84.66c.28.03.47.28.43.56Z"/>
          <path class="cls-1" d="M46.14,27.69c-.23.17-.55.13-.73-.1l-3.6-4.64c-.17-.22-.12-.55.13-.73.24-.18.58-.15.75.08l3.55,4.69c.17.22.13.54-.1.71Z"/>
          <path class="cls-1" d="M94.33,8.05c-.28.04-.53-.16-.57-.44l-.72-5.82c-.04-.29.18-.55.48-.59.3-.05.56.15.6.42l.66,5.84c.03.28-.17.54-.45.59Z"/>
          <path class="cls-1" d="M104.79,7.36c-.28.01-.52-.2-.52-.49l-.11-5.87c0-.28.24-.52.54-.54.3-.01.55.2.55.48l.04,5.88c0,.28-.22.52-.5.54Z"/>
          <path class="cls-1" d="M140.35,13.53c-.27-.1-.4-.39-.31-.66l2.02-5.51c.1-.27.4-.4.69-.29.28.1.43.41.33.67l-2.08,5.49c-.1.27-.39.4-.66.3Z"/>
          <path class="cls-1" d="M18.64,60.25c-.12.26-.42.36-.67.23l-5.22-2.7c-.25-.13-.35-.46-.22-.73.13-.27.44-.38.69-.25l5.19,2.75c.25.13.35.45.23.7Z"/>
          <path class="cls-1" d="M24.69,50.16c-.17.23-.5.28-.73.13l-4.86-3.31c-.23-.16-.27-.48-.1-.72.18-.24.52-.3.75-.14l4.83,3.35c.23.16.28.48.11.7Z"/>
        </g>
        <g>
          <path class="cls-1" d="M158.98,195.49s.72-.44,2.07-1.25c1.35-.82,3.37-1.96,5.69-3.8,2.32-1.81,5.35-3.76,8.29-6.64,1.51-1.39,3.16-2.83,4.82-4.43,1.55-1.7,3.18-3.49,4.88-5.37,6.57-7.66,13.2-17.59,17.91-29.35,4.76-11.71,7.49-25.17,7.5-38.66,0-13.49-2.74-26.94-7.5-38.65-4.71-11.76-11.34-21.69-17.91-29.35-1.7-1.87-3.33-3.66-4.88-5.37-1.67-1.59-3.31-3.03-4.82-4.42-2.94-2.88-5.97-4.84-8.29-6.65-2.31-1.84-4.34-2.97-5.69-3.8-1.35-.82-2.07-1.26-2.07-1.26-.51-.31-.69-.96-.41-1.44.28-.49.93-.63,1.45-.32,0,0,.73.45,2.11,1.29,1.37.84,3.44,2,5.8,3.88,2.37,1.84,5.45,3.84,8.45,6.78,1.54,1.41,3.22,2.89,4.91,4.51,1.58,1.74,3.25,3.57,4.98,5.47,6.69,7.81,13.45,17.94,18.26,29.92,4.85,11.94,7.64,25.67,7.64,39.41,0,13.75-2.79,27.47-7.64,39.42-4.81,11.99-11.57,22.11-18.26,29.93-1.73,1.9-3.4,3.73-4.98,5.47-1.69,1.62-3.37,3.1-4.91,4.51-3,2.93-6.08,4.93-8.45,6.78-2.36,1.88-4.42,3.04-5.8,3.88-1.38.83-2.11,1.28-2.11,1.28-.52.31-1.17.18-1.45-.31-.28-.49-.1-1.14.41-1.45Z"/>
          <path class="cls-1" d="M153.91,186.93s.65-.39,1.87-1.14c1.22-.74,3.06-1.76,5.14-3.44,2.1-1.64,4.85-3.39,7.5-6.02,1.37-1.25,2.86-2.56,4.37-3.99,1.4-1.55,2.87-3.16,4.41-4.86,5.93-6.94,11.93-15.92,16.19-26.54,4.3-10.58,6.78-22.73,6.78-34.95,0-12.22-2.48-24.37-6.78-34.95-4.26-10.62-10.26-19.6-16.19-26.53-1.54-1.69-3.01-3.32-4.41-4.86-1.51-1.44-3-2.73-4.37-4-2.65-2.62-5.4-4.36-7.5-6.01-2.08-1.67-3.92-2.69-5.14-3.44-1.22-.74-1.87-1.13-1.87-1.13-.23-.14-.3-.45-.16-.69.14-.24.45-.33.68-.18,0,0,.66.4,1.89,1.14,1.23.76,3.09,1.78,5.2,3.48,2.12,1.66,4.91,3.43,7.58,6.08,1.38,1.27,2.89,2.59,4.41,4.04,1.42,1.56,2.91,3.2,4.46,4.91,6,7.01,12.06,16.09,16.37,26.83,4.35,10.7,6.84,22.98,6.86,35.33-.01,12.36-2.51,24.63-6.86,35.34-4.3,10.73-10.37,19.81-16.37,26.82-1.56,1.71-3.04,3.35-4.46,4.91-1.52,1.45-3.03,2.76-4.41,4.04-2.68,2.65-5.46,4.41-7.58,6.08-2.1,1.69-3.96,2.73-5.2,3.47-1.23.75-1.89,1.15-1.89,1.15-.23.14-.54.06-.68-.18-.14-.25-.07-.56.16-.7Z"/>
          <path class="cls-1" d="M164.35,26.47c-.23-.17-.28-.49-.11-.72l3.45-4.75c.17-.23.5-.27.74-.08.24.18.3.51.13.74l-3.5,4.71c-.17.23-.49.28-.71.11Z"/>
          <path class="cls-1" d="M203.85,93.25c-.04-.28.15-.53.43-.57l5.82-.79c.28-.03.54.17.59.48.04.3-.14.57-.43.6l-5.83.72c-.28.04-.54-.16-.58-.44Z"/>
          <path class="cls-1" d="M196.82,144.83c.12-.25.44-.37.69-.27l5.41,2.29c.27.11.37.42.24.7-.13.27-.44.4-.71.29l-5.39-2.34c-.26-.12-.37-.41-.25-.66Z"/>
          <path class="cls-1" d="M192.15,154.22c.14-.24.46-.33.71-.19l5.14,2.85c.25.13.32.46.16.71-.15.26-.48.35-.73.22l-5.11-2.9c-.25-.14-.33-.45-.18-.69Z"/>
          <path class="cls-1" d="M169.05,181.99c.21-.19.52-.17.71.05l3.78,4.5c.18.22.15.55-.08.76-.22.21-.57.17-.75-.05l-3.73-4.54c-.18-.22-.13-.52.07-.72Z"/>
          <path class="cls-1" d="M189.36,53.19c-.15-.24-.07-.56.17-.71l4.94-3.17c.24-.16.56-.07.72.19.16.26.09.59-.15.74l-4.97,3.12c-.24.14-.55.07-.7-.17Z"/>
          <path class="cls-1" d="M195.04,63.47c-.12-.25-.02-.56.24-.68l5.28-2.57c.25-.12.56,0,.7.27.13.27.03.59-.23.71l-5.31,2.51c-.26.12-.56.01-.69-.24Z"/>
        </g>
        <g>
          <path class="cls-1" d="M2.04,107.07s.17,3.37.47,9.25c.38,2.92.96,6.46,1.58,10.52.51,1.99,1.04,4.11,1.61,6.34.29,1.12.58,2.26.89,3.43.35,1.16.82,2.31,1.25,3.5.91,2.36,1.68,4.89,2.81,7.36,1.19,2.46,2.41,5,3.66,7.61,1.41,2.53,3.02,5.04,4.58,7.65.75,1.33,1.7,2.54,2.62,3.79.93,1.24,1.87,2.5,2.82,3.76,7.8,9.93,18.05,19.04,29.74,25.77,11.66,6.79,24.69,11.11,37.2,12.84,12.51,1.71,24.44,1.23,34.37-.73,1.26-.14,2.45-.48,3.62-.79,1.17-.3,2.31-.6,3.43-.88,2.23-.59,4.38-1.04,6.28-1.83,1.93-.71,3.74-1.37,5.41-1.98.83-.31,1.64-.58,2.39-.91.73-.35,1.44-.69,2.1-1.01,2.66-1.28,4.75-2.29,6.17-2.97.73-.32,1.22-.67,1.58-.87.35-.21.53-.32.53-.32.51-.31,1.15-.17,1.44.32.28.49.09,1.14-.43,1.45,0,0-.18.11-.54.33-.36.21-.87.56-1.6.89-1.45.7-3.58,1.72-6.29,3.03-.68.33-1.39.67-2.14,1.03-.77.32-1.59.6-2.44.92-1.71.63-3.54,1.3-5.51,2.01-1.94.81-4.13,1.26-6.4,1.87-1.14.29-2.31.59-3.5.9-1.19.31-2.41.65-3.7.8-10.12,2-22.28,2.5-35.04.75-12.75-1.76-26.04-6.18-37.93-13.09-11.92-6.87-22.36-16.15-30.32-26.27-.97-1.29-1.92-2.57-2.87-3.84-.95-1.27-1.92-2.5-2.68-3.86-1.6-2.66-3.24-5.21-4.67-7.8-1.29-2.66-2.53-5.25-3.74-7.76-1.15-2.53-1.94-5.11-2.87-7.51-.43-1.21-.9-2.38-1.27-3.57-.31-1.19-.61-2.36-.91-3.5-.58-2.28-1.13-4.44-1.64-6.47-.63-4.14-1.22-7.75-1.6-10.73C.17,110.52,0,107.09,0,107.09c-.03-.61.4-1.1.97-1.1s1.04.49,1.07,1.08Z"/>
          <path class="cls-1" d="M12.01,106.97s.15,3.05.42,8.37c.4,2.64.88,5.84,1.42,9.51.46,1.8.95,3.71,1.47,5.73.25,1.01.52,2.05.79,3.1.32,1.05.75,2.08,1.13,3.16.83,2.13,1.51,4.42,2.54,6.66,1.07,2.22,2.17,4.52,3.31,6.88,1.27,2.28,2.74,4.54,4.14,6.9.66,1.22,1.54,2.3,2.38,3.42.84,1.12,1.69,2.26,2.54,3.4,7.06,8.99,16.33,17.23,26.9,23.31,10.55,6.14,22.31,10.04,33.62,11.6,11.32,1.55,22.13,1.12,31.1-.65,1.14-.12,2.22-.44,3.28-.71,1.06-.27,2.09-.54,3.1-.8,2.01-.54,3.96-.93,5.68-1.65,1.74-.64,3.37-1.24,4.88-1.79.75-.28,1.49-.52,2.16-.81.67-.32,1.3-.63,1.89-.92,2.41-1.16,4.29-2.06,5.58-2.68.66-.28,1.1-.61,1.42-.79.32-.2.48-.29.48-.29.23-.14.53-.05.67.19.14.24.06.56-.17.7,0,0-.17.1-.48.29-.33.18-.77.51-1.44.8-1.3.63-3.21,1.54-5.64,2.71-.6.29-1.25.6-1.91.93-.69.29-1.43.53-2.19.82-1.53.56-3.18,1.16-4.94,1.81-1.73.73-3.7,1.12-5.74,1.67-1.02.26-2.06.53-3.14.81-1.07.28-2.16.6-3.31.72-9.07,1.8-19.99,2.23-31.43.67-11.43-1.58-23.33-5.53-33.98-11.73-10.69-6.15-20.06-14.48-27.19-23.56-.87-1.16-1.72-2.31-2.57-3.44-.85-1.14-1.73-2.24-2.4-3.46-1.42-2.39-2.9-4.68-4.19-6.99-1.15-2.38-2.27-4.7-3.35-6.95-1.04-2.26-1.72-4.58-2.56-6.73-.38-1.09-.82-2.14-1.14-3.19-.27-1.07-.54-2.12-.8-3.13-.52-2.04-1.02-3.98-1.48-5.79-.54-3.72-1.08-6.95-1.44-9.62-.27-5.39-.43-8.47-.43-8.47-.01-.27.21-.49.49-.5.28,0,.52.22.54.49Z"/>
          <path class="cls-1" d="M145.82,196.3c.25-.12.55-.02.67.24l2.4,5.37c.12.26-.01.57-.29.7-.27.13-.58.03-.7-.23l-2.34-5.39c-.11-.26,0-.57.26-.69Z"/>
          <path class="cls-1" d="M68.17,197.14c.27.1.4.39.29.64l-2.23,5.44c-.11.26-.42.39-.71.28-.28-.1-.42-.4-.31-.66l2.29-5.41c.11-.26.41-.39.68-.29Z"/>
          <path class="cls-1" d="M27.14,165.1c.17.23.12.55-.1.72l-4.68,3.55c-.23.17-.55.11-.73-.13-.18-.24-.14-.58.08-.75l4.72-3.5c.23-.16.55-.11.71.11Z"/>
          <path class="cls-1" d="M21.31,156.4c.14.24.07.56-.17.7l-5.03,3.03c-.24.15-.56.06-.72-.2s-.08-.58.16-.73l5.06-2.98c.24-.14.56-.06.71.18Z"/>
          <path class="cls-1" d="M8.85,122.54c.04.28-.14.54-.43.59l-5.78,1.01c-.28.05-.54-.16-.58-.46-.05-.3.14-.58.42-.63l5.8-.95c.28-.05.54.15.58.42Z"/>
          <path class="cls-1" d="M110.15,204.49c.28,0,.52.2.53.49l.27,5.87c.01.28-.22.53-.52.54-.3.01-.56-.2-.56-.48l-.21-5.87c-.01-.28.21-.52.49-.54Z"/>
          <path class="cls-1" d="M98.4,204.31c.28.02.5.25.48.54l-.42,5.86c-.02.28-.28.5-.58.48-.31-.02-.53-.25-.51-.54l.48-5.85c.02-.28.27-.5.55-.49Z"/>
        </g>
      </g>
      <path class="cls-2" d="M149.11,70.49H61.47c-13.44,0-24.34,10.9-24.34,24.34v14.61c0,13.44,10.9,24.34,24.34,24.34h19.47c4.1,0,7.95-2.59,10.85-7.31,2.77-4.5,7.94-7.3,13.49-7.3s10.72,2.8,13.49,7.3c2.9,4.71,6.76,7.31,10.85,7.31h19.47c13.44,0,24.34-10.9,24.34-24.34v-14.61c0-13.44-10.9-24.34-24.34-24.34ZM161.28,109.44c-1.34,0-2.43-1.09-2.43-2.43s1.09-2.43,2.43-2.43,2.43,1.09,2.43,2.43-1.09,2.43-2.43,2.43ZM161.28,99.7c-1.35,0-2.43-1.09-2.43-2.43,0-6.71-5.46-12.17-12.17-12.17h-9.74c-1.35,0-2.43-1.09-2.43-2.43s1.09-2.43,2.43-2.43h9.74c9.4,0,17.04,7.65,17.04,17.04,0,1.35-1.09,2.43-2.43,2.43Z"/>
    </g>
  </g>
</svg>