<?xml version="1.0" encoding="UTF-8"?>
<svg id="Layer_2" data-name="Layer 2" xmlns="http://www.w3.org/2000/svg" viewBox="0 0 585.34 584.93">
  <defs>
    <style>
      .cls-1 {
        fill: #606060;
      }

      .cls-2 {
        fill: #eb2426;
      }
    </style>
  </defs>
  <g id="Layer_1-2" data-name="Layer 1">
    <g>
      <g>
        <g>
          <path class="cls-1" d="M433.51,42.43s-.49-.29-1.46-.9c-.97-.57-2.36-1.55-4.35-2.39-3.94-1.87-9.67-4.67-17.03-8.22-1.83-.9-3.74-1.78-5.77-2.8-2.07-.85-4.31-1.62-6.58-2.48-4.59-1.71-9.59-3.54-14.91-5.45-5.25-2.19-11.18-3.42-17.32-5.04-3.09-.77-6.22-1.58-9.47-2.44-3.25-.81-6.54-1.78-10-2.16-27.39-5.41-60.28-6.74-94.82-2.03-34.51,4.8-70.44,16.71-102.63,35.44-32.23,18.58-60.51,43.7-82.02,71.08-2.61,3.49-5.2,6.94-7.77,10.36-2.56,3.45-5.16,6.74-7.23,10.45-4.31,7.19-8.74,14.15-12.64,21.09-3.45,7.19-6.83,14.22-10.12,20.97-3.13,6.83-5.25,13.81-7.77,20.32-1.18,3.29-2.44,6.46-3.45,9.64-.85,3.25-1.67,6.38-2.44,9.47-1.58,6.18-3.05,12.03-4.43,17.48-1.71,11.22-3.29,20.97-4.35,29.02-.81,16.26-1.3,25.52-1.3,25.52-.09,1.62-1.38,2.97-2.97,2.97s-2.76-1.33-2.68-3.04c0,0,.49-9.47,1.35-26.01,1.06-8.22,2.68-18.16,4.43-29.58,1.42-5.61,2.93-11.58,4.55-17.84.81-3.13,1.62-6.35,2.52-9.67,1.02-3.25,2.32-6.46,3.49-9.84,2.56-6.62,4.71-13.74,7.93-20.73,3.33-6.91,6.78-14.06,10.32-21.38,3.94-7.12,8.45-14.19,12.88-21.5,2.07-3.74,4.75-7.16,7.39-10.65,2.61-3.49,5.25-7.03,7.93-10.57,21.94-27.93,50.76-53.53,83.64-72.47C179.14,19.99,215.8,7.79,250.96,2.96c35.19-4.84,68.73-3.45,96.65,2.07,3.54.41,6.91,1.35,10.2,2.19,3.29.85,6.51,1.67,9.67,2.48,6.26,1.67,12.32,2.93,17.64,5.16,5.45,1.99,10.52,3.86,15.2,5.57,2.32.85,4.64,1.62,6.74,2.52,2.07,1.02,4.03,1.94,5.9,2.8,7.48,3.62,13.38,6.46,17.35,8.38,2.03.9,3.45,1.91,4.43,2.48.97.61,1.51.9,1.51.9,1.46.85,1.94,2.64,1.18,4.03-.77,1.35-2.56,1.75-3.94.9h.01Z"/>
          <path class="cls-1" d="M420.02,66.32s-.45-.29-1.35-.81c-.9-.49-2.12-1.38-3.94-2.19-3.54-1.71-8.74-4.23-15.41-7.39-1.62-.81-3.38-1.62-5.25-2.52-1.87-.77-3.9-1.46-5.97-2.23-4.15-1.55-8.65-3.17-13.45-4.91-4.75-2.03-10.12-3.05-15.65-4.55-2.77-.74-5.61-1.46-8.54-2.19-2.93-.77-5.9-1.62-9.03-1.94-24.71-4.91-54.58-6.06-85.76-1.78-31.22,4.31-63.64,15.08-92.75,31.99-29.15,16.78-54.7,39.54-74.21,64.3-2.36,3.17-4.71,6.3-7.03,9.39-2.32,3.09-4.75,6.1-6.54,9.42-3.86,6.54-7.93,12.77-11.42,19.06-3.13,6.51-6.18,12.84-9.15,18.97-2.84,6.18-4.71,12.52-6.99,18.38-1.06,2.97-2.23,5.81-3.13,8.74-.74,2.93-1.46,5.77-2.19,8.54-1.42,5.57-2.77,10.85-4.06,15.81-1.51,10.12-2.84,18.97-3.94,26.25-.74,14.71-1.13,23.13-1.13,23.13-.04.74-.69,1.35-1.46,1.35s-1.38-.61-1.35-1.38c0,0,.45-8.49,1.18-23.37.97-7.36,2.48-16.29,3.98-26.54,1.26-5,2.64-10.36,4.1-15.97.74-2.8,1.46-5.68,2.19-8.65.9-2.93,2.07-5.81,3.13-8.81,2.32-5.93,4.23-12.32,7.07-18.58,3-6.18,6.06-12.6,9.23-19.19,3.54-6.38,7.64-12.68,11.54-19.26,1.83-3.38,4.26-6.42,6.62-9.55s4.71-6.3,7.12-9.51c19.67-25.03,45.52-48.03,75.02-64.99,29.38-17.12,62.18-28,93.72-32.35,31.54-4.31,61.7-3.13,86.69,1.83,3.17.36,6.18,1.22,9.15,1.99s5.85,1.51,8.65,2.23c5.61,1.51,11.06,2.56,15.81,4.59,4.87,1.78,9.39,3.42,13.61,4.96,2.07.81,4.15,1.46,6.06,2.28,1.83.9,3.62,1.75,5.29,2.56,6.71,3.22,11.94,5.73,15.57,7.48,1.83.81,3.09,1.71,3.98,2.23s1.35.81,1.35.81c.65.36.85,1.26.45,1.91-.41.69-1.22.9-1.83.52l.02-.04Z"/>
          <path class="cls-1" d="M21.99,262.79c-.12.77-.85,1.35-1.62,1.26l-16.09-1.67c-.77-.09-1.3-.81-1.18-1.62.12-.81.85-1.42,1.62-1.35l16.09,1.83c.77.09,1.3.77,1.18,1.55h0Z"/>
          <path class="cls-1" d="M127.34,76.36c-.61.45-1.51.32-1.99-.29l-9.91-12.8c-.49-.61-.32-1.51.32-2.03.65-.49,1.58-.41,2.07.2l9.8,12.93c.45.61.32,1.51-.29,1.94v.04h0Z"/>
          <path class="cls-1" d="M260.24,22.22c-.77.12-1.46-.45-1.58-1.22l-1.99-16.06c-.09-.77.49-1.51,1.35-1.62.81-.12,1.55.41,1.67,1.18l1.83,16.09c.09.77-.45,1.51-1.22,1.62h-.05Z"/>
          <path class="cls-1" d="M289.1,20.27c-.77,0-1.42-.57-1.42-1.35l-.29-16.22c0-.77.65-1.42,1.51-1.51.85,0,1.51.57,1.51,1.35l.12,16.22c0,.77-.61,1.42-1.38,1.51h-.05Z"/>
          <path class="cls-1" d="M387.22,37.34c-.74-.29-1.1-1.1-.85-1.83l5.57-15.2c.29-.74,1.1-1.1,1.91-.81.77.29,1.18,1.13.93,1.83l-5.73,15.16c-.29.74-1.1,1.1-1.83.85Z"/>
          <path class="cls-1" d="M51.47,166.18c-.32.69-1.18.97-1.87.65l-14.39-7.44c-.69-.36-.97-1.26-.61-2.03.36-.74,1.22-1.06,1.91-.69l14.31,7.6c.69.36.97,1.26.65,1.91Z"/>
          <path class="cls-1" d="M68.17,138.38c-.45.65-1.38.77-2.03.36l-13.41-9.1c-.65-.45-.77-1.35-.29-1.99.49-.69,1.42-.85,2.07-.41l13.33,9.23c.65.45.77,1.3.32,1.91h.01Z"/>
        </g>
        <g>
          <path class="cls-1" d="M438.63,539.28s1.99-1.22,5.68-3.45c3.74-2.28,9.31-5.41,15.68-10.48,6.42-5,14.75-10.36,22.88-18.33,4.19-3.86,8.7-7.8,13.29-12.23,4.26-4.67,8.78-9.64,13.45-14.8,18.13-21.13,36.41-48.53,49.38-80.96,13.13-32.31,20.64-69.41,20.68-106.65,0-37.19-7.55-74.34-20.68-106.6-13-32.44-31.29-59.83-49.38-80.96-4.67-5.16-9.19-10.12-13.45-14.8-4.59-4.39-9.15-8.38-13.29-12.19-8.13-7.97-16.46-13.33-22.88-18.33-6.38-5.09-11.94-8.22-15.68-10.48-3.74-2.28-5.68-3.49-5.68-3.49-1.42-.85-1.91-2.64-1.13-3.98.77-1.35,2.56-1.75,3.98-.9,0,0,2.03,1.22,5.81,3.54s9.47,5.52,15.97,10.68c6.54,5.09,15.03,10.61,23.33,18.7,4.26,3.9,8.9,7.97,13.58,12.44,4.35,4.8,8.94,9.84,13.74,15.12,18.45,21.54,37.11,49.5,50.35,82.54,13.38,32.96,21.06,70.8,21.09,108.72,0,37.92-7.72,75.8-21.09,108.72-13.25,33.09-31.9,61-50.35,82.54-4.8,5.25-9.39,10.28-13.74,15.08-4.67,4.48-9.31,8.54-13.58,12.44-8.29,8.09-16.78,13.61-23.33,18.7-6.51,5.16-12.19,8.38-15.97,10.68-3.81,2.28-5.81,3.54-5.81,3.54-1.42.85-3.22.49-3.98-.85s-.29-3.13,1.13-3.98v.04-.05Z"/>
          <path class="cls-1" d="M424.6,515.63s1.78-1.1,5.16-3.13c3.38-2.03,8.45-4.84,14.19-9.47,5.81-4.55,13.38-9.35,20.68-16.58,3.78-3.45,7.88-7.07,12.07-11.01,3.86-4.26,7.93-8.74,12.15-13.41,16.38-19.15,32.92-43.93,44.67-73.2,11.87-29.18,18.7-62.71,18.7-96.4s-6.87-67.22-18.7-96.4c-11.74-29.31-28.29-54.06-44.67-73.2-4.23-4.67-8.29-9.15-12.15-13.41-4.19-3.94-8.29-7.52-12.07-11.02-7.32-7.23-14.91-12.03-20.68-16.58-5.73-4.64-10.81-7.44-14.19-9.47-3.38-2.03-5.16-3.13-5.16-3.13-.65-.36-.81-1.26-.45-1.91.41-.69,1.22-.9,1.87-.49,0,0,1.83,1.1,5.25,3.17s8.54,4.91,14.35,9.59c5.85,4.59,13.54,9.47,20.93,16.78,3.81,3.49,7.97,7.16,12.19,11.13,3.9,4.31,8,8.81,12.32,13.54,16.54,19.35,33.29,44.38,45.15,74.01,11.99,29.51,18.9,63.37,18.9,97.46s-6.91,67.96-18.9,97.46c-11.87,29.63-28.61,54.67-45.15,73.96-4.31,4.71-8.41,9.26-12.32,13.58-4.19,4.03-8.38,7.64-12.19,11.13-7.39,7.32-15.08,12.19-20.93,16.78-5.81,4.67-10.93,7.52-14.35,9.59s-5.25,3.17-5.25,3.17c-.65.36-1.46.16-1.87-.49-.41-.69-.2-1.55.45-1.91v-.16.04Z"/>
          <path class="cls-1" d="M453.43,72.98c-.61-.45-.77-1.35-.29-1.99l9.51-13.13c.45-.61,1.38-.74,2.03-.25s.85,1.38.36,2.03l-9.64,13c-.49.61-1.35.77-1.94.29l-.04.04h0Z"/>
          <path class="cls-1" d="M562.38,257.23c-.12-.77.41-1.46,1.18-1.58l16.06-2.16c.77-.09,1.51.49,1.62,1.3s-.41,1.55-1.18,1.67l-16.09,1.99c-.77.12-1.51-.45-1.62-1.22h.04Z"/>
          <path class="cls-1" d="M542.96,399.51c.32-.69,1.22-1.02,1.91-.74l14.91,6.3c.74.32,1.02,1.18.65,1.91s-1.22,1.1-1.94.81l-14.87-6.46c-.74-.32-1.02-1.13-.69-1.83h.04Z"/>
          <path class="cls-1" d="M530.07,425.4c.41-.65,1.26-.9,1.94-.52l14.19,7.84c.69.36.9,1.26.45,1.94-.41.74-1.35.97-1.99.61l-14.1-8c-.69-.41-.9-1.22-.49-1.91v.04h0Z"/>
          <path class="cls-1" d="M466.34,502.02c.57-.52,1.46-.45,1.94.12l10.41,12.44c.49.61.41,1.51-.2,2.07s-1.58.49-2.07-.12l-10.28-12.52c-.49-.61-.36-1.46.2-1.99Z"/>
          <path class="cls-1" d="M522.39,146.71c-.41-.65-.2-1.55.45-1.94l13.61-8.74c.65-.45,1.55-.2,1.99.52s.25,1.62-.41,2.03l-13.74,8.61c-.65.41-1.51.2-1.91-.45v-.04h0Z"/>
          <path class="cls-1" d="M538.08,175.08c-.32-.69-.04-1.55.65-1.87l14.59-7.07c.69-.32,1.55,0,1.91.74s.09,1.62-.61,1.94l-14.64,6.91c-.74.32-1.55,0-1.91-.65h.01Z"/>
        </g>
        <g>
          <path class="cls-1" d="M5.7,295.35s.45,9.26,1.3,25.52c1.06,8.05,2.64,17.8,4.35,29.02,1.38,5.49,2.88,11.34,4.43,17.52.81,3.09,1.62,6.22,2.44,9.47.97,3.22,2.28,6.35,3.45,9.67,2.52,6.51,4.64,13.49,7.77,20.32,3.25,6.78,6.62,13.78,10.12,20.97,3.86,6.99,8.33,13.9,12.64,21.09,2.07,3.7,4.67,6.99,7.23,10.45,2.56,3.42,5.16,6.87,7.77,10.36,21.54,27.39,49.79,52.51,82.02,71.08,32.15,18.74,68.08,30.64,102.63,35.44,34.51,4.71,67.43,3.42,94.82-2.03,3.45-.41,6.74-1.35,10-2.16,3.22-.81,6.38-1.67,9.47-2.44,6.13-1.62,12.07-2.84,17.32-5.04,5.32-1.94,10.32-3.78,14.91-5.45,2.28-.85,4.55-1.62,6.58-2.52,2.03-.97,3.94-1.91,5.77-2.77,7.36-3.54,13.09-6.3,17.03-8.22,1.99-.9,3.38-1.87,4.35-2.39.97-.57,1.46-.85,1.46-.85,1.38-.85,3.17-.45,3.94.9s.25,3.13-1.18,4.03c0,0-.49.32-1.51.9-.97.57-2.39,1.55-4.43,2.48-4.03,1.91-9.87,4.75-17.35,8.38-1.87.9-3.81,1.87-5.9,2.84-2.12.9-4.39,1.62-6.74,2.56-4.71,1.75-9.75,3.58-15.2,5.57-5.36,2.23-11.38,3.49-17.64,5.16-3.13.81-6.35,1.62-9.67,2.48-3.29.85-6.67,1.78-10.2,2.19-27.93,5.52-61.45,6.91-96.65,2.07-35.19-4.84-71.86-17.03-104.62-36.13-32.87-18.94-61.7-44.54-83.64-72.47-2.68-3.58-5.32-7.12-7.93-10.57-2.61-3.49-5.29-6.91-7.39-10.65-4.39-7.32-8.94-14.39-12.88-21.5-3.54-7.36-6.99-14.47-10.32-21.42-3.17-6.94-5.36-14.06-7.93-20.73-1.18-3.33-2.48-6.58-3.49-9.84-.85-3.29-1.71-6.51-2.52-9.64-1.58-6.3-3.13-12.23-4.55-17.84-1.75-11.42-3.38-21.38-4.43-29.58-.79-16.74-1.27-26.18-1.27-26.18-.09-1.67,1.1-3.05,2.68-3.05s2.88,1.35,2.97,2.97h0Z"/>
          <path class="cls-1" d="M33.18,295.06s.41,8.41,1.13,23.09c1.1,7.28,2.39,16.09,3.94,26.25,1.26,4.96,2.64,10.25,4.06,15.81.69,2.77,1.42,5.65,2.19,8.58.9,2.88,2.07,5.73,3.13,8.7,2.28,5.85,4.15,12.19,6.99,18.38,2.97,6.13,5.97,12.48,9.15,18.97,3.49,6.3,7.55,12.52,11.42,19.06,1.83,3.38,4.23,6.35,6.54,9.42,2.32,3.09,4.67,6.22,7.03,9.39,19.47,24.8,45.03,47.51,74.21,64.3,29.1,16.9,61.54,27.71,92.75,32.03,31.22,4.26,61.05,3.09,85.76-1.78,3.13-.32,6.1-1.22,9.03-1.94s5.77-1.51,8.54-2.19c5.57-1.51,10.93-2.56,15.65-4.55,4.8-1.78,9.31-3.42,13.45-4.91,2.07-.77,4.1-1.42,5.97-2.23,1.83-.9,3.58-1.75,5.25-2.56,6.62-3.22,11.83-5.68,15.41-7.39,1.83-.77,3.05-1.67,3.94-2.19s1.35-.81,1.35-.81c.65-.41,1.46-.16,1.83.52.41.69.16,1.55-.45,1.94,0,0-.45.29-1.35.81-.9.49-2.16,1.42-3.98,2.19-3.58,1.75-8.86,4.26-15.57,7.48-1.67.81-3.45,1.67-5.29,2.56-1.91.81-3.94,1.46-6.06,2.23-4.23,1.55-8.78,3.22-13.61,5-4.8,2.03-10.2,3.09-15.81,4.59-2.8.74-5.68,1.46-8.65,2.23s-5.93,1.67-9.15,1.99c-25,4.96-55.15,6.13-86.69,1.83-31.54-4.35-64.34-15.25-93.72-32.35-29.47-16.94-55.31-39.96-75.02-64.99-2.39-3.22-4.75-6.38-7.12-9.51s-4.8-6.18-6.62-9.55c-3.9-6.58-8-12.93-11.54-19.31-3.17-6.58-6.26-12.97-9.23-19.19-2.84-6.22-4.75-12.64-7.07-18.58-1.06-3-2.28-5.9-3.13-8.81-.77-2.93-1.51-5.85-2.19-8.65-1.46-5.61-2.8-10.97-4.1-15.97-1.51-10.25-3-19.15-3.98-26.54-.74-14.87-1.18-23.37-1.18-23.37,0-.74.57-1.35,1.35-1.38.77,0,1.42.61,1.46,1.35v.09l-.02-.02Z"/>
          <path class="cls-1" d="M402.29,541.51c.69-.32,1.51-.04,1.83.65l6.62,14.8c.32.74,0,1.58-.77,1.91-.74.36-1.62.09-1.91-.61l-6.46-14.87c-.29-.74,0-1.58.74-1.91l-.04.04h-.01Z"/>
          <path class="cls-1" d="M188.1,543.8c.74.29,1.1,1.06.81,1.78l-6.13,15c-.29.74-1.18,1.06-1.94.77-.77-.29-1.18-1.1-.85-1.83l6.3-14.91c.29-.74,1.13-1.1,1.87-.81h-.05Z"/>
          <path class="cls-1" d="M74.92,455.43c.45.61.32,1.51-.29,1.99l-12.93,9.8c-.61.45-1.51.32-2.03-.32-.49-.69-.41-1.58.2-2.07l13-9.67c.61-.45,1.51-.32,1.94.29h.1Z"/>
          <path class="cls-1" d="M58.82,431.42c.41.69.2,1.55-.49,1.94l-13.86,8.38c-.65.41-1.55.16-1.99-.57s-.25-1.62.45-2.03l13.98-8.22c.65-.41,1.55-.16,1.94.49h-.04.01Z"/>
          <path class="cls-1" d="M24.48,338.02c.12.77-.41,1.51-1.18,1.62l-15.97,2.8c-.77.12-1.51-.45-1.62-1.26s.41-1.58,1.13-1.75l15.97-2.61c.77-.12,1.51.41,1.58,1.18h.09Z"/>
          <path class="cls-1" d="M303.89,564.08c.77,0,1.42.57,1.46,1.35l.77,16.18c0,.77-.61,1.46-1.46,1.51-.85,0-1.55-.52-1.55-1.35l-.57-16.18c0-.77.57-1.42,1.35-1.51h0Z"/>
          <path class="cls-1" d="M271.46,563.59c.77.04,1.38.69,1.3,1.51l-1.18,16.18c-.04.77-.77,1.38-1.58,1.35-.85-.04-1.46-.69-1.38-1.51l1.35-16.13c.09-.77.74-1.38,1.51-1.35v-.04h0Z"/>
        </g>
      </g>
      <path class="cls-2" d="M495.89,269.35l-80.87-140.06c-8.64-14.96-24.6-24.18-41.88-24.18h-161.73c-17.28,0-33.24,9.22-41.88,24.18l-80.87,140.06c-8.64,14.96-8.64,33.39,0,48.35l80.87,140.06c8.64,14.96,24.6,24.18,41.88,24.18h161.73c17.28,0,33.24-9.22,41.88-24.18l80.87-140.06c8.64-14.96,8.64-33.39,0-48.35ZM398.12,180.39l8.46-5.28c2.23-1.39,5.16-.71,6.54,1.51l5.2,8.33c1.39,2.23.71,5.16-1.51,6.54l-8.46,5.28c-2.23,1.39-5.16.71-6.54-1.51l-5.2-8.33c-1.39-2.23-.71-5.16,1.51-6.54ZM376.23,145.32l8.46-5.28c2.23-1.39,5.16-.71,6.54,1.51l5.2,8.33c1.39,2.23.71,5.16-1.51,6.54l-8.46,5.28c-2.23,1.39-5.16.71-6.54-1.51l-5.2-8.33c-1.39-2.23-.71-5.16,1.51-6.54ZM355.97,265.02l8.26-5.59c2.17-1.47,5.13-.9,6.6,1.27l5.51,8.13c1.47,2.17.9,5.13-1.27,6.6l-8.26,5.59c-2.17,1.47-5.13.9-6.6-1.27l-5.51-8.13c-1.47-2.17-.9-5.13,1.27-6.6ZM332.79,230.79l8.26-5.59c2.17-1.47,5.13-.9,6.6,1.27l5.51,8.13c1.47,2.17.9,5.13-1.27,6.6l-8.26,5.59c-2.17,1.47-5.13.9-6.6-1.27l-5.51-8.13c-1.47-2.17-.9-5.13,1.27-6.6ZM309.62,196.56l8.26-5.59c2.17-1.47,5.13-.9,6.6,1.27l5.51,8.13c1.47,2.17.9,5.13-1.27,6.6l-8.26,5.59c-2.17,1.47-5.13.9-6.6-1.27l-5.51-8.13c-1.47-2.17-.9-5.13,1.27-6.6ZM286.44,162.33l8.26-5.59c2.17-1.47,5.13-.9,6.6,1.27l5.51,8.13c1.47,2.17.9,5.13-1.27,6.6l-8.26,5.59c-2.17,1.47-5.13.9-6.6-1.27l-5.51-8.13c-1.47-2.17-.9-5.13,1.27-6.6ZM264.11,129.42l8.26-5.59c2.17-1.47,5.13-.9,6.6,1.27l5.51,8.13c1.47,2.17.9,5.13-1.27,6.6l-8.26,5.59c-2.17,1.47-5.13.9-6.6-1.27l-5.51-8.13c-1.47-2.17-.9-5.13,1.27-6.6ZM257.58,199.34l5.48-8.15c1.46-2.18,4.42-2.75,6.59-1.29l8.27,5.57c2.18,1.46,2.75,4.42,1.29,6.59l-5.48,8.15c-1.46,2.18-4.42,2.75-6.59,1.29l-8.27-5.57c-2.18-1.46-2.75-4.42-1.29-6.59ZM234.5,233.64l5.48-8.15c1.46-2.18,4.42-2.75,6.59-1.29l8.27,5.57c2.18,1.46,2.75,4.42,1.29,6.59l-5.48,8.15c-1.46,2.18-4.42,2.75-6.59,1.29l-8.27-5.57c-2.18-1.46-2.75-4.42-1.29-6.59ZM223.5,258.5l8.27,5.57c2.18,1.46,2.75,4.42,1.29,6.59l-5.48,8.15c-1.46,2.18-4.42,2.75-6.59,1.29l-8.27-5.57c-2.18-1.46-2.75-4.42-1.29-6.59l5.48-8.15c1.46-2.18,4.42-2.75,6.59-1.29ZM194.3,149.05l5.48-8.15c1.46-2.18,4.42-2.75,6.59-1.29l8.27,5.57c2.18,1.46,2.75,4.42,1.29,6.59l-5.48,8.15c-1.46,2.18-4.42,2.75-6.59,1.29l-8.27-5.57c-2.18-1.46-2.75-4.42-1.29-6.59ZM171.23,183.35l5.48-8.15c1.46-2.18,4.42-2.75,6.59-1.29l8.27,5.57c2.18,1.46,2.75,4.42,1.29,6.59l-5.48,8.15c-1.46,2.18-4.42,2.75-6.59,1.29l-8.27-5.57c-2.18-1.46-2.75-4.42-1.29-6.59ZM148.15,217.65l5.48-8.15c1.46-2.18,4.42-2.75,6.59-1.29l8.27,5.57c2.18,1.46,2.75,4.42,1.29,6.59l-5.48,8.15c-1.46,2.18-4.42,2.75-6.59,1.29l-8.27-5.57c-2.18-1.46-2.75-4.42-1.29-6.59ZM123.63,288.96l-5.48,8.15c-1.46,2.18-4.42,2.75-6.59,1.29l-8.27-5.57c-2.18-1.46-2.75-4.42-1.29-6.59l5.48-8.15c1.46-2.18,4.42-2.75,6.59-1.29l8.27,5.57c2.18,1.46,2.75,4.42,1.29,6.59ZM134.64,264.1l-8.27-5.57c-2.18-1.46-2.75-4.42-1.29-6.59l5.48-8.15c1.46-2.18,4.42-2.75,6.59-1.29l8.27,5.57c2.18,1.46,2.75,4.42,1.29,6.59l-5.48,8.15c-1.46,2.18-4.42,2.75-6.59,1.29ZM164.57,372.04l-5.48,8.15c-1.46,2.18-4.42,2.75-6.59,1.29l-8.27-5.57c-2.18-1.46-2.75-4.42-1.29-6.59l5.48-8.15c1.46-2.18,4.42-2.75,6.59-1.29l8.27,5.57c2.18,1.46,2.75,4.42,1.29,6.59ZM186.91,339.25l-5.48,8.15c-1.46,2.18-4.42,2.75-6.59,1.29l-8.27-5.57c-2.18-1.46-2.75-4.42-1.29-6.59l5.48-8.15c1.46-2.18,4.42-2.75,6.59-1.29l8.27,5.57c2.18,1.46,2.75,4.42,1.29,6.59ZM188.35,302.23l5.48-8.15c1.46-2.18,4.42-2.75,6.59-1.29l8.27,5.57c2.18,1.46,2.75,4.42,1.29,6.59l-5.48,8.15c-1.46,2.18-4.42,2.75-6.59,1.29l-8.27-5.57c-2.18-1.46-2.75-4.42-1.29-6.59ZM219.82,465.56h-9.82c-2.62,0-4.75-2.12-4.75-4.74v-9.97c0-2.62,2.12-4.75,4.74-4.75h9.82c2.62,0,4.75,2.12,4.75,4.74v9.97c0,2.62-2.12,4.75-4.74,4.75ZM204.15,397.52v-9.97c.01-2.62,2.14-4.75,4.76-4.74h9.82c2.62.01,4.75,2.14,4.74,4.76v9.97c-.01,2.62-2.14,4.75-4.76,4.74h-9.82c-2.62-.01-4.75-2.14-4.74-4.76ZM261.16,465.53h-9.82c-2.62,0-4.75-2.12-4.75-4.74v-9.97c0-2.62,2.12-4.75,4.74-4.75h9.82c2.62,0,4.75,2.12,4.75,4.74v9.97c0,2.62-2.12,4.75-4.74,4.75ZM245.48,397.56v-9.97c.01-2.62,2.14-4.75,4.76-4.74h9.82c2.62.01,4.75,2.14,4.74,4.76v9.97c-.01,2.62-2.14,4.75-4.76,4.74h-9.82c-2.62-.01-4.75-2.14-4.74-4.76ZM302.49,465.51h-9.82c-2.62,0-4.75-2.12-4.75-4.74v-9.97c0-2.62,2.12-4.75,4.74-4.75h9.82c2.62,0,4.75,2.12,4.75,4.74v9.97c0,2.62-2.12,4.75-4.74,4.75ZM286.82,397.6v-9.97c.01-2.62,2.14-4.75,4.76-4.74h9.82c2.62.01,4.75,2.14,4.74,4.76v9.97c-.01,2.62-2.14,4.75-4.76,4.74h-9.82c-2.62-.01-4.75-2.14-4.74-4.76ZM343.83,465.49h-9.82c-2.62,0-4.75-2.12-4.75-4.74v-9.97c0-2.62,2.12-4.75,4.74-4.75h9.82c2.62,0,4.75,2.12,4.75,4.74v9.97c0,2.62-2.12,4.75-4.74,4.75ZM328.16,397.64v-9.97c.01-2.62,2.14-4.75,4.76-4.74h9.82c2.62.01,4.75,2.14,4.74,4.76v9.97c-.01,2.62-2.14,4.75-4.76,4.74h-9.82c-2.62-.01-4.75-2.14-4.74-4.76ZM385.17,465.46h-9.82c-2.62,0-4.75-2.12-4.75-4.74v-9.97c0-2.62,2.12-4.75,4.74-4.75h9.82c2.62,0,4.75,2.12,4.75,4.74v9.97c0,2.62-2.12,4.75-4.74,4.75ZM369.5,397.68v-9.97c.01-2.62,2.14-4.75,4.76-4.74h9.82c2.62.01,4.75,2.14,4.74,4.76v9.97c-.01,2.62-2.14,4.75-4.76,4.74h-9.82c-2.62-.01-4.75-2.14-4.74-4.76ZM194.34,366.47l98.38-146.52,98.38,146.52h-196.76ZM398.23,309.65l-8.26,5.59c-2.17,1.47-5.13.9-6.6-1.27l-5.51-8.13c-1.47-2.17-.9-5.13,1.27-6.6l8.26-5.59c2.17-1.47,5.13-.9,6.6,1.27l5.51,8.13c1.47,2.17.9,5.13-1.27,6.6ZM406.56,348.2l-5.51-8.13c-1.47-2.17-.9-5.13,1.27-6.6l8.26-5.59c2.17-1.47,5.13-.9,6.6,1.27l5.51,8.13c1.47,2.17.9,5.13-1.27,6.6l-8.26,5.59c-2.17,1.47-5.13.9-6.6-1.27ZM430.15,397.74c0,2.62-2.13,4.75-4.75,4.74h-9.82c-2.62-.01-4.75-2.14-4.74-4.76v-9.97c.01-2.62,2.14-4.75,4.76-4.74h9.82c2.62.01,4.75,2.14,4.74,4.76v9.97ZM438.7,226.56l-8.46,5.28c-2.23,1.39-5.16.71-6.54-1.51l-5.2-8.33c-1.39-2.23-.71-5.16,1.51-6.54l8.46-5.28c2.23-1.39,5.16-.71,6.54,1.51l5.2,8.33c1.39,2.23.71,5.16-1.51,6.54ZM460.59,261.63l-8.46,5.28c-2.23,1.39-5.16.71-6.54-1.51l-5.2-8.33c-1.39-2.23-.71-5.16,1.51-6.54l8.46-5.28c2.23-1.39,5.16-.71,6.54,1.51l5.2,8.33c1.39,2.23.71,5.16-1.51,6.54ZM482.47,296.7l-8.46,5.28c-2.23,1.39-5.16.71-6.54-1.51l-5.2-8.33c-1.39-2.23-.71-5.16,1.51-6.54l8.46-5.28c2.23-1.39,5.16-.71,6.54,1.51l5.2,8.33c1.39,2.23.71,5.16-1.51,6.54Z"/>
    </g>
  </g>
</svg>