<?xml version="1.0" encoding="UTF-8"?>
<svg id="Layer_2" data-name="Layer 2" xmlns="http://www.w3.org/2000/svg" viewBox="0 0 204.31 204.14">
  <defs>
    <style>
      .cls-1 {
        fill: #606060;
      }

      .cls-2 {
        fill: #eb2426;
      }
    </style>
  </defs>
  <g id="Layer_1-2" data-name="Layer 1">
    <g>
      <g>
        <g>
          <path class="cls-1" d="M151.31,14.81s-.17-.1-.51-.31c-.34-.19-.82-.53-1.52-.84-1.37-.66-3.38-1.63-5.94-2.86-.64-.31-1.31-.63-2.02-.97-.72-.3-1.51-.56-2.31-.86-1.61-.59-3.35-1.23-5.21-1.91-1.83-.76-3.9-1.19-6.05-1.76-1.08-.27-2.18-.56-3.3-.85-1.13-.29-2.28-.62-3.49-.76-9.56-1.88-21.05-2.36-33.1-.7-12.05,1.67-24.59,5.84-35.82,12.37-11.26,6.48-21.12,15.25-28.63,24.81-.91,1.22-1.82,2.43-2.71,3.62-.89,1.2-1.81,2.36-2.53,3.64-1.5,2.52-3.06,4.93-4.41,7.37-1.21,2.52-2.39,4.96-3.53,7.32-1.09,2.39-1.83,4.83-2.71,7.1-.41,1.15-.86,2.25-1.2,3.36-.29,1.13-.57,2.23-.85,3.31-.55,2.15-1.06,4.19-1.55,6.11-.59,3.91-1.15,7.32-1.52,10.14-.29,5.67-.45,8.91-.45,8.91-.03.57-.49,1.03-1.03,1.03s-.96-.47-.94-1.06c0,0,.17-3.3.46-9.08.37-2.87.94-6.34,1.54-10.33.5-1.96,1.03-4.04,1.58-6.23.28-1.1.57-2.22.87-3.37.35-1.13.8-2.26,1.22-3.43.89-2.31,1.65-4.8,2.76-7.23,1.16-2.41,2.36-4.9,3.6-7.47,1.38-2.48,2.96-4.95,4.5-7.51.73-1.31,1.67-2.5,2.58-3.72.91-1.22,1.83-2.45,2.76-3.69,7.66-9.75,17.72-18.69,29.19-25.3,11.45-6.66,24.24-10.91,36.53-12.61,12.29-1.68,23.99-1.2,33.74.72,1.24.14,2.41.47,3.56.77,1.15.29,2.27.58,3.37.86,2.19.59,4.3,1.02,6.16,1.8,1.9.7,3.67,1.35,5.31,1.95.82.3,1.61.57,2.35.88.72.35,1.41.68,2.06.99,2.61,1.26,4.66,2.25,6.06,2.93.71.31,1.2.66,1.54.86.35.21.52.31.52.31.5.3.69.93.42,1.4-.28.47-.89.61-1.38.31Z"/>
          <path class="cls-1" d="M146.6,23.15s-.16-.09-.46-.28c-.31-.17-.73-.49-1.37-.76-1.24-.59-3.06-1.47-5.37-2.58-.57-.28-1.18-.57-1.82-.89-.65-.28-1.36-.5-2.08-.77-1.45-.54-3.02-1.11-4.7-1.72-1.65-.7-3.53-1.07-5.47-1.59-.97-.25-1.96-.51-2.99-.77-1.02-.26-2.06-.57-3.16-.69-8.63-1.71-19.05-2.12-29.94-.63-10.89,1.51-22.22,5.27-32.37,11.17-10.18,5.86-19.1,13.8-25.9,22.45-.82,1.1-1.64,2.2-2.45,3.28-.81,1.09-1.65,2.13-2.29,3.29-1.35,2.28-2.76,4.46-3.99,6.66-1.09,2.27-2.16,4.48-3.19,6.62-.99,2.16-1.65,4.36-2.44,6.41-.37,1.04-.78,2.04-1.09,3.04-.26,1.02-.52,2.01-.76,2.98-.5,1.95-.97,3.79-1.42,5.52-.53,3.54-.99,6.62-1.37,9.16-.26,5.14-.4,8.07-.4,8.07-.02.26-.24.46-.52.46s-.48-.21-.47-.48c0,0,.15-2.96.41-8.16.34-2.57.86-5.68,1.39-9.26.45-1.75.92-3.61,1.43-5.58.25-.98.51-1.99.77-3.02.31-1.02.73-2.02,1.1-3.07.81-2.07,1.47-4.3,2.47-6.48,1.04-2.16,2.12-4.39,3.23-6.69,1.24-2.22,2.67-4.42,4.03-6.72.64-1.18,1.49-2.24,2.31-3.33.82-1.09,1.64-2.2,2.48-3.31,6.87-8.74,15.9-16.76,26.19-22.69,10.26-5.97,21.71-9.78,32.72-11.3,11.02-1.51,21.54-1.09,30.27.63,1.11.12,2.16.43,3.19.7,1.03.26,2.04.52,3.02.78,1.96.52,3.85.89,5.52,1.61,1.7.62,3.28,1.2,4.76,1.74.73.28,1.45.51,2.11.79.64.31,1.26.61,1.84.89,2.34,1.12,4.18,2.01,5.43,2.61.64.28,1.07.59,1.39.78.31.18.47.28.47.28.22.13.29.43.16.67-.14.24-.42.32-.64.18Z"/>
          <path class="cls-1" d="M7.67,91.74c-.04.27-.29.47-.57.44l-5.62-.58c-.27-.03-.45-.28-.41-.57.04-.29.3-.5.57-.46l5.62.64c.27.03.45.27.42.54Z"/>
          <path class="cls-1" d="M44.43,26.67c-.22.16-.53.12-.7-.1l-3.46-4.47c-.17-.21-.11-.53.12-.7.23-.17.56-.14.72.07l3.42,4.51c.16.22.12.52-.1.69Z"/>
          <path class="cls-1" d="M90.83,7.75c-.27.04-.51-.15-.55-.42l-.69-5.61c-.03-.28.17-.53.46-.57.29-.04.54.14.57.41l.64,5.62c.03.27-.16.52-.43.57Z"/>
          <path class="cls-1" d="M100.9,7.08c-.27,0-.5-.2-.5-.47l-.1-5.66c0-.27.23-.5.52-.52.29-.01.53.19.53.47l.04,5.66c0,.27-.21.5-.49.52Z"/>
          <path class="cls-1" d="M135.15,13.03c-.26-.09-.39-.38-.29-.63l1.94-5.31c.09-.26.39-.39.66-.28.27.1.42.39.32.64l-2,5.29c-.09.26-.38.38-.63.29Z"/>
          <path class="cls-1" d="M17.95,58.01c-.12.25-.41.34-.65.22l-5.02-2.6c-.24-.12-.33-.44-.21-.7.13-.26.43-.37.66-.24l5,2.65c.24.13.34.43.22.67Z"/>
          <path class="cls-1" d="M23.78,48.31c-.16.22-.48.27-.7.12l-4.68-3.18c-.22-.15-.26-.46-.09-.7.17-.23.5-.29.72-.14l4.65,3.22c.22.16.27.46.11.67Z"/>
        </g>
        <g>
          <path class="cls-1" d="M153.09,188.25s.69-.42,1.99-1.21c1.3-.79,3.25-1.89,5.48-3.66,2.24-1.74,5.15-3.62,7.98-6.4,1.46-1.34,3.04-2.73,4.64-4.26,1.49-1.64,3.06-3.37,4.7-5.17,6.32-7.37,12.71-16.94,17.24-28.26,4.58-11.28,7.21-24.23,7.22-37.22,0-12.99-2.64-25.94-7.22-37.22-4.53-11.32-10.92-20.89-17.24-28.26-1.63-1.8-3.21-3.53-4.7-5.17-1.6-1.53-3.19-2.92-4.64-4.26-2.83-2.78-5.75-4.66-7.98-6.4-2.23-1.77-4.18-2.86-5.48-3.65-1.3-.79-1.99-1.22-1.99-1.22-.49-.3-.67-.92-.4-1.39.27-.47.9-.61,1.4-.31,0,0,.71.43,2.03,1.24,1.32.81,3.31,1.92,5.58,3.73,2.28,1.77,5.25,3.7,8.14,6.52,1.49,1.36,3.1,2.78,4.73,4.34,1.52,1.67,3.12,3.43,4.79,5.27,6.44,7.52,12.95,17.28,17.58,28.82,4.67,11.5,7.36,24.71,7.36,37.95,0,13.24-2.69,26.46-7.36,37.96-4.63,11.55-11.14,21.29-17.58,28.82-1.67,1.83-3.27,3.59-4.79,5.26-1.63,1.56-3.25,2.98-4.73,4.35-2.89,2.83-5.86,4.75-8.14,6.52-2.27,1.81-4.26,2.93-5.58,3.74-1.33.8-2.03,1.23-2.03,1.23-.5.3-1.13.17-1.4-.3-.27-.47-.1-1.09.4-1.39Z"/>
          <path class="cls-1" d="M148.2,180s.63-.38,1.8-1.09c1.17-.71,2.95-1.69,4.95-3.31,2.02-1.58,4.67-3.27,7.22-5.8,1.32-1.21,2.75-2.46,4.21-3.84,1.35-1.49,2.77-3.05,4.25-4.68,5.71-6.68,11.49-15.33,15.59-25.56,4.14-10.19,6.52-21.89,6.53-33.66,0-11.77-2.39-23.46-6.53-33.66-4.1-10.23-9.87-18.87-15.59-25.55-1.48-1.63-2.9-3.2-4.25-4.68-1.46-1.38-2.89-2.63-4.21-3.85-2.55-2.52-5.2-4.2-7.22-5.79-2-1.61-3.78-2.59-4.95-3.31-1.18-.71-1.8-1.09-1.8-1.09-.22-.13-.29-.43-.15-.67.14-.23.43-.31.65-.18,0,0,.64.38,1.82,1.1,1.19.73,2.98,1.72,5,3.35,2.04,1.6,4.72,3.3,7.3,5.85,1.33,1.22,2.78,2.49,4.25,3.89,1.37,1.51,2.8,3.08,4.3,4.73,5.78,6.75,11.61,15.49,15.76,25.83,4.18,10.3,6.59,22.13,6.6,34.02-.01,11.9-2.42,23.72-6.6,34.03-4.15,10.34-9.98,19.08-15.76,25.83-1.5,1.65-2.93,3.23-4.3,4.73-1.47,1.4-2.92,2.66-4.25,3.89-2.58,2.55-5.26,4.25-7.3,5.85-2.03,1.63-3.82,2.62-5,3.34-1.19.73-1.82,1.11-1.82,1.11-.22.13-.52.05-.65-.18-.14-.24-.07-.54.15-.67Z"/>
          <path class="cls-1" d="M158.26,25.49c-.22-.16-.27-.47-.1-.7l3.32-4.58c.16-.22.48-.26.71-.08.23.17.29.49.13.71l-3.37,4.54c-.16.22-.47.27-.69.1Z"/>
          <path class="cls-1" d="M196.3,89.79c-.04-.27.14-.51.42-.55l5.61-.76c.27-.03.52.17.57.46.04.29-.14.55-.41.58l-5.61.69c-.27.04-.52-.15-.56-.43Z"/>
          <path class="cls-1" d="M189.52,139.46c.12-.24.42-.36.66-.26l5.21,2.2c.26.11.35.41.23.67-.12.26-.43.38-.68.28l-5.19-2.25c-.25-.11-.35-.4-.24-.64Z"/>
          <path class="cls-1" d="M185.03,148.5c.14-.23.45-.31.69-.18l4.95,2.74c.24.13.31.44.16.69-.15.25-.46.34-.7.21l-4.92-2.8c-.24-.14-.31-.43-.17-.66Z"/>
          <path class="cls-1" d="M162.78,175.24c.2-.18.5-.16.68.04l3.64,4.34c.17.21.14.53-.08.73-.21.2-.55.16-.72-.04l-3.59-4.37c-.17-.21-.12-.5.07-.69Z"/>
          <path class="cls-1" d="M182.34,51.22c-.14-.23-.07-.54.16-.69l4.76-3.06c.23-.15.54-.07.69.18.15.25.09.57-.14.71l-4.79,3.01c-.23.14-.53.07-.67-.16Z"/>
          <path class="cls-1" d="M187.81,61.12c-.12-.24-.02-.54.23-.65l5.09-2.47c.24-.12.54,0,.67.26.13.26.03.57-.22.68l-5.11,2.41c-.25.12-.54.01-.66-.23Z"/>
        </g>
        <g>
          <path class="cls-1" d="M1.97,103.1s.16,3.24.45,8.91c.36,2.81.92,6.22,1.52,10.13.49,1.92,1.01,3.96,1.55,6.11.28,1.08.56,2.18.85,3.3.34,1.11.79,2.22,1.2,3.37.87,2.27,1.61,4.71,2.71,7.09,1.14,2.37,2.32,4.82,3.53,7.32,1.35,2.44,2.91,4.85,4.41,7.36.72,1.28,1.64,2.45,2.53,3.64.9,1.2,1.8,2.4,2.71,3.62,7.52,9.56,17.38,18.33,28.63,24.82,11.23,6.53,23.77,10.7,35.82,12.37,12.05,1.65,23.54,1.19,33.1-.7,1.21-.14,2.36-.47,3.49-.76,1.13-.29,2.23-.58,3.3-.85,2.15-.57,4.22-1,6.05-1.76,1.86-.68,3.6-1.32,5.21-1.9.8-.3,1.58-.56,2.31-.87.71-.34,1.38-.66,2.02-.97,2.56-1.23,4.57-2.2,5.94-2.86.7-.31,1.18-.65,1.52-.84.33-.2.51-.3.51-.3.49-.3,1.11-.16,1.38.31.27.47.09,1.1-.42,1.4,0,0-.17.11-.52.31-.35.2-.83.54-1.54.86-1.4.67-3.45,1.66-6.06,2.92-.65.31-1.34.65-2.06.99-.74.31-1.53.57-2.35.89-1.64.6-3.41,1.25-5.31,1.94-1.87.78-3.98,1.22-6.16,1.8-1.1.28-2.22.57-3.37.87-1.15.3-2.32.63-3.56.77-9.75,1.93-21.45,2.41-33.74.72-12.28-1.69-25.08-5.95-36.53-12.61-11.48-6.61-21.53-15.55-29.19-25.3-.93-1.24-1.85-2.48-2.76-3.69-.91-1.23-1.85-2.41-2.58-3.72-1.54-2.56-3.12-5.02-4.5-7.51-1.24-2.56-2.44-5.06-3.6-7.47-1.11-2.43-1.87-4.92-2.76-7.23-.42-1.17-.87-2.3-1.22-3.44-.3-1.15-.59-2.27-.87-3.37-.56-2.2-1.09-4.27-1.58-6.23-.61-3.98-1.17-7.46-1.54-10.33C.17,106.43,0,103.12,0,103.12c-.03-.59.39-1.06.94-1.06s1.01.47,1.03,1.04Z"/>
          <path class="cls-1" d="M11.56,103.01s.15,2.93.4,8.06c.38,2.55.84,5.62,1.37,9.16.45,1.74.92,3.57,1.42,5.52.24.97.5,1.97.76,2.99.31,1.01.72,2.01,1.09,3.04.8,2.05,1.45,4.26,2.44,6.41,1.03,2.14,2.09,4.35,3.19,6.63,1.23,2.19,2.64,4.38,3.99,6.65.64,1.17,1.48,2.21,2.29,3.3.81,1.08,1.63,2.17,2.45,3.27,6.8,8.66,15.72,16.59,25.9,22.45,10.15,5.91,21.48,9.67,32.37,11.17,10.9,1.49,21.31,1.08,29.94-.63,1.1-.12,2.13-.42,3.16-.69,1.02-.26,2.01-.52,2.99-.77,1.94-.52,3.81-.89,5.47-1.59,1.68-.62,3.25-1.19,4.7-1.72.73-.27,1.44-.5,2.08-.78.64-.31,1.25-.61,1.82-.89,2.32-1.11,4.13-1.99,5.37-2.59.64-.27,1.06-.59,1.37-.76.31-.19.46-.28.46-.28.22-.14.51-.05.64.18.14.23.06.54-.16.68,0,0-.16.09-.47.28-.31.18-.75.49-1.39.77-1.25.6-3.09,1.49-5.43,2.61-.58.28-1.2.58-1.84.89-.66.28-1.38.51-2.11.79-1.47.54-3.06,1.12-4.76,1.74-1.67.71-3.57,1.08-5.52,1.61-.98.25-1.99.51-3.02.78-1.03.27-2.08.58-3.19.69-8.73,1.73-19.25,2.14-30.27.64-11.01-1.52-22.46-5.33-32.72-11.3-10.29-5.92-19.31-13.94-26.19-22.69-.83-1.12-1.66-2.22-2.48-3.31-.82-1.1-1.67-2.15-2.31-3.33-1.37-2.3-2.79-4.51-4.03-6.73-1.11-2.3-2.18-4.53-3.23-6.69-1-2.18-1.66-4.41-2.47-6.48-.37-1.05-.79-2.06-1.1-3.07-.26-1.03-.52-2.04-.77-3.02-.5-1.96-.98-3.83-1.43-5.58-.52-3.58-1.04-6.69-1.39-9.26-.26-5.19-.41-8.16-.41-8.16-.01-.26.2-.47.47-.48.27,0,.5.21.52.47Z"/>
          <path class="cls-1" d="M140.41,189.03c.24-.12.53-.02.64.23l2.31,5.17c.11.25-.01.55-.28.67-.26.13-.56.03-.67-.22l-2.26-5.19c-.1-.25,0-.55.25-.66Z"/>
          <path class="cls-1" d="M65.64,189.84c.26.09.38.37.28.62l-2.15,5.24c-.1.25-.41.37-.68.27-.27-.1-.41-.38-.3-.63l2.2-5.21c.1-.25.4-.38.65-.28Z"/>
          <path class="cls-1" d="M26.14,158.98c.16.22.12.53-.1.69l-4.51,3.42c-.22.16-.53.11-.71-.12-.17-.23-.14-.56.08-.72l4.55-3.37c.22-.16.53-.11.69.1Z"/>
          <path class="cls-1" d="M20.52,150.6c.14.23.07.54-.17.68l-4.84,2.92c-.23.14-.54.05-.69-.19s-.08-.56.15-.7l4.88-2.87c.23-.14.54-.06.68.17Z"/>
          <path class="cls-1" d="M8.52,118c.04.27-.14.52-.41.57l-5.57.98c-.27.04-.52-.15-.56-.44-.05-.29.14-.56.4-.6l5.58-.91c.27-.04.52.14.56.41Z"/>
          <path class="cls-1" d="M106.07,196.91c.27,0,.5.19.51.47l.26,5.65c.01.27-.21.51-.5.52-.29.01-.54-.19-.54-.46l-.2-5.65c-.01-.27.2-.5.47-.52Z"/>
          <path class="cls-1" d="M94.75,196.74c.27.02.48.24.46.52l-.41,5.64c-.02.27-.27.48-.56.46-.29-.02-.51-.24-.49-.52l.47-5.64c.02-.27.26-.48.53-.47Z"/>
        </g>
      </g>
      <g>
        <path class="cls-2" d="M139.19,106.18c-4.54,0-8.23,3.68-8.23,8.23,0-4.54-3.68-8.23-8.23-8.23s-8.23,3.68-8.23,8.23c0-4.54-3.68-8.23-8.23-8.23s-8.23,3.68-8.23,8.23v-37.03c0-4.54-3.68-8.23-8.23-8.23s-8.23,3.68-8.23,8.23v49.37h-.49l-7.74-10.32c-2.09-3.44-6.92-4.27-10.5-1.88-3.4,2.27-4.59,6.72-2.76,10.38l18.07,40.26c2.09,4.18,6.36,6.82,11.04,6.82h45.86c6.82,0,12.34-5.53,12.34-12.34v-45.26c0-4.54-3.68-8.23-8.23-8.23Z"/>
        <path class="cls-2" d="M65.13,65.04c0-13.61,11.07-24.69,24.69-24.69s24.69,11.07,24.69,24.69c0,7.13-3.13,13.77-8.23,18.37v10.13c3.79-2.2,7.14-5.14,9.8-8.64,4.36-5.75,6.66-12.62,6.66-19.85,0-18.15-14.77-32.91-32.91-32.91s-32.91,14.77-32.91,32.91c0,7.23,2.3,14.1,6.66,19.85,2.65,3.5,6.01,6.45,9.8,8.64v-10.13c-5.1-4.6-8.23-11.24-8.23-18.37Z"/>
        <path class="cls-2" d="M101.42,53.38c-3.11-3.09-7.23-4.79-11.61-4.79h-.08c-8.74.04-15.93,6.9-16.36,15.62-.12,2.42.3,4.8,1.19,6.99,1.42-3.49,4.01-6.39,7.28-8.21.93-3.51,4.19-6.16,7.93-6.18h.04c2.19,0,4.25.85,5.81,2.4,1.07,1.06,1.8,2.36,2.17,3.78,3.27,1.82,5.86,4.73,7.28,8.23.78-1.94,1.2-4.03,1.2-6.18,0-4.41-1.72-8.55-4.85-11.66h0Z"/>
      </g>
    </g>
  </g>
</svg>