<?xml version="1.0" encoding="UTF-8"?>
<svg id="Layer_2" data-name="Layer 2" xmlns="http://www.w3.org/2000/svg" viewBox="0 0 143.73 143.6">
  <defs>
    <style>
      .cls-1 {
        fill: #e82828;
      }

      .cls-2 {
        fill: #606060;
      }
    </style>
  </defs>
  <g id="Layer_1-2" data-name="Layer 1">
    <g>
      <g>
        <circle class="cls-1" cx="32.28" cy="87.23" r="3.86"/>
        <path class="cls-1" d="M115.24,52.51c-6.46-9.66-17.32-15.46-28.94-15.43-11.57.02-22.37,5.81-28.8,15.43h-23.28c-2.13,0-3.86,1.73-3.86,3.86s1.73,3.86,3.86,3.86h32.79c2.13,0,3.86,1.73,3.86,3.86s-1.73,3.86-3.86,3.86H26.49c-2.13,0-3.86,1.73-3.86,3.86s1.73,3.86,3.86,3.86h30.87c2.13,0,3.86,1.73,3.86,3.86s-1.73,3.86-3.86,3.86h-13.5c-2.13,0-3.86,1.73-3.86,3.86s1.73,3.86,3.86,3.86h13.64c10.65,15.95,32.22,20.23,48.16,9.58,15.95-10.65,20.23-32.22,9.58-48.16ZM96.73,81.82c-1.39,1.62-3.82,1.81-5.44.42l-7.72-7.72c-.72-.72-1.13-1.7-1.14-2.72v-17.36c0-2.13,1.73-3.86,3.86-3.86s3.86,1.73,3.86,3.86v15.76l6.58,6.6c1.24,1.44,1.24,3.57,0,5.02Z"/>
      </g>
      <g>
        <g>
          <path class="cls-2" d="M106.44,10.42s-.12-.07-.36-.22c-.24-.14-.58-.38-1.07-.59-.96-.46-2.38-1.15-4.18-2.02-.45-.22-.92-.44-1.42-.68-.51-.21-1.06-.39-1.62-.61-1.13-.42-2.35-.86-3.66-1.34-1.29-.54-2.74-.84-4.25-1.24-.76-.19-1.53-.39-2.32-.6-.79-.2-1.6-.43-2.45-.53-6.73-1.33-14.81-1.66-23.28-.49-8.47,1.17-17.3,4.11-25.2,8.7-7.92,4.56-14.86,10.73-20.14,17.45-.64.86-1.28,1.71-1.91,2.55-.63.84-1.27,1.66-1.78,2.56-1.06,1.77-2.15,3.47-3.1,5.18-.85,1.77-1.68,3.49-2.48,5.15-.77,1.68-1.29,3.4-1.9,4.99-.29.81-.6,1.59-.84,2.37-.2.79-.4,1.57-.6,2.33-.39,1.51-.75,2.95-1.09,4.3-.42,2.75-.81,5.15-1.07,7.13-.2,3.99-.32,6.27-.32,6.27-.02.4-.34.73-.73.73s-.68-.33-.66-.74c0,0,.12-2.32.32-6.39.26-2.02.66-4.46,1.09-7.27.35-1.38.72-2.84,1.11-4.38.2-.77.4-1.56.61-2.37.25-.8.57-1.59.86-2.42.63-1.63,1.16-3.38,1.94-5.09.82-1.7,1.66-3.45,2.53-5.25.97-1.74,2.08-3.48,3.16-5.28.51-.92,1.17-1.76,1.81-2.61.64-.86,1.29-1.72,1.94-2.6,5.39-6.86,12.46-13.15,20.54-17.8C43.98,4.91,52.99,1.92,61.62.72c8.65-1.18,16.88-.85,23.73.51.87.1,1.7.33,2.5.54.81.21,1.6.41,2.37.61,1.54.41,3.02.72,4.34,1.26,1.34.49,2.58.95,3.74,1.37.57.21,1.13.4,1.65.62.51.25.99.48,1.45.69,1.84.89,3.28,1.58,4.26,2.06.5.22.84.47,1.09.61.24.14.37.22.37.22.35.21.48.65.29.98-.19.33-.63.43-.97.22Z"/>
          <path class="cls-2" d="M103.13,16.29s-.11-.07-.32-.2c-.22-.12-.52-.34-.96-.54-.87-.42-2.15-1.03-3.78-1.82-.4-.2-.83-.4-1.28-.62-.46-.19-.96-.35-1.47-.54-1.02-.38-2.13-.78-3.31-1.21-1.16-.49-2.48-.75-3.84-1.12-.68-.17-1.38-.36-2.1-.54-.72-.19-1.45-.4-2.22-.48-6.07-1.21-13.4-1.49-21.06-.44-7.66,1.06-15.63,3.71-22.77,7.86-7.16,4.12-13.44,9.71-18.22,15.79-.58.78-1.16,1.55-1.72,2.31-.57.76-1.16,1.5-1.61,2.32-.95,1.6-1.94,3.14-2.81,4.68-.77,1.6-1.52,3.15-2.24,4.66-.7,1.52-1.16,3.07-1.72,4.51-.26.73-.55,1.43-.77,2.14-.18.72-.36,1.42-.54,2.1-.35,1.37-.68,2.67-1,3.88-.37,2.49-.7,4.66-.96,6.44-.18,3.61-.28,5.68-.28,5.68-.01.18-.17.33-.36.33s-.34-.15-.33-.34c0,0,.11-2.08.29-5.74.24-1.81.61-4,.98-6.51.31-1.23.65-2.54,1-3.92.18-.69.36-1.4.54-2.13.22-.72.51-1.42.77-2.16.57-1.45,1.03-3.02,1.74-4.56.73-1.52,1.49-3.09,2.27-4.71.87-1.56,1.88-3.11,2.84-4.73.45-.83,1.05-1.57,1.63-2.34.58-.77,1.15-1.55,1.74-2.33,4.83-6.15,11.18-11.79,18.42-15.96,7.22-4.2,15.27-6.88,23.02-7.95,7.75-1.06,15.15-.77,21.29.45.78.09,1.52.3,2.24.49.73.19,1.43.37,2.12.55,1.38.37,2.71.63,3.89,1.13,1.19.44,2.31.84,3.35,1.22.51.2,1.02.36,1.48.56.45.22.89.43,1.3.63,1.65.79,2.94,1.41,3.82,1.84.45.2.75.42.97.55.22.13.33.2.33.2.16.09.21.31.11.47-.1.17-.3.22-.45.13Z"/>
          <path class="cls-2" d="M5.39,64.54c-.03.19-.21.33-.4.31l-3.96-.41c-.19-.02-.32-.2-.29-.4.03-.2.21-.35.4-.33l3.95.45c.19.02.32.19.29.38Z"/>
          <path class="cls-2" d="M31.26,18.76c-.15.11-.37.08-.49-.07l-2.44-3.15c-.12-.15-.08-.37.08-.49.16-.12.39-.1.51.05l2.41,3.17c.11.15.08.37-.07.48Z"/>
          <path class="cls-2" d="M63.9,5.45c-.19.03-.36-.11-.39-.29l-.49-3.94c-.02-.19.12-.37.32-.4.2-.03.38.1.4.29l.45,3.95c.02.19-.11.37-.3.4Z"/>
          <path class="cls-2" d="M70.98,4.98c-.19,0-.35-.14-.35-.33l-.07-3.98c0-.19.16-.35.37-.36.2,0,.37.14.37.33l.03,3.98c0,.19-.15.35-.34.36Z"/>
          <path class="cls-2" d="M95.07,9.17c-.18-.07-.27-.27-.21-.45l1.37-3.74c.07-.18.27-.27.47-.2.19.07.29.27.23.45l-1.41,3.72c-.07.18-.26.27-.45.21Z"/>
          <path class="cls-2" d="M12.63,40.81c-.08.17-.29.24-.46.16l-3.53-1.83c-.17-.09-.23-.31-.15-.49.09-.18.3-.26.47-.17l3.51,1.87c.17.09.24.3.16.47Z"/>
          <path class="cls-2" d="M16.73,33.98c-.11.16-.34.19-.49.09l-3.29-2.24c-.16-.11-.19-.32-.07-.49.12-.17.35-.21.5-.1l3.27,2.27c.16.11.19.32.08.47Z"/>
        </g>
        <g>
          <path class="cls-2" d="M107.7,132.43s.49-.29,1.4-.85c.91-.56,2.29-1.33,3.85-2.58,1.57-1.23,3.62-2.55,5.62-4.5,1.02-.94,2.14-1.92,3.27-3,1.05-1.15,2.15-2.37,3.3-3.64,4.45-5.19,8.94-11.92,12.13-19.88,3.22-7.93,5.07-17.05,5.08-26.19,0-9.14-1.86-18.25-5.08-26.18-3.19-7.96-7.68-14.69-12.13-19.88-1.15-1.26-2.26-2.48-3.3-3.64-1.13-1.08-2.24-2.05-3.27-3-1.99-1.95-4.04-3.28-5.62-4.5-1.57-1.25-2.94-2.02-3.85-2.57-.91-.56-1.4-.86-1.4-.86-.35-.21-.47-.65-.28-.98.19-.33.63-.43.98-.22,0,0,.5.3,1.43.87.93.57,2.33,1.35,3.93,2.63,1.61,1.25,3.69,2.6,5.73,4.59,1.05.96,2.18,1.96,3.33,3.05,1.07,1.18,2.2,2.42,3.37,3.71,4.53,5.29,9.11,12.15,12.37,20.27,3.28,8.09,5.17,17.39,5.18,26.7,0,9.32-1.89,18.61-5.18,26.7-3.25,8.12-7.83,14.98-12.37,20.27-1.17,1.29-2.3,2.53-3.37,3.7-1.15,1.1-2.28,2.1-3.33,3.06-2.03,1.99-4.12,3.34-5.73,4.59-1.6,1.27-3,2.06-3.93,2.63-.93.56-1.43.87-1.43.87-.35.21-.79.12-.98-.21-.19-.33-.07-.77.28-.98Z"/>
          <path class="cls-2" d="M104.25,126.62s.44-.27,1.27-.77c.82-.5,2.07-1.19,3.48-2.33,1.42-1.11,3.29-2.3,5.08-4.08.93-.85,1.94-1.73,2.96-2.7.95-1.05,1.95-2.14,2.99-3.29,4.02-4.7,8.08-10.78,10.97-17.98,2.91-7.17,4.59-15.4,4.6-23.68,0-8.28-1.68-16.5-4.6-23.68-2.88-7.19-6.95-13.28-10.97-17.97-1.04-1.15-2.04-2.25-2.99-3.29-1.02-.97-2.03-1.85-2.96-2.71-1.79-1.77-3.66-2.95-5.08-4.07-1.41-1.13-2.66-1.82-3.48-2.33-.83-.5-1.27-.77-1.27-.77-.16-.09-.2-.31-.11-.47.1-.17.3-.22.46-.12,0,0,.45.27,1.28.78.84.51,2.09,1.21,3.52,2.36,1.44,1.12,3.32,2.32,5.14,4.12.94.86,1.96,1.75,2.99,2.73.96,1.06,1.97,2.17,3.02,3.33,4.06,4.75,8.17,10.9,11.09,18.17,2.94,7.25,4.64,15.56,4.64,23.93,0,8.37-1.7,16.69-4.64,23.94-2.92,7.27-7.02,13.42-11.09,18.17-1.05,1.16-2.06,2.27-3.02,3.33-1.03.98-2.05,1.87-2.99,2.74-1.81,1.79-3.7,2.99-5.14,4.12-1.43,1.15-2.68,1.85-3.52,2.35-.84.51-1.28.78-1.28.78-.16.09-.36.04-.46-.12-.1-.17-.05-.38.11-.47Z"/>
          <path class="cls-2" d="M111.33,17.93c-.15-.11-.19-.33-.07-.49l2.34-3.22c.11-.15.34-.18.5-.06.16.12.2.34.09.5l-2.37,3.19c-.11.15-.33.19-.48.07Z"/>
          <path class="cls-2" d="M138.09,63.16c-.03-.19.1-.36.29-.39l3.94-.53c.19-.02.37.12.4.32.03.2-.1.38-.29.41l-3.95.49c-.19.03-.37-.11-.4-.3Z"/>
          <path class="cls-2" d="M133.32,98.11c.08-.17.29-.25.47-.18l3.66,1.55c.18.08.25.29.16.47-.09.18-.3.27-.48.2l-3.65-1.59c-.17-.08-.25-.28-.17-.45Z"/>
          <path class="cls-2" d="M130.16,104.46c.1-.16.31-.22.48-.13l3.48,1.93c.17.09.22.31.11.48-.1.17-.32.24-.49.15l-3.46-1.97c-.17-.1-.22-.3-.12-.47Z"/>
          <path class="cls-2" d="M114.51,123.28c.14-.13.35-.11.48.03l2.56,3.05c.12.15.1.37-.05.51-.15.14-.39.12-.51-.03l-2.53-3.08c-.12-.15-.09-.35.05-.49Z"/>
          <path class="cls-2" d="M128.27,36.03c-.1-.16-.05-.38.11-.48l3.35-2.15c.16-.11.38-.05.49.13.11.17.06.4-.1.5l-3.37,2.12c-.16.1-.37.05-.47-.11Z"/>
          <path class="cls-2" d="M132.12,43c-.08-.17-.01-.38.16-.46l3.58-1.74c.17-.08.38,0,.47.18.09.18.02.4-.15.48l-3.6,1.7c-.17.08-.38,0-.46-.16Z"/>
        </g>
        <g>
          <path class="cls-2" d="M1.39,72.53s.11,2.28.32,6.27c.26,1.98.65,4.38,1.07,7.13.34,1.35.71,2.79,1.09,4.3.2.76.4,1.53.6,2.32.24.78.56,1.56.84,2.37.61,1.6,1.14,3.31,1.9,4.99.8,1.67,1.63,3.39,2.48,5.15.95,1.71,2.05,3.41,3.1,5.18.5.9,1.15,1.72,1.78,2.56.63.84,1.27,1.69,1.91,2.55,5.29,6.73,12.22,12.9,20.14,17.46,7.9,4.6,16.72,7.53,25.2,8.7,8.48,1.16,16.56.83,23.28-.49.85-.1,1.66-.33,2.45-.53.79-.2,1.57-.41,2.32-.6,1.51-.4,2.97-.7,4.25-1.24,1.31-.48,2.53-.93,3.66-1.34.56-.21,1.11-.4,1.62-.61.5-.24.97-.46,1.42-.68,1.8-.87,3.22-1.55,4.18-2.02.49-.22.83-.46,1.07-.59.23-.14.36-.21.36-.21.34-.21.78-.11.97.22.19.33.06.77-.29.98,0,0-.12.08-.37.22-.24.14-.59.38-1.09.61-.98.47-2.43,1.17-4.26,2.05-.46.22-.94.45-1.45.7-.52.22-1.08.4-1.65.62-1.16.42-2.4.88-3.74,1.36-1.31.55-2.8.86-4.34,1.27-.77.2-1.56.4-2.37.61-.81.21-1.63.44-2.5.54-6.86,1.36-15.09,1.69-23.73.51-8.64-1.19-17.64-4.18-25.69-8.87-8.07-4.65-15.15-10.94-20.54-17.8-.66-.87-1.3-1.74-1.94-2.6-.64-.86-1.3-1.69-1.81-2.61-1.08-1.8-2.19-3.53-3.16-5.28-.87-1.8-1.71-3.56-2.53-5.26-.78-1.71-1.32-3.46-1.94-5.09-.29-.82-.61-1.62-.86-2.42-.21-.81-.41-1.6-.61-2.37-.39-1.54-.76-3.01-1.11-4.38-.43-2.8-.82-5.25-1.09-7.27C.12,74.87,0,72.54,0,72.54c-.02-.41.27-.74.66-.74s.71.33.73.73Z"/>
          <path class="cls-2" d="M8.13,72.46s.1,2.06.28,5.67c.27,1.79.59,3.96.96,6.44.31,1.22.64,2.51,1,3.88.17.68.35,1.39.54,2.1.22.71.51,1.41.77,2.14.56,1.44,1.02,3,1.72,4.51.72,1.5,1.47,3.06,2.24,4.66.86,1.54,1.86,3.08,2.81,4.68.45.82,1.04,1.56,1.61,2.32.57.76,1.14,1.53,1.72,2.3,4.78,6.09,11.06,11.67,18.22,15.79,7.14,4.16,15.11,6.8,22.77,7.86,7.66,1.05,14.99.76,21.06-.44.77-.08,1.5-.29,2.22-.48.72-.18,1.42-.36,2.1-.54,1.36-.37,2.68-.63,3.84-1.12,1.18-.43,2.29-.84,3.31-1.21.51-.19,1.01-.35,1.47-.55.45-.22.88-.43,1.28-.62,1.63-.78,2.91-1.4,3.78-1.82.45-.19.75-.41.96-.54.22-.13.32-.2.32-.2.16-.1.36-.04.45.13.1.16.04.38-.11.48,0,0-.11.07-.33.2-.22.12-.52.35-.97.54-.88.42-2.17,1.05-3.82,1.84-.41.2-.84.41-1.3.63-.46.2-.97.36-1.48.55-1.03.38-2.15.79-3.35,1.23-1.17.5-2.51.76-3.89,1.13-.69.18-1.4.36-2.12.55-.72.19-1.46.41-2.24.48-6.14,1.22-13.54,1.51-21.29.45-7.74-1.07-15.8-3.75-23.02-7.95-7.24-4.17-13.59-9.81-18.42-15.96-.59-.79-1.17-1.56-1.74-2.33-.58-.77-1.17-1.51-1.63-2.34-.96-1.62-1.97-3.17-2.84-4.74-.78-1.62-1.53-3.19-2.27-4.71-.7-1.53-1.17-3.1-1.74-4.56-.26-.74-.55-1.45-.77-2.16-.19-.72-.37-1.43-.54-2.12-.36-1.38-.69-2.69-1-3.93-.37-2.52-.73-4.7-.98-6.51-.18-3.65-.29-5.74-.29-5.74,0-.18.14-.33.33-.34.19,0,.35.15.36.33Z"/>
          <path class="cls-2" d="M98.78,132.98c.17-.08.37-.01.45.16l1.62,3.64c.08.17,0,.39-.19.47-.18.09-.4.02-.47-.15l-1.59-3.65c-.07-.17,0-.39.17-.47Z"/>
          <path class="cls-2" d="M46.18,133.54c.18.07.27.26.2.44l-1.51,3.68c-.07.17-.29.26-.48.19-.19-.07-.29-.27-.21-.45l1.55-3.66c.07-.18.28-.27.46-.2Z"/>
          <path class="cls-2" d="M18.39,111.84c.11.15.08.37-.07.49l-3.17,2.41c-.15.11-.37.08-.5-.08-.12-.17-.1-.39.05-.51l3.2-2.37c.15-.11.37-.08.48.07Z"/>
          <path class="cls-2" d="M14.43,105.94c.1.16.05.38-.12.48l-3.41,2.05c-.16.1-.38.04-.49-.14s-.06-.4.11-.49l3.43-2.02c.16-.1.38-.04.48.12Z"/>
          <path class="cls-2" d="M5.99,83.01c.03.19-.1.37-.29.4l-3.92.69c-.19.03-.37-.11-.4-.31-.03-.2.1-.39.28-.42l3.93-.64c.19-.03.37.1.39.29Z"/>
          <path class="cls-2" d="M74.62,138.52c.19,0,.35.14.36.33l.19,3.97c0,.19-.15.36-.35.36-.2,0-.38-.13-.38-.33l-.14-3.98c0-.19.14-.35.33-.36Z"/>
          <path class="cls-2" d="M66.65,138.4c.19.01.34.17.32.36l-.29,3.97c-.01.19-.19.34-.39.32-.21-.01-.36-.17-.34-.36l.33-3.96c.02-.19.18-.34.37-.33Z"/>
        </g>
      </g>
    </g>
  </g>
</svg>