<?xml version="1.0" encoding="UTF-8"?>
<svg id="Layer_2" data-name="Layer 2" xmlns="http://www.w3.org/2000/svg" viewBox="0 0 476.05 475.62">
  <defs>
    <style>
      .cls-1 {
        fill: #e82828;
      }

      .cls-2 {
        fill: #606060;
      }
    </style>
  </defs>
  <g id="Layer_2-2" data-name="Layer 2">
    <g id="Layer_2-2" data-name="Layer 2-2">
      <g>
        <g id="Layer_1-2" data-name="Layer 1-2">
          <g>
            <g>
              <path class="cls-2" d="M352.54,34.49s-.39-.23-1.17-.72c-.78-.46-1.92-1.24-3.52-1.96-3.2-1.53-7.89-3.81-13.86-6.68-1.47-.72-3.06-1.47-4.7-2.25-1.7-.72-3.52-1.3-5.38-2.02-3.75-1.37-7.79-2.87-12.13-4.43-4.27-1.79-9.1-2.77-14.09-4.11-2.51-.65-5.09-1.3-7.69-1.96-2.64-.68-5.31-1.43-8.12-1.76-22.27-4.4-49.04-5.48-77.11-1.63-28.07,3.88-57.29,13.6-83.44,28.82-26.22,15.1-49.2,35.54-66.71,57.81-2.12,2.84-4.24,5.64-6.33,8.44s-4.21,5.51-5.9,8.48c-3.49,5.87-7.11,11.48-10.27,17.15-2.84,5.87-5.58,11.54-8.22,17.05-2.54,5.58-4.27,11.25-6.29,16.53-.95,2.67-1.99,5.25-2.8,7.83-.68,2.64-1.34,5.18-1.99,7.69-1.27,5.02-2.48,9.78-3.62,14.22-1.37,9.13-2.67,17.05-3.52,23.61-.68,13.21-1.04,20.77-1.04,20.77-.07,1.34-1.14,2.41-2.41,2.41s-2.25-1.11-2.18-2.48c0,0,.39-7.69,1.08-21.16.88-6.68,2.18-14.77,3.59-24.06,1.17-4.56,2.38-9.42,3.68-14.51.65-2.54,1.34-5.18,2.02-7.86.82-2.64,1.86-5.28,2.84-7.99,2.09-5.38,3.85-11.18,6.42-16.86,2.71-5.61,5.51-11.41,8.38-17.38,3.2-5.77,6.88-11.54,10.47-17.48,1.7-3.03,3.88-5.8,6-8.67,2.12-2.84,4.27-5.71,6.42-8.61,17.84-22.73,41.28-43.56,68.02-58.95,26.7-15.52,56.54-25.43,85.13-29.38,28.63-3.91,55.89-2.8,78.61,1.66,2.87.33,5.61,1.11,8.28,1.79s5.31,1.37,7.86,2.02c5.09,1.37,10.01,2.38,14.35,4.17,4.43,1.63,8.54,3.13,12.36,4.53,1.89.72,3.75,1.3,5.48,2.05,1.7.82,3.29,1.6,4.79,2.28,6.06,2.93,10.86,5.25,14.12,6.81,1.66.72,2.8,1.53,3.59,2.02.82.49,1.21.72,1.21.72,1.17.72,1.6,2.15.98,3.26-.65,1.08-2.09,1.4-3.23.72l.07.03-.03.04h0Z"/>
              <path class="cls-2" d="M341.55,53.92s-.36-.23-1.08-.65c-.72-.39-1.7-1.14-3.2-1.79-2.87-1.37-7.11-3.42-12.52-6-1.34-.65-2.77-1.34-4.24-2.05-1.5-.65-3.16-1.17-4.86-1.79-3.39-1.24-7.04-2.58-10.96-4.01-3.85-1.63-8.22-2.48-12.75-3.72-2.25-.59-4.56-1.17-6.95-1.79-2.38-.62-4.79-1.34-7.34-1.6-20.12-3.98-44.38-4.92-69.74-1.47-25.37,3.52-51.78,12.29-75.42,26.02-23.7,13.66-44.51,32.15-60.35,52.3-1.92,2.58-3.81,5.12-5.71,7.66s-3.85,4.96-5.35,7.66c-3.16,5.31-6.42,10.4-9.29,15.52-2.54,5.28-5.02,10.43-7.43,15.42-2.32,5.02-3.85,10.17-5.67,14.93-.85,2.41-1.83,4.73-2.54,7.08-.62,2.38-1.21,4.7-1.76,6.95-1.17,4.53-2.25,8.84-3.29,12.85-1.24,8.25-2.32,15.42-3.2,21.36-.59,11.97-.95,18.81-.95,18.81-.03.62-.55,1.08-1.21,1.08s-1.11-.49-1.11-1.11c0,0,.36-6.91.95-19.01.78-6,2.02-13.24,3.23-21.55,1.04-4.08,2.15-8.41,3.33-13.01.59-2.28,1.17-4.63,1.79-7.04.72-2.38,1.7-4.73,2.58-7.17,1.89-4.83,3.42-10.01,5.74-15.1,2.45-5.02,4.92-10.24,7.53-15.59,2.87-5.18,6.23-10.3,9.39-15.65,1.5-2.74,3.49-5.22,5.38-7.76,1.92-2.54,3.81-5.12,5.77-7.73,16.01-20.38,37.04-39.06,61.01-52.85,23.9-13.92,50.6-22.79,76.23-26.31,25.66-3.52,50.18-2.54,70.53,1.47,2.58.29,5.02,1.01,7.43,1.63s4.76,1.21,7.04,1.83c4.56,1.21,8.97,2.09,12.88,3.75,3.95,1.43,7.66,2.8,11.09,4.04,1.7.65,3.36,1.21,4.92,1.86,1.5.72,2.93,1.4,4.3,2.09,5.45,2.61,9.72,4.66,12.65,6.1,1.5.65,2.51,1.37,3.23,1.79s1.08.65,1.08.65c.52.29.68,1.01.36,1.57s-.98.75-1.5.42l-.03-.07v-.02h0Z"/>
              <path class="cls-2" d="M17.87,213.72c-.1.62-.68,1.08-1.3,1.01l-13.11-1.34c-.62-.07-1.04-.65-.95-1.34.1-.68.68-1.17,1.3-1.08l13.11,1.5c.62.07,1.04.62.98,1.27l-.03-.03h0Z"/>
              <path class="cls-2" d="M103.53,62.11c-.52.39-1.24.29-1.63-.23l-8.05-10.43c-.39-.49-.26-1.24.29-1.63s1.3-.33,1.66.16l7.96,10.5c.39.49.29,1.21-.23,1.6v.03Z"/>
              <path class="cls-2" d="M211.62,18.06c-.62.1-1.21-.36-1.27-.98l-1.63-13.07c-.07-.65.39-1.24,1.08-1.34s1.27.33,1.34.95l1.47,13.07c.07.65-.39,1.21-1.01,1.34l.03.03h0Z"/>
              <path class="cls-2" d="M235.09,16.49c-.62,0-1.17-.46-1.17-1.08l-.23-13.17c0-.62.52-1.17,1.21-1.21.68,0,1.24.46,1.24,1.08l.1,13.17c0,.62-.49,1.17-1.14,1.21h-.01Z"/>
              <path class="cls-2" d="M314.88,30.35c-.59-.23-.91-.88-.68-1.47l4.53-12.36c.23-.59.91-.91,1.53-.65.62.23.98.91.75,1.5l-4.66,12.33c-.23.59-.88.88-1.47.68v-.03Z"/>
              <path class="cls-2" d="M41.84,135.14c-.26.59-.95.82-1.5.52l-11.71-6.06c-.55-.29-.78-1.01-.49-1.63s1.01-.85,1.53-.55l11.64,6.16c.55.29.78,1.01.52,1.57h0Z"/>
              <path class="cls-2" d="M55.4,112.55c-.39.52-1.11.62-1.63.29l-10.89-7.4c-.52-.36-.62-1.08-.23-1.63.39-.55,1.17-.68,1.66-.33l10.83,7.5c.52.36.62,1.08.26,1.57Z"/>
            </g>
            <g>
              <path class="cls-2" d="M356.68,438.58s1.6-.98,4.63-2.8c3.03-1.86,7.56-4.4,12.75-8.54,5.22-4.08,12-8.44,18.62-14.9,3.39-3.13,7.08-6.36,10.83-9.94,3.49-3.81,7.14-7.83,10.96-12.03,14.74-17.18,29.61-39.49,40.17-65.83,10.66-26.28,16.79-56.47,16.82-86.73,0-30.26-6.16-60.45-16.82-86.73-10.56-26.38-25.43-48.65-40.17-65.83-3.81-4.17-7.47-8.22-10.96-12.03-3.75-3.55-7.43-6.81-10.83-9.91-6.59-6.46-13.4-10.86-18.62-14.9-5.18-4.14-9.72-6.68-12.75-8.51-3.03-1.86-4.63-2.84-4.63-2.84-1.14-.68-1.57-2.15-.91-3.23.62-1.11,2.09-1.4,3.26-.72,0,0,1.63,1.01,4.73,2.9s7.73,4.5,13.01,8.71c5.31,4.14,12.23,8.61,18.98,15.19,3.46,3.16,7.24,6.49,11.02,10.11,3.55,3.91,7.27,7.99,11.18,12.29,15,17.51,30.19,40.24,40.95,67.14,10.89,26.8,17.15,57.58,17.15,88.43s-6.26,61.63-17.15,88.43c-10.79,26.9-25.95,49.63-40.95,67.14-3.88,4.27-7.63,8.38-11.18,12.26-3.78,3.65-7.56,6.95-11.02,10.11-6.72,6.59-13.66,11.05-18.98,15.19-5.28,4.21-9.91,6.81-13.01,8.71-3.1,1.86-4.73,2.87-4.73,2.87-1.17.68-2.61.39-3.26-.72-.62-1.11-.23-2.54.91-3.26h0v-.03h0Z"/>
              <path class="cls-2" d="M345.27,419.34s1.47-.88,4.21-2.54,6.88-3.95,11.54-7.69c4.73-3.68,10.89-7.6,16.82-13.5,3.06-2.8,6.42-5.74,9.81-8.97,3.13-3.46,6.46-7.11,9.88-10.89,13.3-15.55,26.77-35.7,36.32-59.54,9.65-23.74,15.19-51,15.23-78.42,0-27.42-5.58-54.65-15.23-78.42-9.55-23.83-23.02-43.99-36.32-59.54-3.46-3.81-6.75-7.43-9.88-10.92-3.39-3.23-6.75-6.13-9.81-8.97-5.93-5.87-12.13-9.78-16.82-13.5-4.66-3.75-8.8-6.03-11.54-7.73-2.74-1.66-4.21-2.54-4.21-2.54-.52-.29-.68-1.01-.36-1.57s1.01-.72,1.53-.42c0,0,1.47.88,4.24,2.58,2.77,1.7,6.95,4.01,11.67,7.83,4.76,3.72,11.02,7.69,17.02,13.63,3.1,2.87,6.49,5.8,9.91,9.06,3.2,3.52,6.52,7.17,10.01,11.02,13.47,15.75,27.06,36.09,36.71,60.19,9.75,24,15.36,51.55,15.39,79.26,0,27.72-5.64,55.27-15.39,79.26-9.65,24.1-23.25,44.44-36.71,60.16-3.49,3.85-6.81,7.53-10.01,11.02-3.42,3.26-6.81,6.2-9.91,9.06-6,5.93-12.26,9.91-17.02,13.63-4.73,3.81-8.9,6.13-11.67,7.79-2.77,1.7-4.24,2.58-4.24,2.58-.52.33-1.21.13-1.53-.42s-.16-1.24.36-1.57v.07h0Z"/>
              <path class="cls-2" d="M368.71,59.37c-.52-.39-.62-1.11-.23-1.63l7.73-10.66c.36-.52,1.11-.59,1.66-.2.55.39.68,1.14.29,1.66l-7.86,10.56c-.39.52-1.11.62-1.6.23v.03h0Z"/>
              <path class="cls-2" d="M457.33,209.19c-.1-.62.33-1.21.98-1.27l13.07-1.76c.62-.07,1.21.39,1.3,1.08.1.68-.33,1.27-.95,1.34l-13.07,1.63c-.62.1-1.21-.36-1.3-1.01h-.03Z"/>
              <path class="cls-2" d="M441.55,324.91c.26-.55.98-.85,1.53-.59l12.13,5.12c.59.26.82.95.52,1.57s-1.01.88-1.6.65l-12.1-5.25c-.59-.26-.82-.91-.55-1.5h.07Z"/>
              <path class="cls-2" d="M431.09,345.97c.33-.55,1.04-.72,1.6-.42l11.51,6.39c.55.29.72,1.01.36,1.6s-1.08.78-1.63.49l-11.44-6.52c-.55-.33-.72-1.01-.39-1.53h0Z"/>
              <path class="cls-2" d="M379.24,408.28c.46-.42,1.17-.39,1.6.1l8.48,10.11c.39.49.33,1.24-.2,1.7-.49.49-1.27.39-1.66-.1l-8.38-10.21c-.39-.49-.29-1.17.16-1.6h0Z"/>
              <path class="cls-2" d="M424.83,119.33c-.33-.55-.16-1.27.36-1.6l11.09-7.11c.52-.36,1.27-.16,1.6.42.36.59.2,1.3-.33,1.66l-11.15,7.01c-.52.33-1.24.16-1.57-.39h0Z"/>
              <path class="cls-2" d="M437.57,142.38c-.26-.55-.03-1.27.52-1.53l11.87-5.77c.55-.26,1.27,0,1.57.62.29.59.07,1.3-.52,1.6l-11.9,5.64c-.59.26-1.27,0-1.53-.55h-.01Z"/>
            </g>
            <g>
              <path class="cls-2" d="M4.6,240.2s.39,7.56,1.04,20.77c.85,6.55,2.15,14.48,3.52,23.61,1.14,4.47,2.35,9.23,3.62,14.25.65,2.51,1.3,5.09,1.99,7.69.78,2.61,1.86,5.18,2.8,7.86,2.02,5.28,3.75,10.96,6.29,16.53,2.67,5.51,5.41,11.22,8.22,17.05,3.16,5.67,6.78,11.31,10.27,17.15,1.66,3,3.81,5.71,5.9,8.48,2.09,2.77,4.21,5.61,6.33,8.44,17.51,22.27,40.5,42.71,66.71,57.81,26.15,15.23,55.4,24.91,83.44,28.82,28.07,3.85,54.84,2.77,77.11-1.63,2.84-.33,5.51-1.08,8.12-1.76,2.61-.68,5.18-1.34,7.69-1.99,4.99-1.34,9.81-2.32,14.09-4.11,4.34-1.6,8.38-3.06,12.13-4.43,1.86-.72,3.68-1.3,5.38-2.02,1.63-.78,3.23-1.53,4.7-2.25,5.97-2.87,10.66-5.12,13.86-6.68,1.63-.72,2.74-1.5,3.52-1.96s1.17-.72,1.17-.72c1.14-.68,2.58-.36,3.23.72.62,1.08.2,2.54-.98,3.26,0,0-.39.26-1.21.72s-1.96,1.27-3.59,2.02c-3.26,1.57-8.05,3.88-14.12,6.81-1.53.72-3.13,1.5-4.79,2.32-1.73.72-3.59,1.34-5.48,2.05-3.81,1.4-7.96,2.9-12.36,4.5-4.34,1.83-9.26,2.84-14.35,4.21-2.58.65-5.18,1.34-7.86,2.02-2.67.68-5.41,1.47-8.28,1.79-22.69,4.5-49.98,5.61-78.61,1.66s-58.43-13.86-85.1-29.38c-26.74-15.39-50.15-36.23-68.02-58.95-2.18-2.9-4.3-5.77-6.42-8.61-2.12-2.87-4.3-5.61-6-8.67-3.59-5.97-7.27-11.71-10.47-17.48-2.87-5.97-5.67-11.77-8.38-17.41-2.58-5.67-4.37-11.44-6.42-16.86-.98-2.71-2.02-5.35-2.84-7.99-.68-2.67-1.37-5.28-2.02-7.86-1.3-5.12-2.54-9.94-3.68-14.51-1.4-9.29-2.74-17.38-3.59-24.06C.39,247.96,0,240.23,0,240.23c-.07-1.37.91-2.48,2.18-2.48s2.35,1.11,2.41,2.41v.03h0Z"/>
              <path class="cls-2" d="M26.94,239.97s.36,6.85.95,18.78c.88,5.93,1.96,13.11,3.2,21.36,1.04,4.04,2.12,8.31,3.29,12.85.55,2.25,1.17,4.6,1.76,6.95.72,2.35,1.7,4.66,2.54,7.08,1.86,4.76,3.39,9.91,5.67,14.93,2.41,4.99,4.89,10.14,7.43,15.42,2.87,5.12,6.16,10.21,9.29,15.49,1.47,2.74,3.46,5.15,5.35,7.69,1.89,2.51,3.78,5.05,5.71,7.63,15.85,20.15,36.65,38.64,60.35,52.3,23.67,13.76,50.05,22.53,75.42,26.02,25.4,3.46,49.66,2.51,69.74-1.47,2.54-.26,4.99-.98,7.34-1.6,2.38-.62,4.7-1.21,6.95-1.79,4.5-1.21,8.87-2.09,12.75-3.68,3.91-1.43,7.56-2.77,10.96-4.01,1.7-.65,3.36-1.17,4.86-1.79,1.5-.72,2.9-1.43,4.24-2.05,5.41-2.61,9.62-4.63,12.52-6.03,1.47-.62,2.48-1.37,3.2-1.76.72-.42,1.08-.65,1.08-.65.52-.33,1.17-.13,1.5.42s.13,1.27-.36,1.57c0,0-.36.23-1.08.65-.72.42-1.73,1.14-3.23,1.79-2.93,1.4-7.21,3.46-12.65,6.1-1.37.65-2.8,1.34-4.3,2.09-1.53.65-3.2,1.21-4.92,1.83-3.42,1.24-7.14,2.61-11.09,4.08-3.88,1.63-8.31,2.51-12.88,3.75-2.28.59-4.63,1.21-7.04,1.79-2.41.62-4.83,1.34-7.43,1.6-20.35,4.04-44.87,4.99-70.53,1.5-25.66-3.55-52.33-12.42-76.23-26.31-23.97-13.79-45-32.48-61.01-52.85-1.96-2.61-3.85-5.18-5.77-7.73-1.92-2.54-3.88-5.02-5.38-7.76-3.2-5.38-6.52-10.5-9.39-15.68-2.58-5.35-5.09-10.56-7.53-15.59-2.32-5.05-3.88-10.27-5.74-15.1-.85-2.45-1.83-4.79-2.58-7.17-.62-2.38-1.21-4.76-1.79-7.04-1.17-4.56-2.28-8.93-3.33-13.01-1.21-8.35-2.45-15.59-3.23-21.59-.62-12.1-.95-19.01-.95-19.01,0-.62.46-1.11,1.11-1.11s1.17.49,1.21,1.11l.03.03v-.03h0Z"/>
              <path class="cls-2" d="M327.14,440.4c.55-.26,1.24-.03,1.5.55l5.38,12.03c.26.59,0,1.27-.65,1.57-.62.29-1.3.07-1.57-.52l-5.25-12.1c-.23-.59,0-1.27.59-1.53h0Z"/>
              <path class="cls-2" d="M152.92,442.26c.59.23.88.88.65,1.43l-4.99,12.19c-.23.59-.95.88-1.6.62-.62-.23-.95-.88-.72-1.47l5.12-12.13c.23-.59.95-.88,1.53-.65h.01Z"/>
              <path class="cls-2" d="M60.91,370.4c.39.52.29,1.24-.23,1.6l-10.5,7.96c-.52.39-1.24.26-1.63-.29s-.33-1.3.2-1.7l10.6-7.86c.52-.36,1.24-.26,1.6.23l-.03.07h0Z"/>
              <path class="cls-2" d="M47.8,350.87c.33.55.16,1.24-.39,1.57l-11.28,6.81c-.52.33-1.27.13-1.63-.46s-.2-1.3.36-1.63l11.35-6.68c.55-.33,1.24-.13,1.6.39h0Z"/>
              <path class="cls-2" d="M19.86,274.89c.1.62-.33,1.21-.95,1.34l-12.98,2.28c-.62.1-1.21-.36-1.3-1.01-.1-.68.33-1.3.95-1.4l13.01-2.12c.62-.1,1.21.33,1.3.95l-.03-.03h0Z"/>
              <path class="cls-2" d="M247.12,458.76c.62,0,1.17.46,1.21,1.08l.62,13.17c0,.62-.49,1.17-1.17,1.21-.68,0-1.24-.46-1.27-1.08l-.46-13.17c0-.65.46-1.17,1.11-1.21h-.04Z"/>
              <path class="cls-2" d="M220.75,458.37c.62.03,1.11.55,1.08,1.21l-.95,13.14c-.03.62-.62,1.11-1.3,1.08s-1.17-.55-1.14-1.21l1.08-13.14c.07-.62.62-1.14,1.24-1.11v.03h-.01Z"/>
            </g>
          </g>
        </g>
        <g>
          <path class="cls-1" d="M185.03,141.51c0-3.13,1.95-5.93,4.89-7.01l40.91-15.03c2.85-1.05,2.1-5.28-.94-5.28h-101.72c-5.63,0-10.19,4.56-10.19,10.19v211.34c0,5.63,4.56,10.19,10.19,10.19h54.14c1.5,0,2.72-1.22,2.72-2.72v-201.68h0Z"/>
          <path class="cls-1" d="M354.22,148.98h-146.2c-4.45,0-8.06,3.61-8.06,8.06v204.57c0,4.14,3.35,7.49,7.49,7.49h146.74c4.14,0,7.49-3.35,7.49-7.49v-205.16c0-4.12-3.35-7.47-7.47-7.47h.01ZM226.99,184.39h36.81c4.03,0,7.52,3.1,7.69,7.13.19,4.28-3.22,7.81-7.46,7.81h-36.81c-4.03,0-7.52-3.1-7.69-7.13-.19-4.28,3.22-7.81,7.46-7.81h0ZM226.99,217.98h36.81c4.03,0,7.52,3.1,7.69,7.13.19,4.28-3.22,7.81-7.46,7.81h-36.81c-4.03,0-7.52-3.1-7.69-7.13-.19-4.28,3.22-7.81,7.46-7.81h0ZM334.67,333.69h-107.45c-4.03,0-7.52-3.1-7.69-7.13-.19-4.28,3.22-7.81,7.46-7.81h107.45c4.03,0,7.52,3.1,7.69,7.13.19,4.28-3.22,7.81-7.46,7.81ZM334.67,300.1h-107.45c-4.03,0-7.52-3.1-7.69-7.13-.19-4.28,3.22-7.81,7.46-7.81h107.45c4.03,0,7.52,3.1,7.69,7.13.19,4.28-3.22,7.81-7.46,7.81ZM334.67,266.51h-107.45c-4.03,0-7.52-3.1-7.69-7.13-.19-4.28,3.22-7.81,7.46-7.81h107.45c4.03,0,7.52,3.1,7.69,7.13.19,4.28-3.22,7.81-7.46,7.81ZM342.14,225.42c0,4.14-3.35,7.49-7.49,7.49h-37c-4.14,0-7.49-3.35-7.49-7.49v-33.54c0-4.14,3.35-7.49,7.49-7.49h37c4.14,0,7.49,3.35,7.49,7.49v33.54h0Z"/>
          <path class="cls-1" d="M231.31,125.28l-26.45,9.72c-4.37,1.6-3.22,8.07,1.44,8.07h26.45c2.3,0,4.16-1.86,4.16-4.16v-9.72c0-2.9-2.88-4.91-5.6-3.91Z"/>
          <path class="cls-1" d="M305.12,199.32h22.06s.03,0,.03.03v18.61s-.01.03-.03.03h-22.06s-.03,0-.03-.03v-18.61s.01-.03.03-.03Z"/>
        </g>
      </g>
    </g>
  </g>
</svg>