<?xml version="1.0" encoding="UTF-8"?>
<svg id="Layer_2" data-name="Layer 2" xmlns="http://www.w3.org/2000/svg" viewBox="0 0 41.97 41.94">
  <defs>
    <style>
      .cls-1 {
        fill: #606060;
      }

      .cls-2 {
        fill: #ea2224;
      }
    </style>
  </defs>
  <g id="Layer_2-2" data-name="Layer 2">
    <g>
      <g id="Layer_1-2" data-name="Layer 1-2">
        <g>
          <g>
            <path class="cls-1" d="M31.09,3.04s-.04-.02-.1-.06c-.07-.04-.17-.11-.31-.17-.28-.14-.69-.33-1.22-.59-.13-.06-.27-.13-.41-.2-.15-.06-.31-.12-.47-.18-.33-.12-.69-.25-1.07-.39-.38-.16-.8-.24-1.24-.36-.22-.06-.45-.11-.68-.17s-.47-.13-.72-.16c-1.96-.39-4.32-.48-6.8-.14-2.47.34-5.05,1.2-7.36,2.54-2.31,1.33-4.34,3.13-5.88,5.1-.19.25-.37.5-.56.74-.18.25-.37.49-.52.75-.31.52-.63,1.01-.91,1.51-.25.52-.49,1.02-.72,1.5-.22.49-.38.99-.56,1.46-.08.24-.18.46-.25.69-.06.23-.12.46-.18.68-.11.44-.22.86-.32,1.25-.12.8-.24,1.5-.31,2.08-.06,1.16-.09,1.83-.09,1.83,0,.12-.1.21-.21.21S0,20.86.01,20.74c0,0,.03-.68.09-1.87.08-.59.19-1.3.32-2.12.1-.4.21-.83.33-1.28.06-.23.12-.46.18-.69.07-.23.17-.46.25-.71.18-.48.34-.99.57-1.49.24-.5.49-1.01.74-1.53.28-.51.61-1.02.92-1.54.15-.27.34-.51.53-.76.19-.25.38-.5.57-.76,1.57-2,3.64-3.84,6-5.2C12.84,1.43,15.47.56,18,.21c2.52-.35,4.93-.25,6.93.15.25.03.5.1.73.16.24.06.47.12.69.18.45.12.88.21,1.27.37.39.14.75.28,1.09.4.17.06.33.12.48.18.15.07.29.14.42.2.54.26.96.46,1.24.6.15.06.25.14.32.18s.11.06.11.06c.1.06.14.19.09.29-.06.1-.18.12-.28.06Z"/>
            <path class="cls-1" d="M30.12,4.76s-.03-.02-.09-.06-.15-.1-.28-.16c-.25-.12-.63-.3-1.1-.53-.12-.06-.24-.12-.37-.18-.13-.06-.28-.1-.43-.16-.3-.11-.62-.23-.97-.35-.34-.14-.72-.22-1.12-.33-.2-.05-.4-.1-.61-.16-.21-.05-.42-.12-.65-.14-1.77-.35-3.91-.44-6.15-.13s-4.56,1.08-6.65,2.3c-2.09,1.2-3.92,2.84-5.32,4.61-.17.23-.34.45-.5.67-.17.22-.34.44-.47.68-.28.47-.57.92-.82,1.37-.22.47-.44.92-.65,1.36-.2.44-.34.9-.5,1.32-.08.21-.16.42-.22.63-.05.21-.11.41-.16.61-.1.4-.2.78-.29,1.13-.11.73-.2,1.36-.28,1.88-.05,1.06-.08,1.66-.08,1.66,0,.05-.05.1-.11.1s-.1-.04-.1-.1c0,0,.03-.61.08-1.68.07-.53.18-1.17.28-1.9.09-.36.19-.74.29-1.15.05-.2.1-.41.16-.62.06-.21.15-.42.23-.63.17-.42.3-.88.51-1.33.21-.44.44-.9.66-1.38.25-.46.55-.91.83-1.38.13-.24.31-.46.48-.68s.34-.45.51-.68c1.41-1.8,3.27-3.44,5.38-4.66,2.11-1.23,4.46-2.01,6.72-2.32,2.26-.31,4.43-.22,6.22.13.23.03.44.09.65.14.21.05.42.11.62.16.4.11.79.18,1.13.33.35.13.67.25.98.36.15.06.3.11.43.16.13.06.26.12.38.18.48.23.86.41,1.12.54.13.06.22.12.28.16.06.04.1.06.1.06.05.03.06.09.03.14-.03.05-.09.07-.13.04h-.02Z"/>
            <path class="cls-1" d="M1.58,18.85c0,.06-.06.1-.12.09l-1.16-.12c-.06,0-.09-.06-.08-.12,0-.06.06-.1.12-.1l1.15.13c.06,0,.09.06.09.11h0Z"/>
            <path class="cls-1" d="M9.13,5.48s-.11.02-.14-.02l-.71-.92s-.02-.11.02-.14c.05-.04.11-.03.15.02l.7.93s.02.11-.02.14h0Z"/>
            <path class="cls-1" d="M18.66,1.59s-.11-.03-.11-.09l-.14-1.15c0-.06.04-.11.09-.12.06,0,.11.03.12.08l.13,1.15c0,.06-.03.11-.09.12h0Z"/>
            <path class="cls-1" d="M20.73,1.46c-.06,0-.1-.04-.1-.1l-.02-1.16c0-.06.05-.1.11-.11.06,0,.11.04.11.1v1.16c0,.06-.04.1-.09.11h-.01Z"/>
            <path class="cls-1" d="M27.77,2.68s-.08-.08-.06-.13l.4-1.09s.08-.08.14-.06c.06.02.09.08.07.13l-.41,1.09s-.08.08-.13.06h-.01Z"/>
            <path class="cls-1" d="M3.69,11.92c-.02.05-.08.07-.13.05l-1.03-.53s-.07-.09-.04-.14.09-.08.14-.05l1.03.54s.07.09.05.14h-.02Z"/>
            <path class="cls-1" d="M4.88,9.92s-.1.06-.14.03l-.96-.65s-.05-.09-.02-.14c.04-.05.1-.06.15-.03l.95.66s.06.09.02.14h0Z"/>
          </g>
          <g>
            <path class="cls-1" d="M31.45,38.67s.14-.09.41-.25.67-.39,1.13-.75c.46-.36,1.06-.74,1.64-1.31.3-.28.62-.56.95-.88.31-.34.63-.69.96-1.06,1.3-1.51,2.61-3.48,3.54-5.81.94-2.32,1.48-4.98,1.48-7.65s-.54-5.33-1.48-7.65c-.93-2.33-2.24-4.29-3.54-5.81-.34-.37-.66-.72-.96-1.06-.33-.31-.65-.6-.95-.87-.58-.57-1.18-.96-1.64-1.32s-.86-.59-1.13-.75c-.27-.16-.41-.25-.41-.25-.1-.06-.14-.19-.08-.29s.18-.12.29-.06c0,0,.15.09.42.25.27.17.68.4,1.15.77.47.36,1.08.76,1.67,1.34.31.28.64.57.97.89.31.34.64.71.98,1.08,1.32,1.54,2.66,3.55,3.61,5.92.96,2.36,1.51,5.08,1.51,7.8s-.55,5.44-1.51,7.8c-.95,2.37-2.29,4.37-3.61,5.92-.34.38-.67.74-.98,1.08-.33.32-.67.61-.97.89-.59.58-1.2.98-1.67,1.34-.47.37-.87.6-1.15.77-.27.16-.42.25-.42.25-.1.06-.23.03-.29-.06-.06-.1-.02-.22.08-.29v.02Z"/>
            <path class="cls-1" d="M30.45,36.98s.13-.08.37-.22c.24-.15.61-.35,1.02-.68.42-.33.96-.67,1.48-1.19.27-.25.57-.51.86-.79.28-.31.57-.63.87-.96,1.17-1.37,2.36-3.15,3.2-5.25.85-2.09,1.34-4.5,1.34-6.91s-.49-4.82-1.34-6.91c-.84-2.1-2.03-3.88-3.2-5.25-.3-.34-.6-.66-.87-.96-.3-.28-.59-.54-.86-.79-.52-.52-1.07-.86-1.48-1.19s-.78-.53-1.02-.68c-.24-.15-.37-.22-.37-.22-.05-.03-.06-.09-.03-.14.03-.05.09-.06.13-.04,0,0,.13.08.37.23.24.15.61.35,1.03.69.42.33.97.68,1.5,1.2.27.25.57.51.87.8.28.31.57.63.88.97,1.19,1.39,2.39,3.18,3.24,5.31.86,2.12,1.35,4.55,1.36,6.99,0,2.44-.5,4.87-1.36,6.99-.85,2.12-2.05,3.92-3.24,5.31-.31.34-.6.66-.88.97-.3.29-.6.55-.87.8-.53.52-1.08.87-1.5,1.2-.42.33-.78.54-1.03.69-.24.15-.37.23-.37.23-.05.03-.11,0-.13-.04-.03-.05-.01-.11.03-.14v-.02Z"/>
            <path class="cls-1" d="M32.51,5.24s-.06-.1-.02-.14l.68-.94s.1-.05.15-.02c.05.04.06.1.03.15l-.69.93s-.1.05-.14.02h-.01Z"/>
            <path class="cls-1" d="M40.33,18.45s.03-.11.09-.11l1.15-.16s.11.03.12.09c0,.06-.03.11-.08.12l-1.15.14c-.06,0-.11-.03-.12-.09h0Z"/>
            <path class="cls-1" d="M38.94,28.65s.09-.07.14-.05l1.07.45s.07.08.05.14c-.03.05-.09.08-.14.06l-1.07-.46s-.07-.08-.05-.13h0Z"/>
            <path class="cls-1" d="M38.01,30.51s.09-.06.14-.04l1.02.56s.06.09.03.14c-.03.05-.09.07-.14.04l-1.01-.57s-.06-.09-.04-.14h0Z"/>
            <path class="cls-1" d="M33.44,36s.1-.03.14,0l.75.89s.03.11-.02.15c-.04.04-.11.03-.15,0l-.74-.9s-.03-.1,0-.14h.01Z"/>
            <path class="cls-1" d="M37.46,10.52s0-.11.03-.14l.98-.63s.11-.01.14.04.02.12-.03.15l-.98.62s-.11.01-.14-.03h0Z"/>
            <path class="cls-1" d="M38.58,12.56c-.02-.05,0-.11.05-.13l1.05-.51s.11,0,.14.05,0,.12-.04.14l-1.05.5s-.11,0-.14-.05h0Z"/>
          </g>
          <g>
            <path class="cls-1" d="M.4,21.18s.03.67.09,1.83c.07.58.19,1.28.31,2.08.1.39.21.81.32,1.26.06.22.12.45.18.68.07.23.16.46.25.69.18.47.33.97.56,1.46.23.49.48.99.72,1.5.28.5.6,1,.91,1.51.15.26.34.5.52.75.18.25.37.49.56.74,1.54,1.96,3.57,3.77,5.88,5.1,2.31,1.34,4.88,2.2,7.36,2.54,2.48.34,4.84.24,6.8-.14.25-.03.48-.1.72-.16.23-.06.46-.12.68-.17.44-.12.87-.2,1.24-.36.38-.14.74-.27,1.07-.39.16-.06.33-.12.47-.18.15-.07.28-.14.41-.2.53-.25.94-.45,1.22-.59.14-.06.24-.13.31-.17.07-.04.1-.06.1-.06.1-.06.23-.03.28.06.06.1.02.23-.09.29,0,0-.04.02-.11.06s-.17.11-.32.18c-.29.14-.71.34-1.24.6-.13.06-.28.13-.42.2-.15.06-.31.12-.48.18-.34.12-.7.26-1.09.4-.38.16-.82.25-1.27.37-.23.06-.46.12-.69.18-.24.06-.48.13-.73.16-2,.4-4.41.49-6.93.15-2.52-.35-5.15-1.22-7.5-2.59-2.36-1.36-4.42-3.2-6-5.2-.19-.26-.38-.51-.57-.76-.19-.25-.38-.49-.53-.76-.32-.53-.64-1.03-.92-1.54-.25-.53-.5-1.04-.74-1.53-.23-.5-.38-1.01-.57-1.49-.09-.24-.18-.47-.25-.71-.06-.24-.12-.47-.18-.69-.11-.45-.22-.88-.33-1.28-.12-.82-.24-1.53-.32-2.12-.05-1.2-.08-1.87-.08-1.87,0-.12.08-.22.19-.22s.21.1.21.21Z"/>
            <path class="cls-1" d="M2.38,21.16s.03.6.08,1.66c.08.52.17,1.16.28,1.88.09.36.19.73.29,1.13.05.2.1.41.16.61.06.21.15.41.22.63.16.42.3.88.5,1.32.21.44.43.89.65,1.36.25.45.54.9.82,1.37.13.24.3.45.47.68.17.22.33.45.5.67,1.4,1.78,3.23,3.41,5.32,4.61,2.09,1.21,4.41,1.99,6.65,2.3,2.24.31,4.38.22,6.15-.13.23-.02.44-.09.65-.14s.41-.11.61-.16c.4-.11.78-.18,1.12-.33.34-.13.67-.25.97-.35.15-.06.3-.1.43-.16.13-.06.26-.13.37-.18.48-.23.85-.41,1.1-.53.13-.06.22-.12.28-.16.06-.04.09-.06.09-.06.05-.03.1,0,.13.04.03.05.01.11-.03.14,0,0-.03.02-.1.06-.06.04-.15.1-.28.16-.26.12-.63.31-1.12.54-.12.06-.25.12-.38.18-.14.06-.28.11-.43.16-.3.11-.63.23-.98.36-.34.15-.73.22-1.13.33-.2.05-.41.11-.62.16-.21.06-.43.12-.65.14-1.79.36-3.96.44-6.22.13-2.26-.31-4.61-1.09-6.72-2.32-2.11-1.22-3.97-2.86-5.38-4.66-.17-.23-.34-.46-.51-.68-.17-.23-.34-.44-.48-.68-.28-.47-.57-.93-.83-1.38-.23-.47-.45-.93-.66-1.37-.2-.45-.34-.91-.51-1.33-.08-.22-.16-.42-.23-.63-.05-.21-.11-.42-.16-.62-.1-.4-.2-.79-.29-1.15-.11-.74-.21-1.37-.28-1.9-.05-1.07-.08-1.68-.08-1.68,0-.05.04-.1.1-.1s.1.04.11.1l.02-.02Z"/>
            <path class="cls-1" d="M28.85,38.84s.11,0,.13.05l.47,1.06s0,.11-.06.14c-.05.03-.12,0-.14-.05l-.46-1.07s0-.11.05-.14h.01Z"/>
            <path class="cls-1" d="M13.49,39c.05.02.08.08.06.13l-.44,1.08s-.08.08-.14.06-.08-.08-.06-.13l.45-1.07s.08-.08.13-.06h0Z"/>
            <path class="cls-1" d="M5.37,32.66s.02.11-.02.14l-.93.7s-.11.02-.15-.02c-.04-.05-.03-.11.02-.15l.93-.69s.11-.02.14.02h.01Z"/>
            <path class="cls-1" d="M4.22,30.94s.01.11-.03.14l-1,.6s-.11.01-.14-.04-.02-.12.03-.14l1-.59s.11-.01.14.04h0Z"/>
            <path class="cls-1" d="M1.75,24.24s-.03.11-.08.12l-1.14.2c-.05,0-.11-.03-.12-.09,0-.06.03-.11.08-.12l1.15-.19c.06,0,.11.03.11.08Z"/>
            <path class="cls-1" d="M21.79,40.46c.06,0,.1.04.11.1l.05,1.16c0,.06-.04.1-.1.11-.06,0-.11-.04-.11-.1l-.04-1.16c0-.06.04-.1.1-.11h0Z"/>
            <path class="cls-1" d="M19.47,40.42c.06,0,.1.05.09.11l-.08,1.16c0,.06-.06.1-.11.09-.06,0-.1-.05-.1-.11l.1-1.16c0-.06.05-.1.11-.1h-.01Z"/>
          </g>
        </g>
      </g>
      <g id="Layer_1-2-2" data-name="Layer 1-2">
        <g>
          <path class="cls-2" d="M12.76,16.8c1.42,0,2.72-.77,3.38-2.02.34-.64,1.1-1.05,1.93-1.05h1.66c.83,0,1.59.41,1.93,1.05.67,1.25,1.97,2.02,3.38,2.02,2.12,0,3.84-1.73,3.84-3.84s-1.72-3.84-3.84-3.84c-1.42,0-2.72.77-3.38,2.02-.34.64-1.1,1.05-1.93,1.05h-1.66c-.83,0-1.59-.41-1.93-1.05-.67-1.25-1.97-2.02-3.39-2.02-2.12,0-3.89,1.73-3.89,3.84s1.78,3.84,3.89,3.84h0Z"/>
          <path class="cls-2" d="M12.76,32.17c1.42,0,2.72-.77,3.38-2.02.34-.64,1.1-1.05,1.93-1.05h1.66c.83,0,1.59.41,1.93,1.05.67,1.25,1.97,2.02,3.38,2.02,2.12,0,3.84-1.73,3.84-3.84s-1.73-3.84-3.84-3.84c-1.42,0-2.72.77-3.38,2.02-.34.64-1.1,1.05-1.93,1.05h-1.66c-.83,0-1.59-.41-1.93-1.05-.67-1.25-1.97-2.02-3.38-2.02-2.12,0-3.89,1.73-3.89,3.84s1.78,3.84,3.89,3.84Z"/>
          <path class="cls-2" d="M27.82,18.83c-.34.64-1.1,1.05-1.93,1.05h-1.66c-.83,0-1.59-.41-1.93-1.05-.67-1.25-1.97-2.02-3.38-2.02-2.12,0-3.84,1.73-3.84,3.84s1.73,3.84,3.84,3.84c1.42,0,2.72-.77,3.38-2.02.34-.64,1.1-1.05,1.93-1.05h1.66c.83,0,1.59.41,1.93,1.05.67,1.25,1.97,2.02,3.38,2.02,2.12,0,3.89-1.73,3.89-3.84s-1.78-3.84-3.89-3.84c-1.42,0-2.72.77-3.38,2.02h0Z"/>
        </g>
      </g>
    </g>
  </g>
</svg>