<?xml version="1.0" encoding="UTF-8"?>
<svg id="Layer_2" data-name="Layer 2" xmlns="http://www.w3.org/2000/svg" viewBox="0 0 92.46 80.21">
  <g id="Layer_1-2" data-name="Layer 1">
    <g>
      <path d="M45.89,0h0c-2.14,0-3.88,1.74-3.88,3.88v72.45c0,2.14,1.74,3.88,3.88,3.88h0c2.14,0,3.88-1.74,3.88-3.88V3.88c0-2.14-1.74-3.88-3.88-3.88Z"/>
      <path d="M56.56,13.64c-2.14,0-3.88,1.74-3.88,3.88v45.16c0,2.14,1.74,3.88,3.88,3.88s3.88-1.74,3.88-3.88V17.52c0-2.14-1.74-3.88-3.88-3.88Z"/>
      <path d="M67.23,29.38h0c-2.14,0-3.88,1.74-3.88,3.88v13.68c0,2.14,1.74,3.88,3.88,3.88h0c2.14,0,3.88-1.74,3.88-3.88v-13.68c0-2.14-1.74-3.88-3.88-3.88Z"/>
      <path d="M77.9,25.28h0c-2.14,0-3.88,1.74-3.88,3.88v21.88c0,2.14,1.74,3.88,3.88,3.88h0c2.14,0,3.88-1.74,3.88-3.88v-21.88c0-2.14-1.74-3.88-3.88-3.88Z"/>
      <path d="M88.58,35.29c-2.14,0-3.88,1.74-3.88,3.88v1.88c0,2.14,1.74,3.88,3.88,3.88s3.88-1.74,3.88-3.88v-1.88c0-2.14-1.74-3.88-3.88-3.88Z"/>
      <path d="M3.88,35.29c-2.14,0-3.88,1.74-3.88,3.88v1.88c0,2.14,1.74,3.88,3.88,3.88s3.88-1.74,3.88-3.88v-1.88c0-2.14-1.74-3.88-3.88-3.88Z"/>
      <path d="M35.22,25.28c-2.14,0-3.88,1.74-3.88,3.88v21.88c0,2.14,1.74,3.88,3.88,3.88s3.88-1.74,3.88-3.88v-21.88c0-2.14-1.74-3.88-3.88-3.88Z"/>
      <rect x="20.66" y="13.64" width="7.76" height="52.92" rx="3.88" ry="3.88"/>
      <path d="M13.87,25.28h0c-2.14,0-3.88,1.74-3.88,3.88v21.88c0,2.14,1.74,3.88,3.88,3.88h0c2.14,0,3.88-1.74,3.88-3.88v-21.88c0-2.14-1.74-3.88-3.88-3.88Z"/>
    </g>
  </g>
</svg>