<?xml version="1.0" encoding="UTF-8"?>
<svg id="Layer_2" data-name="Layer 2" xmlns="http://www.w3.org/2000/svg" viewBox="0 0 309.16 309.21">
  <defs>
    <style>
      .cls-1 {
        fill: #fff;
      }
    </style>
  </defs>
  <g id="Layer_1-2" data-name="Layer 1">
    <g>
      <path class="cls-1" d="M154.03,138.64c.03-3.3.24-7.01.56-11.05.37-4.03.84-8.39,1.65-12.95.73-4.57,1.84-9.32,3.15-14.17.75-2.4,1.41-4.87,2.34-7.28.45-1.21.85-2.44,1.34-3.65.51-1.2,1.02-2.4,1.53-3.61.48-1.22,1.07-2.4,1.66-3.58.59-1.18,1.15-2.38,1.78-3.54,1.37-2.26,2.55-4.64,4.12-6.78l2.23-3.27,2.46-3.09,1.22-1.54,1.33-1.43c.89-.95,1.77-1.9,2.66-2.84.9-.92,1.9-1.74,2.84-2.6.97-.83,1.84-1.76,2.88-2.49,1.01-.76,2.01-1.51,3-2.25l1.48-1.12,1.57-.97c2.1-1.26,4.07-2.63,6.23-3.6,2.11-1.03,4.12-2.15,6.25-2.88,1.04-.41,2.07-.81,3.08-1.2.51-.2,1.01-.39,1.5-.59.52-.15,1.03-.3,1.53-.45,2.02-.59,3.98-1.16,5.86-1.71,1.92-.39,3.76-.76,5.52-1.11.87-.18,1.73-.35,2.55-.51.84-.1,1.66-.2,2.46-.29,3.18-.33,5.91-.82,8.23-.82,4.59-.2,7.21-.32,7.21-.32l-.29-8.52s-2.78.26-7.66.71c-2.44.13-5.37.78-8.74,1.31-.84.14-1.71.29-2.6.44-.88.22-1.79.45-2.72.68-1.86.47-3.81.97-5.85,1.49-2,.69-4.07,1.41-6.22,2.15-.54.19-1.08.38-1.62.57-.53.24-1.06.47-1.6.71-1.07.48-2.16.97-3.27,1.46-2.25.9-4.37,2.22-6.6,3.45-2.26,1.16-4.34,2.74-6.53,4.21-.54.37-1.09.75-1.63,1.13-.51.42-1.03.85-1.54,1.28-1.03.86-2.06,1.72-3.11,2.58-1.07.83-1.96,1.88-2.96,2.82-.96.98-1.97,1.9-2.89,2.93-.89,1.05-1.79,2.1-2.68,3.16l-1.34,1.59-1.22,1.69-2.43,3.39-2.18,3.56c-1.52,2.33-2.65,4.87-3.95,7.3-.59,1.24-1.11,2.52-1.67,3.77-.55,1.25-1.1,2.5-1.54,3.78-.47,1.27-.93,2.54-1.39,3.8-.44,1.27-.79,2.56-1.19,3.82-.83,2.52-1.38,5.08-2.02,7.57-1.1,5.02-1.99,9.9-2.5,14.56-.59,4.65-.85,9.08-1.02,13.16-.11,4.08-.14,7.82-.01,11.13.09,3.31.29,6.19.48,8.56.41,4.73.85,7.41.85,7.41,0,0-.31-2.7-.48-7.43-.07-2.37-.13-5.24-.06-8.54Z"/>
      <path class="cls-1" d="M158.84,139.2c1.02-3.14,2.33-6.61,3.84-10.37,1.56-3.74,3.31-7.76,5.45-11.87,2.06-4.14,4.55-8.34,7.25-12.58,1.44-2.06,2.8-4.23,4.41-6.25.79-1.02,1.55-2.08,2.37-3.08.84-.99,1.69-1.99,2.54-2.99.82-1.02,1.74-1.97,2.66-2.91.92-.94,1.81-1.92,2.76-2.85,1.98-1.75,3.83-3.67,5.96-5.24l3.11-2.45,3.27-2.21,1.62-1.1,1.7-.97c1.13-.64,2.26-1.28,3.38-1.91,1.14-.61,2.33-1.09,3.48-1.64,1.17-.5,2.28-1.13,3.49-1.51,1.19-.42,2.37-.84,3.54-1.25l1.75-.62,1.79-.45c2.38-.58,4.67-1.3,7.02-1.57,2.33-.35,4.57-.82,6.82-.88,1.12-.08,2.22-.15,3.3-.23.54-.04,1.08-.07,1.61-.11.54,0,1.07.02,1.6.03,2.11.04,4.14.08,6.1.12,1.95.21,3.82.4,5.6.59.89.09,1.75.19,2.59.27.83.16,1.65.31,2.43.46,3.13.63,5.89.98,8.1,1.67,4.44,1.18,6.98,1.85,6.98,1.85l2.27-8.21s-2.73-.59-7.52-1.61c-2.37-.61-5.36-.86-8.73-1.36-.84-.11-1.72-.23-2.61-.36-.91-.05-1.84-.11-2.8-.16-1.92-.1-3.93-.21-6.03-.33-2.11.06-4.31.12-6.58.19-.57.02-1.14.04-1.72.06-.58.07-1.16.13-1.74.2-1.17.14-2.35.28-3.56.42-2.41.19-4.84.81-7.33,1.32-2.51.43-4.97,1.31-7.49,2.07l-1.9.59-1.85.76c-1.24.51-2.48,1.02-3.74,1.54-1.27.48-2.43,1.21-3.66,1.8-1.21.65-2.45,1.23-3.64,1.93-1.16.74-2.33,1.47-3.51,2.21l-1.75,1.12-1.67,1.25-3.33,2.51-3.14,2.74c-2.15,1.77-3.99,3.86-5.95,5.78-.94,1.01-1.81,2.07-2.72,3.1-.9,1.03-1.8,2.05-2.6,3.15-.83,1.08-1.65,2.15-2.47,3.21-.8,1.08-1.52,2.2-2.28,3.29-1.55,2.16-2.83,4.44-4.19,6.61-2.55,4.46-4.86,8.85-6.74,13.15-1.95,4.26-3.52,8.41-4.91,12.25-1.33,3.86-2.48,7.42-3.34,10.62-.9,3.19-1.57,5.99-2.1,8.31-1.03,4.64-1.41,7.32-1.41,7.32,0,0,.51-2.67,1.76-7.24.64-2.28,1.44-5.04,2.49-8.17Z"/>
      <path class="cls-1" d="M161.3,140.11c1.52-2.93,3.38-6.14,5.48-9.61,2.15-3.43,4.54-7.11,7.31-10.82,2.71-3.75,5.85-7.49,9.21-11.23,1.75-1.8,3.45-3.71,5.37-5.44.94-.88,1.86-1.8,2.84-2.66.99-.84,1.99-1.69,2.99-2.53.98-.87,2.04-1.65,3.1-2.44,1.06-.78,2.1-1.6,3.18-2.36,2.24-1.4,4.37-2.99,6.73-4.2l3.47-1.91,3.58-1.65,1.78-.82,1.84-.68c1.22-.45,2.44-.89,3.65-1.33,1.22-.41,2.48-.69,3.71-1.04,1.24-.3,2.44-.74,3.69-.92,1.24-.22,2.47-.44,3.7-.66l1.82-.33,1.84-.16c2.44-.18,4.82-.52,7.18-.4,2.35.04,4.65-.06,6.88.25,1.11.11,2.21.21,3.3.32.54.05,1.08.1,1.61.15.53.1,1.05.19,1.57.29,2.07.39,4.07.76,6,1.12,1.89.52,3.7,1.02,5.42,1.5.86.24,1.7.47,2.51.69.8.29,1.57.57,2.32.85,2.99,1.14,5.65,1.93,7.71,2.98,4.19,1.89,6.58,2.97,6.58,2.97l3.59-7.73s-2.6-1.03-7.16-2.82c-2.23-.98-5.15-1.73-8.39-2.77-.81-.25-1.66-.51-2.52-.78-.89-.2-1.8-.41-2.74-.62-1.87-.42-3.84-.85-5.9-1.31-2.09-.28-4.27-.58-6.53-.89-.56-.07-1.13-.15-1.7-.22-.58-.03-1.16-.06-1.75-.09-1.18-.06-2.37-.11-3.58-.17-2.41-.21-4.91,0-7.44.1-2.54.01-5.11.48-7.73.81l-1.97.27-1.95.45c-1.3.3-2.62.6-3.94.9-1.33.26-2.6.79-3.91,1.18-1.3.44-2.62.81-3.9,1.31-1.27.54-2.54,1.07-3.82,1.61l-1.91.82-1.85.96-3.7,1.93-3.55,2.19c-2.41,1.39-4.56,3.15-6.82,4.73-1.09.84-2.13,1.74-3.19,2.61-1.06.87-2.11,1.73-3.08,2.68-.99.93-1.98,1.85-2.96,2.77-.96.94-1.86,1.92-2.79,2.87-1.88,1.87-3.52,3.91-5.22,5.84-3.24,3.98-6.24,7.93-8.8,11.87-2.63,3.89-4.85,7.72-6.85,11.28-1.94,3.59-3.66,6.91-5.03,9.93-1.41,3-2.53,5.66-3.43,7.85-1.77,4.41-2.59,7-2.59,7,0,0,.94-2.55,2.92-6.85,1-2.15,2.25-4.74,3.8-7.65Z"/>
      <path class="cls-1" d="M156.57,138.75c.55-3.25,1.35-6.88,2.3-10.82,1-3.92,2.16-8.15,3.68-12.53,1.44-4.4,3.3-8.91,5.36-13.5,1.12-2.25,2.16-4.59,3.46-6.82.63-1.12,1.23-2.28,1.9-3.39.69-1.1,1.38-2.21,2.08-3.32.67-1.13,1.44-2.2,2.21-3.27.77-1.07,1.51-2.16,2.32-3.21,1.71-2.02,3.26-4.18,5.14-6.05l2.72-2.88,2.91-2.66,1.45-1.32,1.54-1.2c1.03-.8,2.05-1.59,3.07-2.38,1.04-.77,2.15-1.41,3.21-2.12,1.09-.66,2.1-1.45,3.23-2,1.11-.59,2.22-1.17,3.32-1.75l1.64-.87,1.7-.71c2.27-.91,4.43-1.96,6.72-2.56,2.25-.68,4.41-1.47,6.63-1.86,1.09-.24,2.17-.47,3.24-.7.53-.12,1.06-.23,1.58-.34.53-.07,1.06-.14,1.58-.2,2.09-.26,4.11-.52,6.05-.76,1.96-.08,3.84-.15,5.62-.22.89-.04,1.76-.07,2.6-.1.85.04,1.67.07,2.47.1,3.19.17,5.97.13,8.25.49,4.56.53,7.17.83,7.17.83l1.07-8.45s-2.79-.19-7.67-.51c-2.43-.26-5.43-.08-8.83-.09-.85,0-1.73.02-2.64.03-.91.08-1.84.16-2.8.24-1.91.17-3.92.35-6.02.54-2.08.36-4.25.74-6.49,1.14-.56.1-1.12.2-1.69.3-.56.15-1.12.3-1.69.45-1.14.3-2.29.61-3.46.93-2.36.54-4.67,1.5-7.06,2.36-2.42.78-4.72,2.02-7.11,3.13l-1.79.86-1.73,1.02c-1.15.68-2.31,1.37-3.48,2.06-1.19.66-2.23,1.55-3.36,2.31-1.1.81-2.25,1.57-3.32,2.44-1.05.9-2.1,1.79-3.15,2.7l-1.57,1.36-1.47,1.48-2.94,2.96-2.71,3.17c-1.87,2.06-3.39,4.39-5.06,6.58-.78,1.13-1.5,2.31-2.24,3.46-.74,1.15-1.49,2.29-2.12,3.49-.66,1.18-1.32,2.36-1.98,3.53-.63,1.18-1.19,2.4-1.78,3.58-1.22,2.36-2.16,4.8-3.2,7.15-1.88,4.78-3.53,9.46-4.77,13.98-1.32,4.5-2.27,8.83-3.09,12.83-.76,4.01-1.38,7.7-1.78,10.99-.43,3.28-.69,6.16-.88,8.52-.35,4.74-.34,7.45-.34,7.45,0,0,.12-2.71.7-7.42.3-2.35.7-5.2,1.29-8.44Z"/>
      <path class="cls-1" d="M163.53,141.36c1.96-2.65,4.32-5.53,6.94-8.61,2.67-3.04,5.61-6.3,8.95-9.51,3.28-3.27,6.97-6.46,10.88-9.61,2.02-1.5,4-3.11,6.17-4.52,1.07-.72,2.13-1.47,3.23-2.17,1.11-.67,2.23-1.35,3.36-2.03,1.11-.71,2.28-1.31,3.45-1.91,1.17-.6,2.33-1.25,3.52-1.82,2.44-1.03,4.8-2.26,7.32-3.07l3.73-1.34,3.8-1.05,1.89-.53,1.92-.37c1.28-.25,2.55-.49,3.82-.73,1.27-.21,2.56-.29,3.82-.44,1.27-.1,2.52-.35,3.79-.32,1.26-.02,2.51-.04,3.75-.06l1.85-.03,1.84.14c2.44.21,4.84.26,7.15.75,2.32.41,4.6.68,6.75,1.34,1.08.28,2.15.56,3.2.84.53.14,1.05.27,1.56.41.51.18,1.01.36,1.5.54,1.98.71,3.9,1.4,5.74,2.06,1.78.82,3.49,1.6,5.12,2.34.81.37,1.6.73,2.37,1.09.74.41,1.46.82,2.16,1.21,2.77,1.6,5.27,2.81,7.14,4.17,3.83,2.53,6.02,3.98,6.02,3.98l4.77-7.06s-2.4-1.43-6.61-3.92c-2.05-1.33-4.81-2.52-7.84-4.07-.76-.38-1.55-.77-2.37-1.17-.84-.34-1.71-.69-2.6-1.05-1.78-.71-3.66-1.46-5.61-2.24-2.02-.62-4.12-1.26-6.3-1.92-.54-.16-1.09-.33-1.65-.49-.57-.12-1.14-.24-1.71-.36-1.15-.24-2.32-.49-3.5-.74-2.35-.59-4.84-.77-7.36-1.09-2.51-.4-5.13-.34-7.76-.43-.66-.02-1.32-.03-1.98-.05-.66.04-1.33.09-2,.13-1.33.09-2.68.18-4.03.26-1.35.05-2.69.37-4.05.54-1.35.23-2.72.38-4.06.67-1.34.33-2.68.65-4.03.98l-2.02.5-1.98.65-3.96,1.31-3.85,1.6c-2.6.99-5.01,2.39-7.49,3.58-1.21.66-2.38,1.38-3.56,2.07-1.18.69-2.36,1.37-3.47,2.16-1.13.76-2.25,1.51-3.36,2.26-1.1.77-2.14,1.6-3.21,2.39-2.15,1.55-4.1,3.3-6.08,4.93-3.84,3.41-7.43,6.84-10.58,10.31-3.21,3.42-6.02,6.85-8.56,10.04-2.49,3.23-4.71,6.24-6.55,9-1.87,2.73-3.4,5.18-4.64,7.21-2.45,4.07-3.67,6.49-3.67,6.49,0,0,1.33-2.36,3.98-6.3,1.33-1.96,2.97-4.32,4.97-6.95Z"/>
      <path class="cls-1" d="M167.08,144.65c2.67-1.94,5.77-3.98,9.2-6.14,3.46-2.11,7.24-4.33,11.38-6.4,4.1-2.14,8.58-4.08,13.26-5.92,2.38-.82,4.75-1.77,7.24-2.46,1.24-.36,2.47-.77,3.73-1.1,1.26-.31,2.54-.62,3.81-.93,1.27-.34,2.56-.57,3.86-.79,1.3-.22,2.59-.49,3.9-.68,2.63-.25,5.25-.72,7.9-.74l3.96-.16,3.94.13,1.96.06,1.94.22c1.29.15,2.58.3,3.86.44,1.28.18,2.53.49,3.78.72,1.24.29,2.51.43,3.71.83,1.21.36,2.41.71,3.6,1.07l1.78.52,1.71.68c2.26.93,4.54,1.7,6.6,2.86,2.09,1.08,4.18,2.02,6.04,3.3.95.59,1.88,1.18,2.8,1.76.46.29.92.57,1.37.86.43.32.85.64,1.27.96,1.68,1.27,3.3,2.5,4.86,3.68,1.46,1.31,2.85,2.57,4.18,3.77.66.6,1.31,1.18,1.93,1.74.58.62,1.15,1.22,1.7,1.8,2.16,2.35,4.18,4.26,5.57,6.11,2.9,3.56,4.55,5.6,4.55,5.6l6.67-5.31s-1.87-2.08-5.14-5.72c-1.56-1.88-3.83-3.85-6.26-6.23-.62-.59-1.25-1.2-1.91-1.82-.7-.58-1.43-1.17-2.17-1.78-1.49-1.21-3.05-2.48-4.69-3.81-1.74-1.19-3.56-2.43-5.44-3.72-.47-.32-.94-.64-1.42-.96-.51-.28-1.01-.57-1.53-.86-1.03-.58-2.07-1.16-3.12-1.75-2.06-1.26-4.39-2.19-6.7-3.24-2.28-1.13-4.79-1.85-7.27-2.73l-1.88-.64-1.95-.48c-1.3-.32-2.61-.63-3.93-.95-1.31-.36-2.68-.45-4.02-.69-1.36-.19-2.71-.45-4.08-.57-1.37-.09-2.75-.18-4.14-.27l-2.08-.13-2.08.03-4.17.07-4.15.37c-2.78.17-5.49.78-8.22,1.18-1.35.27-2.68.61-4.02.91-1.33.3-2.66.6-3.96,1.02-1.3.38-2.59.77-3.88,1.15-1.28.41-2.53.89-3.78,1.32-2.52.83-4.9,1.92-7.28,2.89-4.68,2.11-9.13,4.3-13.18,6.67-4.09,2.3-7.79,4.73-11.17,7.02-3.34,2.34-6.36,4.55-8.94,6.62-2.6,2.05-4.8,3.92-6.58,5.49-3.56,3.15-5.44,5.1-5.44,5.1,0,0,1.98-1.86,5.68-4.82,1.86-1.47,4.13-3.23,6.82-5.14Z"/>
      <path class="cls-1" d="M168.54,146.83c2.95-1.48,6.35-2.98,10.08-4.55,3.76-1.51,7.85-3.09,12.27-4.45,4.4-1.44,9.13-2.62,14.05-3.67,2.48-.43,4.97-.97,7.54-1.25,1.28-.16,2.56-.36,3.86-.48,1.3-.1,2.6-.19,3.91-.29,1.31-.13,2.62-.14,3.94-.15,1.32,0,2.64-.06,3.96-.04,2.64.18,5.3.15,7.91.56l3.93.49,3.87.77,1.92.38,1.88.53c1.25.36,2.5.71,3.74,1.07,1.23.38,2.41.9,3.61,1.33,1.18.49,2.41.83,3.53,1.42,1.13.55,2.26,1.1,3.38,1.64l1.67.81,1.58.95c2.08,1.29,4.2,2.41,6.04,3.9,1.88,1.41,3.8,2.68,5.42,4.24.84.74,1.66,1.47,2.48,2.19.41.36.81.72,1.21,1.07.37.39.74.77,1.1,1.16,1.45,1.53,2.85,3.01,4.2,4.43,1.22,1.53,2.4,3,3.51,4.4.56.7,1.1,1.38,1.62,2.04.47.7.94,1.39,1.38,2.05,1.75,2.68,3.43,4.88,4.49,6.94,2.28,3.99,3.58,6.27,3.58,6.27l7.44-4.15s-1.5-2.36-4.13-6.49c-1.23-2.11-3.15-4.42-5.16-7.17-.51-.68-1.04-1.39-1.58-2.11-.6-.68-1.22-1.39-1.85-2.11-1.27-1.44-2.61-2.95-4-4.53-1.52-1.46-3.11-2.98-4.76-4.56-.41-.39-.83-.78-1.25-1.18-.45-.36-.91-.73-1.37-1.1-.92-.74-1.85-1.48-2.79-2.24-1.83-1.58-3.97-2.88-6.08-4.29-2.06-1.49-4.42-2.61-6.73-3.88l-1.75-.94-1.84-.79c-1.23-.52-2.47-1.05-3.72-1.58-1.23-.57-2.57-.89-3.86-1.34-1.31-.41-2.6-.89-3.93-1.23-1.34-.31-2.69-.63-4.04-.94l-2.03-.46-2.06-.31-4.13-.61-4.16-.31c-2.77-.29-5.55-.13-8.3-.18-1.38.04-2.75.16-4.11.24-1.37.08-2.73.16-4.07.36-1.35.17-2.69.33-4.02.5-1.33.19-2.64.46-3.94.69-2.62.41-5.15,1.1-7.65,1.66-4.96,1.32-9.71,2.75-14.09,4.43-4.41,1.6-8.46,3.39-12.17,5.1-3.68,1.76-7.02,3.45-9.91,5.07-2.9,1.59-5.37,3.09-7.39,4.34-4.02,2.53-6.2,4.14-6.2,4.14,0,0,2.26-1.51,6.39-3.82,2.07-1.15,4.6-2.51,7.57-3.96Z"/>
      <path class="cls-1" d="M165.51,142.95c2.36-2.3,5.14-4.77,8.22-7.4,3.12-2.58,6.54-5.33,10.34-7.97,3.75-2.71,7.91-5.27,12.27-7.77,2.23-1.16,4.44-2.44,6.81-3.48,1.17-.54,2.33-1.12,3.53-1.63,1.21-.49,2.42-.98,3.64-1.47,1.21-.52,2.46-.93,3.71-1.34,1.25-.41,2.5-.86,3.76-1.24,2.57-.63,5.09-1.47,7.71-1.87l3.89-.73,3.92-.44,1.95-.22,1.96-.07c1.3-.04,2.59-.08,3.89-.12,1.29,0,2.57.12,3.85.17,1.27.1,2.55.06,3.79.28,1.25.18,2.49.36,3.72.54l1.84.26,1.79.43c2.37.59,4.74,1.02,6.94,1.87,2.22.77,4.43,1.4,6.45,2.39,1.02.45,2.03.9,3.03,1.34.5.22.99.44,1.48.65.47.26.94.51,1.4.77,1.85,1.02,3.63,2,5.34,2.94,1.63,1.09,3.19,2.13,4.68,3.12.74.5,1.46.98,2.17,1.45.67.53,1.31,1.04,1.94,1.54,2.48,2.02,4.75,3.61,6.39,5.25,3.38,3.11,5.31,4.89,5.31,4.89l5.83-6.21s-2.15-1.79-5.91-4.92c-1.81-1.64-4.34-3.25-7.1-5.26-.69-.49-1.41-1-2.15-1.53-.78-.47-1.58-.95-2.41-1.45-1.65-.98-3.38-2.02-5.19-3.1-1.9-.93-3.87-1.89-5.92-2.89-.51-.25-1.03-.5-1.55-.75-.54-.21-1.09-.42-1.64-.63-1.1-.42-2.21-.85-3.34-1.28-2.22-.95-4.66-1.53-7.1-2.24-2.42-.79-5.01-1.14-7.59-1.65l-1.95-.36-1.99-.19c-1.33-.13-2.67-.25-4.02-.38-1.35-.17-2.72-.06-4.08-.11-1.37.01-2.74-.06-4.12.02-1.37.11-2.75.22-4.13.33l-2.07.18-2.06.33-4.12.67-4.06.97c-2.72.56-5.32,1.56-7.96,2.35-1.3.46-2.57.99-3.85,1.48-1.28.49-2.55.98-3.77,1.58-1.23.57-2.46,1.13-3.68,1.7-1.21.59-2.37,1.24-3.55,1.85-2.37,1.19-4.57,2.61-6.79,3.91-4.33,2.76-8.42,5.57-12.08,8.5-3.71,2.87-7.03,5.81-10.04,8.56-2.97,2.8-5.64,5.42-7.9,7.84-2.28,2.4-4.18,4.57-5.72,6.38-3.07,3.63-4.65,5.83-4.65,5.83,0,0,1.69-2.12,4.93-5.59,1.63-1.72,3.62-3.8,6.01-6.07Z"/>
      <path class="cls-1" d="M169.6,149.15c3.14-.99,6.74-1.93,10.68-2.88,3.95-.89,8.24-1.79,12.83-2.44,4.57-.72,9.44-1.13,14.46-1.38,2.51-.02,5.07-.17,7.65-.03,1.29.05,2.59.06,3.89.14,1.3.11,2.6.22,3.91.34,1.31.08,2.61.28,3.91.48,1.3.2,2.62.36,3.92.6,2.57.6,5.21.99,7.72,1.82l3.8,1.11,3.69,1.38,1.84.69,1.77.83c1.18.55,2.35,1.1,3.52,1.65,1.15.57,2.24,1.27,3.35,1.89,1.09.67,2.24,1.2,3.25,1.97,1.03.72,2.05,1.44,3.07,2.16l1.52,1.06,1.41,1.19c1.85,1.6,3.76,3.05,5.34,4.81,1.63,1.69,3.32,3.25,4.67,5.05.71.87,1.41,1.72,2.1,2.56.34.42.69.84,1.03,1.25.3.44.6.88.9,1.32,1.19,1.74,2.33,3.42,3.44,5.04.96,1.71,1.89,3.35,2.76,4.9.44.78.86,1.53,1.28,2.27.36.77.7,1.52,1.04,2.25,1.3,2.92,2.61,5.37,3.33,7.57,1.61,4.3,2.53,6.76,2.53,6.76l8.01-2.91s-1.11-2.57-3.04-7.06c-.88-2.28-2.4-4.87-3.95-7.9-.4-.76-.81-1.53-1.23-2.34-.48-.77-.98-1.56-1.49-2.38-1.02-1.62-2.1-3.33-3.23-5.11-1.27-1.68-2.6-3.44-3.97-5.26-.34-.45-.69-.91-1.04-1.37-.39-.43-.78-.86-1.17-1.3-.79-.87-1.59-1.76-2.4-2.66-1.55-1.86-3.46-3.47-5.32-5.21-1.8-1.8-3.95-3.28-6.02-4.91-.52-.4-1.05-.8-1.58-1.2-.56-.36-1.13-.71-1.69-1.07-1.13-.71-2.27-1.43-3.42-2.16-1.12-.76-2.4-1.28-3.59-1.94-1.22-.61-2.42-1.29-3.68-1.84-1.27-.52-2.55-1.05-3.84-1.58l-1.93-.78-1.98-.63-3.97-1.26-4.06-.97c-2.69-.73-5.45-1.01-8.16-1.5-1.37-.18-2.74-.28-4.1-.42-1.36-.14-2.72-.28-4.08-.3-1.35-.05-2.7-.1-4.05-.15-1.34-.02-2.68.04-4,.05-2.65-.01-5.26.26-7.82.41-5.11.51-10.03,1.17-14.62,2.12-4.61.88-8.9,2-12.83,3.1-3.92,1.15-7.48,2.28-10.59,3.43-3.12,1.11-5.8,2.19-7.99,3.11-4.38,1.85-6.78,3.1-6.78,3.1,0,0,2.47-1.13,6.92-2.76,2.23-.8,4.95-1.75,8.1-2.7Z"/>
      <path class="cls-1" d="M170.54,153.9c3.3,0,7.01.17,11.05.44,4.04.33,8.4.75,12.97,1.51,4.58.68,9.34,1.75,14.21,3.01,2.41.73,4.88,1.36,7.3,2.26,1.21.43,2.45.83,3.67,1.3,1.2.49,2.41.99,3.63,1.49,1.23.47,2.41,1.05,3.59,1.63,1.18.58,2.39,1.13,3.56,1.74,2.28,1.34,4.67,2.51,6.83,4.05l3.29,2.2,3.11,2.42,1.55,1.2,1.45,1.32c.96.88,1.91,1.75,2.87,2.63.93.89,1.76,1.88,2.63,2.81.84.96,1.78,1.82,2.52,2.85.77,1,1.53,1.99,2.29,2.98l1.13,1.47.98,1.56c1.28,2.08,2.68,4.04,3.66,6.19,1.05,2.1,2.2,4.09,2.95,6.22.42,1.04.83,2.06,1.23,3.07.2.5.4,1,.6,1.5.16.51.31,1.02.47,1.53.61,2.02,1.2,3.97,1.77,5.84.41,1.92.8,3.76,1.17,5.5.18.87.36,1.72.54,2.55.11.84.21,1.66.32,2.45.37,3.18.88,5.9.91,8.22.25,4.59.39,7.21.39,7.21l8.51-.38s-.29-2.78-.79-7.65c-.16-2.44-.84-5.36-1.4-8.72-.15-.84-.31-1.7-.47-2.6-.23-.88-.47-1.79-.71-2.72-.49-1.85-1.01-3.8-1.55-5.84-.71-1.99-1.45-4.06-2.21-6.2-.19-.53-.39-1.07-.58-1.62-.24-.53-.49-1.06-.73-1.59-.49-1.07-.99-2.15-1.5-3.25-.93-2.24-2.27-4.35-3.52-6.56-1.18-2.25-2.78-4.32-4.28-6.48l-1.14-1.62-1.29-1.53c-.87-1.02-1.74-2.05-2.62-3.08-.85-1.06-1.9-1.94-2.85-2.93-.99-.95-1.92-1.95-2.96-2.86-1.06-.88-2.12-1.76-3.19-2.65l-1.61-1.32-1.7-1.2-3.41-2.4-3.58-2.14c-2.34-1.5-4.9-2.6-7.34-3.88-1.25-.58-2.53-1.09-3.78-1.63-1.26-.54-2.51-1.08-3.8-1.5-1.28-.45-2.55-.9-3.82-1.35-1.27-.42-2.56-.77-3.83-1.15-2.53-.8-5.09-1.32-7.59-1.95-5.03-1.05-9.92-1.89-14.59-2.35-4.66-.54-9.09-.75-13.17-.88-4.08-.07-7.82-.06-11.13.1-3.31.13-6.19.36-8.55.57-4.73.46-7.4.93-7.4.93,0,0,2.69-.34,7.43-.56,2.37-.1,5.24-.19,8.54-.15Z"/>
      <path class="cls-1" d="M170.45,156.52c3.25.54,6.89,1.32,10.83,2.24,3.93.98,8.17,2.12,12.55,3.61,4.41,1.42,8.93,3.25,13.52,5.29,2.25,1.11,4.6,2.14,6.84,3.42,1.13.63,2.28,1.22,3.4,1.88,1.11.68,2.22,1.37,3.34,2.06,1.13.66,2.2,1.43,3.28,2.19,1.07.77,2.17,1.5,3.23,2.3,2.03,1.7,4.2,3.24,6.07,5.11l2.89,2.7,2.67,2.9,1.33,1.44,1.21,1.54c.8,1.02,1.6,2.04,2.4,3.06.77,1.03,1.42,2.14,2.14,3.2.67,1.09,1.46,2.09,2.02,3.22.59,1.11,1.18,2.22,1.77,3.31l.87,1.63.72,1.7c.93,2.26,1.98,4.42,2.6,6.7.69,2.25,1.5,4.4,1.89,6.62.24,1.09.48,2.17.72,3.23.12.53.24,1.06.35,1.58.07.53.14,1.06.21,1.58.27,2.09.54,4.11.79,6.05.09,1.96.17,3.84.25,5.62.04.89.08,1.76.12,2.6-.03.85-.06,1.67-.09,2.47-.16,3.19-.09,5.97-.45,8.26-.5,4.57-.79,7.18-.79,7.18l8.46,1.02s.17-2.79.47-7.68c.24-2.43.05-5.43.04-8.84-.01-.85-.03-1.73-.04-2.64-.08-.91-.17-1.84-.26-2.8-.18-1.91-.37-3.92-.57-6.01-.38-2.08-.77-4.24-1.17-6.48-.1-.56-.21-1.12-.31-1.69-.15-.56-.31-1.12-.46-1.69-.31-1.13-.63-2.29-.94-3.45-.55-2.36-1.52-4.66-2.4-7.05-.8-2.42-2.04-4.71-3.16-7.1l-.86-1.79-1.03-1.72c-.69-1.15-1.38-2.3-2.08-3.47-.66-1.18-1.56-2.23-2.33-3.35-.82-1.1-1.58-2.24-2.46-3.31-.9-1.04-1.81-2.09-2.71-3.14l-1.37-1.57-1.48-1.46-2.98-2.92-3.18-2.7c-2.07-1.86-4.41-3.37-6.61-5.02-1.14-.78-2.32-1.48-3.47-2.23-1.15-.74-2.3-1.47-3.5-2.1-1.19-.66-2.37-1.31-3.54-1.96-1.19-.62-2.4-1.18-3.59-1.76-2.36-1.21-4.81-2.14-7.17-3.16-4.79-1.85-9.47-3.48-14.01-4.7-4.51-1.3-8.84-2.23-12.84-3.03-4.02-.74-7.71-1.34-11-1.72-3.29-.42-6.16-.66-8.53-.83-4.74-.32-7.45-.3-7.45-.3,0,0,2.71.11,7.42.66,2.35.29,5.2.67,8.45,1.25Z"/>
      <path class="cls-1" d="M170.28,151.6c3.26-.48,6.96-.84,11-1.16,4.04-.26,8.42-.47,13.05-.37,4.63.01,9.5.38,14.49.93,2.49.37,5.03.64,7.55,1.18,1.26.25,2.55.47,3.81.76,1.26.32,2.53.63,3.81.95,1.28.29,2.53.69,3.79,1.09,1.25.41,2.53.77,3.77,1.21,2.45,1,4.98,1.81,7.34,3.02l3.58,1.7,3.43,1.95,1.71.97,1.62,1.1c1.08.73,2.15,1.46,3.21,2.19,1.05.75,2.01,1.61,3.01,2.4.97.83,2.03,1.54,2.9,2.46.9.88,1.8,1.75,2.69,2.62l1.33,1.29,1.2,1.4c1.57,1.88,3.23,3.61,4.51,5.6,1.34,1.93,2.76,3.73,3.81,5.73.56.97,1.12,1.92,1.67,2.86.27.47.54.93.81,1.4.23.49.46.97.68,1.44.9,1.91,1.76,3.75,2.59,5.52.68,1.84,1.33,3.6,1.95,5.28.31.84.61,1.65.9,2.44.23.82.45,1.61.67,2.38.82,3.09,1.73,5.71,2.08,8,.91,4.5,1.43,7.08,1.43,7.08l8.37-1.6s-.69-2.71-1.89-7.46c-.5-2.39-1.6-5.19-2.65-8.43-.27-.81-.55-1.64-.84-2.5-.36-.84-.72-1.7-1.1-2.59-.75-1.76-1.55-3.62-2.38-5.55-.99-1.87-2.02-3.81-3.09-5.82-.27-.5-.54-1.01-.81-1.51-.31-.49-.63-.98-.95-1.47-.64-.99-1.29-1.99-1.95-3-1.24-2.08-2.87-3.98-4.42-5.99-1.49-2.06-3.38-3.87-5.17-5.8l-1.37-1.44-1.5-1.33c-1-.88-2.02-1.78-3.03-2.67-.99-.93-2.16-1.65-3.24-2.48-1.11-.8-2.19-1.66-3.34-2.4-1.18-.72-2.35-1.44-3.54-2.16l-1.78-1.08-1.86-.94-3.72-1.88-3.85-1.6c-2.54-1.14-5.22-1.87-7.82-2.78-1.32-.39-2.66-.71-3.98-1.07-1.32-.35-2.64-.71-3.98-.94-1.33-.26-2.65-.53-3.97-.79-1.32-.23-2.65-.39-3.96-.58-2.62-.43-5.23-.57-7.79-.83-5.13-.31-10.08-.44-14.77-.22-4.69.14-9.1.57-13.16,1.02-4.05.52-7.75,1.07-11,1.71-3.26.6-6.07,1.24-8.38,1.8-4.61,1.13-7.19,1.98-7.19,1.98,0,0,2.62-.72,7.27-1.63,2.33-.44,5.16-.94,8.43-1.38Z"/>
      <path class="cls-1" d="M169.94,159.02c3.12,1.05,6.59,2.4,10.33,3.94,3.72,1.6,7.72,3.39,11.81,5.57,4.12,2.1,8.3,4.63,12.51,7.38,2.05,1.46,4.2,2.84,6.2,4.47,1.01.8,2.06,1.57,3.06,2.4.98.85,1.97,1.71,2.96,2.57,1.01.84,1.95,1.76,2.89,2.69.94.93,1.9,1.83,2.82,2.78,1.73,2,3.63,3.86,5.18,6.01l2.42,3.13,2.18,3.29,1.09,1.64.95,1.71c.63,1.14,1.25,2.27,1.88,3.4.6,1.14,1.06,2.34,1.6,3.5.49,1.18,1.11,2.29,1.48,3.5.41,1.19.81,2.38,1.22,3.55l.6,1.75.44,1.79c.55,2.38,1.25,4.68,1.5,7.03.33,2.33.78,4.58.81,6.83.06,1.12.13,2.22.19,3.3.03.54.06,1.08.1,1.61-.02.54-.03,1.07-.05,1.6-.06,2.11-.12,4.14-.18,6.1-.22,1.95-.44,3.81-.65,5.59-.1.89-.2,1.75-.3,2.59-.17.83-.33,1.64-.48,2.43-.66,3.13-1.04,5.88-1.76,8.08-1.23,4.43-1.93,6.96-1.93,6.96l8.19,2.36s.61-2.73,1.69-7.5c.63-2.36.92-5.35,1.45-8.72.12-.84.25-1.71.38-2.61.06-.91.13-1.84.19-2.8.12-1.91.26-3.93.39-6.03-.04-2.11-.08-4.31-.12-6.59-.01-.57-.03-1.14-.04-1.72-.06-.58-.12-1.16-.18-1.74-.13-1.17-.25-2.36-.38-3.56-.16-2.41-.76-4.85-1.24-7.34-.4-2.51-1.26-4.98-1.99-7.51-.19-.63-.38-1.27-.57-1.9-.25-.62-.49-1.24-.74-1.86-.5-1.24-.99-2.49-1.5-3.75-.46-1.27-1.18-2.45-1.77-3.68-.63-1.21-1.2-2.47-1.9-3.66-.72-1.17-1.45-2.35-2.18-3.53l-1.1-1.76-1.23-1.68-2.47-3.36-2.71-3.17c-1.74-2.17-3.82-4.03-5.72-6.01-1-.95-2.05-1.83-3.07-2.75-1.02-.91-2.04-1.82-3.12-2.64-1.07-.84-2.13-1.67-3.19-2.5-1.07-.81-2.19-1.54-3.27-2.31-2.14-1.57-4.41-2.88-6.57-4.26-4.43-2.59-8.8-4.95-13.08-6.87-4.24-2-8.37-3.61-12.2-5.03-3.85-1.37-7.39-2.55-10.58-3.45-3.18-.94-5.98-1.63-8.29-2.18-4.63-1.07-7.31-1.48-7.31-1.48,0,0,2.66.54,7.22,1.84,2.28.66,5.03,1.49,8.14,2.58Z"/>
      <path class="cls-1" d="M167.91,163.42c2.67,1.94,5.57,4.26,8.68,6.85,3.07,2.64,6.35,5.55,9.6,8.85,3.3,3.24,6.53,6.9,9.73,10.78,1.52,2,3.15,3.97,4.58,6.12.73,1.06,1.5,2.11,2.2,3.2.68,1.11,1.37,2.22,2.06,3.34.72,1.1,1.33,2.26,1.95,3.43.61,1.17,1.27,2.31,1.86,3.5,1.05,2.43,2.3,4.77,3.14,7.28l1.38,3.71,1.09,3.79.55,1.88.39,1.92c.26,1.27.52,2.54.77,3.81.23,1.27.31,2.56.48,3.82.11,1.27.37,2.52.36,3.78.03,1.26.07,2.51.1,3.75l.05,1.85-.12,1.84c-.19,2.44-.21,4.84-.68,7.16-.39,2.32-.63,4.6-1.27,6.76-.27,1.09-.54,2.16-.81,3.21-.13.53-.26,1.05-.39,1.57-.18.51-.35,1.01-.52,1.51-.69,1.99-1.36,3.92-2,5.76-.8,1.79-1.56,3.51-2.29,5.14-.36.81-.72,1.61-1.06,2.38-.41.74-.8,1.47-1.19,2.17-1.57,2.79-2.75,5.3-4.09,7.18-2.49,3.86-3.92,6.06-3.92,6.06l7.11,4.7s1.4-2.42,3.86-6.65c1.31-2.06,2.47-4.83,3.99-7.88.37-.77.75-1.56,1.15-2.38.33-.85.67-1.72,1.02-2.62.69-1.79,1.42-3.67,2.18-5.64.59-2.03,1.21-4.14,1.85-6.32.16-.55.32-1.1.48-1.65.11-.57.23-1.14.35-1.72.23-1.15.46-2.32.7-3.51.56-2.35.72-4.85,1.01-7.37.37-2.52.28-5.13.35-7.76l.03-1.98-.15-2c-.1-1.33-.2-2.68-.31-4.03-.06-1.35-.4-2.69-.58-4.04-.24-1.35-.41-2.71-.72-4.06-.34-1.34-.68-2.68-1.02-4.02l-.52-2.01-.67-1.97-1.35-3.95-1.64-3.84c-1.02-2.59-2.44-4.98-3.66-7.45-.67-1.2-1.41-2.36-2.11-3.54-.7-1.18-1.4-2.35-2.19-3.45-.77-1.12-1.53-2.23-2.29-3.34-.78-1.09-1.62-2.13-2.42-3.18-1.57-2.14-3.34-4.07-4.99-6.03-3.45-3.8-6.91-7.35-10.42-10.47-3.45-3.18-6.91-5.95-10.13-8.45-3.26-2.46-6.29-4.65-9.06-6.46-2.75-1.84-5.21-3.35-7.25-4.56-4.09-2.41-6.53-3.6-6.53-3.6,0,0,2.38,1.31,6.34,3.91,1.97,1.31,4.35,2.93,7,4.9Z"/>
      <path class="cls-1" d="M166.29,165.48c2.31,2.35,4.8,5.11,7.44,8.18,2.6,3.11,5.36,6.51,8.03,10.3,2.73,3.74,5.32,7.88,7.83,12.23,1.17,2.23,2.46,4.43,3.52,6.79.54,1.17,1.13,2.33,1.65,3.52.49,1.2.99,2.41,1.49,3.63.53,1.2.94,2.45,1.36,3.7.42,1.25.87,2.49,1.26,3.76.64,2.56,1.49,5.08,1.91,7.7l.75,3.89.46,3.92.23,1.95.08,1.95c.05,1.3.09,2.59.14,3.89.02,1.29-.11,2.57-.15,3.85-.1,1.27-.05,2.55-.26,3.79-.17,1.25-.35,2.49-.52,3.72l-.25,1.84-.42,1.79c-.58,2.38-1,4.74-1.84,6.95-.76,2.23-1.37,4.44-2.36,6.46-.45,1.03-.89,2.04-1.32,3.04-.22.5-.43.99-.64,1.48-.26.47-.51.94-.76,1.4-1.01,1.85-1.98,3.64-2.91,5.36-1.08,1.64-2.11,3.21-3.1,4.7-.49.74-.97,1.47-1.44,2.17-.52.67-1.03,1.32-1.52,1.95-2,2.49-3.58,4.77-5.21,6.42-3.09,3.4-4.86,5.34-4.86,5.34l6.24,5.8s1.78-2.16,4.89-5.93c1.63-1.82,3.23-4.36,5.23-7.12.49-.7,1-1.42,1.52-2.16.47-.78.94-1.59,1.44-2.41.97-1.65,2-3.39,3.07-5.2.92-1.9,1.87-3.88,2.86-5.93.24-.51.49-1.03.74-1.55.21-.54.41-1.09.62-1.64.42-1.1.84-2.22,1.27-3.35.94-2.23,1.51-4.67,2.2-7.11.78-2.42,1.12-5.01,1.61-7.6l.35-1.95.18-2c.12-1.33.24-2.67.36-4.03.16-1.35.05-2.72.08-4.08-.02-1.37.04-2.74-.04-4.12-.12-1.37-.23-2.75-.35-4.13l-.19-2.07-.34-2.05-.69-4.11-.99-4.05c-.58-2.72-1.59-5.32-2.39-7.95-.46-1.3-1-2.56-1.5-3.84-.5-1.27-.99-2.54-1.6-3.76-.57-1.23-1.15-2.45-1.72-3.67-.59-1.2-1.25-2.36-1.87-3.54-1.2-2.36-2.63-4.56-3.94-6.77-2.79-4.31-5.62-8.39-8.57-12.03-2.89-3.7-5.84-7-8.61-10-2.81-2.96-5.45-5.61-7.89-7.86-2.41-2.27-4.6-4.15-6.41-5.69-3.65-3.05-5.85-4.62-5.85-4.62,0,0,2.13,1.68,5.61,4.9,1.73,1.62,3.81,3.6,6.1,5.97Z"/>
      <path class="cls-1" d="M169.05,161.4c2.92,1.53,6.13,3.41,9.58,5.53,3.42,2.17,7.09,4.57,10.78,7.37,3.74,2.73,7.46,5.89,11.18,9.27,1.79,1.76,3.69,3.47,5.42,5.4.87.95,1.79,1.87,2.64,2.85.84,1,1.68,2,2.52,3.01.87.98,1.64,2.05,2.42,3.11.78,1.06,1.59,2.11,2.34,3.2,1.39,2.25,2.97,4.39,4.16,6.75l1.9,3.48,1.63,3.59.81,1.79.67,1.84c.44,1.22.88,2.44,1.32,3.66.41,1.22.68,2.48,1.02,3.71.29,1.24.73,2.44.9,3.69.21,1.24.43,2.48.64,3.7l.32,1.83.15,1.84c.17,2.44.49,4.82.36,7.18-.05,2.35.04,4.65-.28,6.87-.11,1.11-.22,2.21-.33,3.29-.05.54-.11,1.08-.16,1.61-.1.53-.2,1.05-.3,1.57-.4,2.07-.78,4.07-1.15,5.99-.53,1.89-1.04,3.7-1.52,5.42-.24.86-.48,1.69-.71,2.51-.3.8-.58,1.57-.86,2.32-1.15,2.98-1.96,5.64-3.02,7.7-1.91,4.18-3,6.56-3,6.56l7.71,3.63s1.04-2.6,2.86-7.14c1-2.23,1.75-5.14,2.81-8.38.26-.81.52-1.65.79-2.52.21-.89.42-1.8.63-2.74.43-1.87.87-3.84,1.34-5.89.3-2.09.6-4.27.92-6.52.08-.56.15-1.13.23-1.7.03-.58.06-1.16.09-1.75.06-1.17.12-2.37.19-3.58.22-2.41.02-4.91-.06-7.44,0-2.54-.46-5.12-.78-7.73l-.26-1.97-.44-1.96c-.29-1.31-.59-2.62-.88-3.94-.26-1.33-.78-2.6-1.16-3.92-.43-1.3-.8-2.63-1.29-3.91-.53-1.27-1.06-2.55-1.59-3.83l-.81-1.92-.95-1.85-1.91-3.71-2.17-3.56c-1.38-2.42-3.13-4.58-4.7-6.84-.84-1.09-1.73-2.14-2.59-3.2-.86-1.06-1.72-2.12-2.67-3.1-.92-.99-1.84-1.99-2.75-2.97-.93-.97-1.91-1.87-2.86-2.8-1.86-1.89-3.9-3.54-5.81-5.25-3.97-3.26-7.9-6.28-11.82-8.86-3.87-2.65-7.69-4.89-11.24-6.9-3.58-1.96-6.9-3.69-9.9-5.09-2.99-1.43-5.64-2.56-7.84-3.47-4.4-1.79-6.98-2.62-6.98-2.62,0,0,2.54.95,6.84,2.96,2.14,1.01,4.73,2.27,7.63,3.84Z"/>
      <path class="cls-1" d="M164.41,167.21c1.91,2.69,3.92,5.81,6.04,9.26,2.07,3.48,4.25,7.28,6.28,11.45,2.1,4.13,3.99,8.62,5.78,13.32.8,2.38,1.73,4.77,2.39,7.26.35,1.24.75,2.48,1.07,3.74.3,1.27.59,2.54.89,3.82.33,1.27.54,2.57.75,3.87.21,1.3.47,2.6.64,3.91.22,2.63.66,5.26.66,7.91l.12,3.96-.17,3.94-.08,1.96-.24,1.94c-.16,1.29-.32,2.58-.48,3.86-.19,1.28-.52,2.52-.76,3.77-.3,1.24-.45,2.51-.86,3.7-.37,1.2-.74,2.4-1.1,3.59l-.54,1.77-.7,1.71c-.95,2.25-1.74,4.52-2.92,6.57-1.11,2.08-2.06,4.16-3.36,6-.6.94-1.2,1.87-1.79,2.79-.29.46-.58.91-.87,1.36-.33.43-.65.85-.98,1.27-1.29,1.67-2.54,3.28-3.73,4.82-1.33,1.44-2.6,2.83-3.81,4.14-.6.66-1.19,1.3-1.76,1.92-.62.58-1.23,1.14-1.82,1.68-2.38,2.14-4.3,4.14-6.17,5.5-3.59,2.86-5.65,4.5-5.65,4.5l5.24,6.72s2.1-1.85,5.78-5.08c1.9-1.54,3.89-3.79,6.3-6.2.6-.61,1.21-1.24,1.84-1.89.58-.7,1.19-1.42,1.8-2.15,1.23-1.48,2.52-3.03,3.86-4.65,1.21-1.73,2.47-3.53,3.77-5.4.32-.47.65-.94.98-1.41.29-.5.58-1.01.88-1.52.59-1.02,1.18-2.06,1.78-3.11,1.29-2.05,2.23-4.37,3.31-6.67,1.15-2.27,1.9-4.77,2.8-7.25.22-.62.44-1.25.66-1.87.16-.64.33-1.29.5-1.94.33-1.3.66-2.6.99-3.92.37-1.3.48-2.67.73-4.02.2-1.35.48-2.7.61-4.07.1-1.37.21-2.75.31-4.14l.15-2.07v-2.08s-.04-4.17-.04-4.17l-.33-4.16c-.14-2.78-.72-5.5-1.1-8.23-.25-1.35-.58-2.69-.87-4.03-.29-1.34-.58-2.67-.98-3.97-.37-1.3-.74-2.6-1.11-3.89-.39-1.28-.86-2.53-1.28-3.79-.81-2.53-1.87-4.92-2.81-7.31-2.06-4.7-4.21-9.18-6.54-13.25-2.26-4.11-4.65-7.84-6.91-11.24-2.31-3.37-4.48-6.41-6.53-9.01-2.02-2.62-3.88-4.83-5.42-6.64-3.11-3.59-5.04-5.5-5.04-5.5,0,0,1.84,2,4.76,5.73,1.45,1.87,3.19,4.16,5.07,6.87Z"/>
      <path class="cls-1" d="M160.19,169.57c1.02,3.13,2,6.72,2.99,10.65.93,3.94,1.88,8.22,2.57,12.8.77,4.56,1.23,9.42,1.53,14.44.05,2.51.22,5.06.11,7.64-.04,1.29-.03,2.59-.1,3.89-.1,1.3-.2,2.6-.3,3.91-.07,1.31-.25,2.61-.44,3.92-.19,1.3-.33,2.62-.56,3.92-.57,2.58-.94,5.22-1.74,7.74l-1.07,3.81-1.34,3.71-.67,1.85-.81,1.78c-.54,1.18-1.08,2.36-1.61,3.54-.56,1.16-1.25,2.25-1.86,3.37-.66,1.09-1.18,2.26-1.93,3.27-.71,1.04-1.42,2.07-2.13,3.09l-1.05,1.53-1.18,1.42c-1.58,1.86-3.01,3.79-4.75,5.39-1.68,1.65-3.22,3.35-5,4.72-.86.72-1.71,1.43-2.54,2.12-.42.35-.83.69-1.24,1.04-.44.31-.88.61-1.31.92-1.73,1.21-3.4,2.37-5,3.49-1.7.98-3.33,1.92-4.87,2.81-.77.45-1.53.88-2.26,1.3-.77.36-1.51.72-2.23,1.06-2.91,1.33-5.34,2.66-7.53,3.4-4.29,1.66-6.73,2.6-6.73,2.6l2.99,7.98s2.56-1.13,7.03-3.12c2.27-.9,4.84-2.45,7.86-4.03.75-.4,1.53-.82,2.32-1.25.77-.49,1.55-1,2.36-1.52,1.61-1.04,3.31-2.14,5.07-3.28,1.67-1.29,3.41-2.63,5.21-4.02.45-.35.9-.7,1.36-1.06.43-.39.86-.79,1.29-1.19.86-.8,1.74-1.61,2.63-2.43,1.84-1.57,3.44-3.5,5.15-5.37,1.78-1.82,3.24-3.98,4.84-6.08l1.19-1.59,1.05-1.7c.7-1.14,1.41-2.29,2.12-3.44.75-1.13,1.26-2.41,1.9-3.61.6-1.23,1.26-2.44,1.8-3.7.51-1.28,1.02-2.56,1.54-3.85l.76-1.94.61-1.99,1.22-3.99.93-4.06c.7-2.69.96-5.46,1.42-8.18.17-1.37.25-2.74.38-4.1.12-1.36.25-2.72.25-4.08.04-1.36.07-2.7.11-4.05,0-1.34-.06-2.68-.09-4-.02-2.65-.32-5.25-.49-7.82-.56-5.11-1.27-10.01-2.27-14.6-.93-4.6-2.09-8.87-3.23-12.79-1.19-3.9-2.36-7.46-3.54-10.55-1.14-3.11-2.25-5.77-3.19-7.95-1.9-4.36-3.17-6.75-3.17-6.75,0,0,1.15,2.46,2.83,6.89.83,2.22,1.8,4.93,2.78,8.07Z"/>
      <path class="cls-1" d="M157.67,170.29c.49,3.26.88,6.96,1.21,10.99.28,4.04.51,8.42.44,13.05.01,4.63-.33,9.5-.85,14.5-.36,2.49-.61,5.03-1.14,7.56-.25,1.27-.45,2.55-.74,3.82-.31,1.26-.62,2.54-.93,3.81-.28,1.28-.68,2.54-1.07,3.8-.4,1.26-.76,2.53-1.19,3.78-.99,2.45-1.78,4.99-2.98,7.35l-1.68,3.59-1.93,3.44-.96,1.71-1.09,1.63c-.73,1.08-1.45,2.15-2.17,3.23-.74,1.05-1.6,2.02-2.38,3.02-.83.97-1.53,2.03-2.44,2.91-.87.91-1.74,1.81-2.6,2.71l-1.28,1.34-1.39,1.21c-1.87,1.58-3.59,3.25-5.57,4.54-1.92,1.35-3.72,2.78-5.71,3.84-.96.57-1.91,1.13-2.85,1.68-.47.28-.93.55-1.39.82-.48.23-.96.46-1.44.69-1.9.91-3.74,1.78-5.51,2.62-1.84.69-3.59,1.35-5.27,1.98-.83.31-1.65.62-2.44.91-.82.23-1.61.46-2.38.68-3.09.84-5.7,1.75-7.99,2.13-4.5.93-7.07,1.46-7.07,1.46l1.64,8.36s2.71-.7,7.45-1.92c2.39-.52,5.18-1.63,8.42-2.69.81-.28,1.64-.56,2.5-.85.84-.36,1.7-.73,2.58-1.11,1.76-.76,3.61-1.57,5.54-2.41,1.86-1,3.8-2.04,5.8-3.12.5-.27,1-.54,1.51-.82.49-.32.97-.64,1.47-.96.98-.65,1.98-1.3,2.99-1.97,2.07-1.25,3.96-2.89,5.96-4.46,2.05-1.5,3.85-3.4,5.77-5.2l1.43-1.37,1.32-1.51c.88-1.01,1.76-2.02,2.66-3.05.92-.99,1.64-2.17,2.47-3.25.79-1.12,1.65-2.2,2.39-3.36.71-1.18,1.43-2.36,2.14-3.55l1.07-1.78.93-1.86,1.86-3.73,1.58-3.86c1.13-2.54,1.84-5.23,2.74-7.84.39-1.32.7-2.66,1.04-3.99.35-1.32.69-2.64.92-3.98.26-1.33.51-2.66.77-3.98.23-1.32.38-2.65.56-3.96.42-2.62.55-5.24.79-7.79.28-5.13.38-10.09.14-14.77-.16-4.69-.61-9.1-1.09-13.15-.54-4.05-1.11-7.74-1.76-10.99-.62-3.25-1.28-6.06-1.84-8.37-1.16-4.61-2.02-7.18-2.02-7.18,0,0,.74,2.61,1.66,7.26.45,2.33.97,5.16,1.43,8.42Z"/>
      <path class="cls-1" d="M162.29,168.61c1.46,2.95,2.95,6.36,4.5,10.1,1.49,3.76,3.05,7.87,4.39,12.3,1.42,4.41,2.57,9.15,3.6,14.07.41,2.48.95,4.98,1.21,7.55.15,1.28.34,2.56.46,3.86.09,1.3.18,2.6.27,3.91.12,1.31.13,2.62.13,3.94,0,1.32.05,2.64.02,3.96-.2,2.64-.18,5.3-.6,7.91l-.51,3.93-.79,3.86-.39,1.92-.54,1.88c-.36,1.25-.73,2.49-1.09,3.73-.39,1.23-.91,2.41-1.35,3.6-.49,1.18-.84,2.4-1.44,3.52-.56,1.13-1.11,2.25-1.66,3.37l-.82,1.66-.96,1.57c-1.3,2.07-2.44,4.19-3.93,6.02-1.42,1.87-2.7,3.78-4.27,5.4-.75.83-1.48,1.66-2.21,2.47-.36.41-.72.81-1.08,1.21-.39.37-.78.73-1.16,1.09-1.54,1.44-3.02,2.83-4.45,4.17-1.54,1.22-3.01,2.38-4.42,3.49-.7.55-1.38,1.09-2.05,1.61-.71.47-1.39.93-2.06,1.37-2.68,1.74-4.9,3.41-6.96,4.46-4,2.26-6.29,3.54-6.29,3.54l4.11,7.47s2.37-1.49,6.51-4.1c2.12-1.22,4.44-3.13,7.2-5.12.69-.51,1.39-1.03,2.12-1.57.69-.6,1.39-1.21,2.12-1.84,1.44-1.26,2.96-2.59,4.55-3.98,1.47-1.52,3-3.1,4.58-4.73.39-.41.79-.82,1.19-1.24.37-.45.73-.9,1.1-1.36.74-.91,1.49-1.84,2.25-2.78,1.59-1.82,2.9-3.96,4.33-6.06,1.5-2.06,2.64-4.41,3.92-6.71l.95-1.74.8-1.84c.53-1.23,1.07-2.47,1.6-3.71.57-1.23.9-2.56,1.36-3.85.41-1.3.9-2.59,1.25-3.92.32-1.34.64-2.68.96-4.03l.47-2.02.32-2.06.64-4.12.33-4.16c.3-2.77.16-5.55.22-8.3-.03-1.38-.15-2.75-.22-4.11-.07-1.37-.15-2.73-.34-4.07-.16-1.35-.32-2.69-.48-4.02-.19-1.33-.45-2.64-.67-3.95-.4-2.62-1.07-5.15-1.62-7.66-1.29-4.97-2.7-9.73-4.36-14.12-1.58-4.42-3.35-8.48-5.04-12.2-1.74-3.69-3.41-7.04-5.02-9.93-1.58-2.91-3.06-5.39-4.3-7.41-2.5-4.04-4.11-6.23-4.11-6.23,0,0,1.49,2.27,3.79,6.41,1.14,2.08,2.49,4.62,3.92,7.59Z"/>
      <path class="cls-1" d="M155.13,170.58c-.03,3.3-.24,7.01-.56,11.05-.37,4.03-.84,8.39-1.65,12.95-.73,4.57-1.84,9.32-3.15,14.17-.75,2.4-1.41,4.87-2.33,7.28-.45,1.21-.85,2.44-1.34,3.65-.51,1.2-1.02,2.4-1.53,3.61-.48,1.22-1.07,2.4-1.66,3.58-.59,1.18-1.15,2.38-1.78,3.54-1.37,2.26-2.55,4.64-4.11,6.78l-2.23,3.27-2.45,3.09-1.22,1.54-1.33,1.43c-.89.95-1.77,1.9-2.66,2.84-.9.92-1.9,1.74-2.84,2.6-.97.83-1.84,1.76-2.88,2.49-1.01.76-2.01,1.51-3,2.25l-1.48,1.12-1.57.97c-2.1,1.26-4.07,2.64-6.23,3.6-2.11,1.03-4.12,2.15-6.25,2.88-1.04.41-2.07.81-3.08,1.2-.51.2-1.01.39-1.5.59-.51.15-1.03.3-1.53.45-2.02.59-3.98,1.16-5.85,1.71-1.92.39-3.76.76-5.52,1.11-.87.18-1.73.35-2.55.51-.84.1-1.66.2-2.46.29-3.18.33-5.91.82-8.23.83-4.59.2-7.21.32-7.21.32l.29,8.52s2.78-.26,7.66-.71c2.44-.13,5.37-.78,8.74-1.31.84-.14,1.71-.29,2.6-.44.88-.22,1.79-.45,2.72-.68,1.86-.47,3.81-.97,5.85-1.49,2-.69,4.07-1.41,6.22-2.15.54-.19,1.08-.38,1.62-.57.53-.24,1.06-.47,1.6-.71,1.07-.48,2.16-.97,3.27-1.46,2.24-.9,4.37-2.22,6.6-3.45,2.26-1.16,4.34-2.74,6.53-4.21.54-.37,1.09-.75,1.63-1.13.51-.42,1.03-.85,1.54-1.28,1.03-.86,2.06-1.72,3.11-2.58,1.07-.83,1.96-1.88,2.96-2.82.96-.98,1.97-1.9,2.89-2.93.89-1.05,1.79-2.1,2.68-3.16l1.34-1.59,1.22-1.69,2.43-3.39,2.18-3.56c1.52-2.33,2.65-4.87,3.95-7.3.59-1.24,1.11-2.52,1.67-3.77.55-1.25,1.1-2.5,1.54-3.79.47-1.27.93-2.54,1.39-3.8.44-1.27.79-2.56,1.19-3.82.83-2.52,1.38-5.08,2.02-7.57,1.1-5.02,1.99-9.9,2.5-14.56.59-4.65.85-9.08,1.02-13.16.11-4.08.14-7.82.01-11.13-.09-3.31-.29-6.19-.49-8.56-.41-4.73-.85-7.41-.85-7.41,0,0,.31,2.7.48,7.43.08,2.37.13,5.24.06,8.54Z"/>
      <path class="cls-1" d="M150.32,170.01c-1.02,3.13-2.33,6.61-3.84,10.37-1.56,3.74-3.31,7.76-5.45,11.87-2.06,4.14-4.55,8.35-7.25,12.58-1.44,2.06-2.8,4.23-4.41,6.25-.79,1.02-1.55,2.08-2.37,3.08-.84.99-1.69,1.99-2.54,2.99-.82,1.02-1.74,1.97-2.66,2.91-.92.95-1.81,1.92-2.75,2.85-1.98,1.75-3.83,3.67-5.96,5.24l-3.11,2.46-3.27,2.21-1.62,1.1-1.7.97c-1.13.64-2.26,1.28-3.38,1.91-1.14.61-2.33,1.09-3.48,1.64-1.17.5-2.28,1.13-3.49,1.51-1.19.42-2.37.84-3.54,1.25l-1.75.62-1.79.45c-2.38.58-4.67,1.3-7.02,1.57-2.33.35-4.57.82-6.82.88-1.12.08-2.22.15-3.3.23-.54.04-1.08.08-1.61.11-.54-.01-1.07-.02-1.6-.03-2.11-.04-4.14-.08-6.1-.12-1.95-.2-3.82-.4-5.6-.59-.89-.09-1.75-.19-2.59-.27-.83-.16-1.65-.31-2.43-.46-3.13-.63-5.89-.98-8.1-1.67-4.44-1.18-6.98-1.85-6.98-1.85l-2.27,8.21s2.73.59,7.52,1.61c2.37.61,5.36.86,8.73,1.36.84.11,1.72.23,2.62.35.91.05,1.84.11,2.8.16,1.92.1,3.93.21,6.03.33,2.11-.06,4.31-.12,6.58-.19.57-.02,1.14-.04,1.72-.06.58-.07,1.16-.13,1.74-.2,1.17-.14,2.35-.28,3.56-.42,2.41-.19,4.84-.81,7.33-1.32,2.51-.43,4.97-1.31,7.49-2.07l1.9-.59,1.85-.76c1.24-.51,2.48-1.02,3.74-1.54,1.27-.48,2.43-1.21,3.66-1.81,1.21-.65,2.45-1.23,3.64-1.93,1.16-.73,2.33-1.47,3.51-2.21l1.75-1.12,1.67-1.25,3.33-2.51,3.14-2.74c2.15-1.77,3.99-3.86,5.95-5.79.94-1.01,1.81-2.07,2.72-3.1.9-1.03,1.8-2.05,2.6-3.15.82-1.08,1.65-2.15,2.46-3.21.8-1.08,1.52-2.2,2.28-3.29,1.55-2.16,2.83-4.44,4.19-6.61,2.55-4.46,4.86-8.85,6.74-13.15,1.95-4.26,3.52-8.41,4.91-12.25,1.33-3.86,2.48-7.42,3.34-10.62.9-3.19,1.57-5.99,2.1-8.31,1.03-4.64,1.41-7.32,1.41-7.32,0,0-.51,2.67-1.76,7.24-.64,2.28-1.44,5.04-2.49,8.17Z"/>
      <path class="cls-1" d="M147.86,169.11c-1.52,2.93-3.38,6.14-5.48,9.61-2.15,3.43-4.54,7.11-7.31,10.82-2.71,3.75-5.85,7.49-9.21,11.23-1.75,1.8-3.45,3.71-5.37,5.44-.94.88-1.86,1.8-2.84,2.66-.99.84-1.99,1.69-2.99,2.54-.98.87-2.04,1.65-3.1,2.44-1.06.78-2.1,1.6-3.18,2.36-2.24,1.4-4.37,2.99-6.73,4.2l-3.47,1.91-3.58,1.65-1.78.82-1.84.68c-1.22.45-2.44.89-3.65,1.33-1.22.41-2.48.69-3.71,1.04-1.24.3-2.44.74-3.69.92-1.24.22-2.47.44-3.7.66l-1.83.33-1.84.16c-2.44.18-4.82.52-7.18.4-2.35-.04-4.65.07-6.88-.25-1.11-.11-2.21-.21-3.29-.32-.54-.05-1.08-.1-1.61-.15-.53-.1-1.05-.19-1.57-.29-2.07-.39-4.07-.76-6-1.12-1.89-.52-3.7-1.02-5.43-1.49-.86-.24-1.7-.47-2.51-.69-.8-.29-1.57-.57-2.32-.85-2.99-1.14-5.65-1.93-7.71-2.98-4.19-1.89-6.58-2.97-6.58-2.97l-3.59,7.73s2.6,1.03,7.15,2.82c2.23.98,5.15,1.73,8.39,2.77.81.25,1.66.51,2.52.78.89.2,1.8.41,2.74.62,1.87.42,3.84.85,5.9,1.31,2.09.28,4.27.58,6.53.89.56.07,1.13.15,1.7.22.58.03,1.16.06,1.75.08,1.18.06,2.37.11,3.58.17,2.41.21,4.91,0,7.44-.1,2.54-.01,5.11-.49,7.73-.82l1.97-.27,1.95-.45c1.3-.3,2.62-.6,3.94-.9,1.33-.26,2.6-.79,3.91-1.18,1.3-.44,2.62-.81,3.9-1.31,1.27-.54,2.54-1.07,3.82-1.61l1.91-.82,1.85-.96,3.7-1.93,3.55-2.19c2.41-1.39,4.56-3.15,6.82-4.73,1.09-.84,2.13-1.74,3.19-2.61,1.06-.87,2.11-1.73,3.08-2.68.99-.93,1.98-1.85,2.96-2.77.96-.94,1.86-1.92,2.79-2.87,1.88-1.87,3.52-3.91,5.22-5.84,3.24-3.98,6.24-7.93,8.8-11.87,2.62-3.89,4.85-7.72,6.85-11.28,1.94-3.59,3.66-6.91,5.03-9.93,1.41-3,2.53-5.66,3.43-7.85,1.77-4.41,2.58-7,2.58-7,0,0-.94,2.55-2.92,6.85-1,2.15-2.25,4.74-3.8,7.65Z"/>
      <path class="cls-1" d="M152.59,170.46c-.55,3.25-1.35,6.88-2.3,10.82-1,3.92-2.16,8.15-3.68,12.53-1.44,4.4-3.3,8.91-5.36,13.5-1.12,2.25-2.16,4.59-3.46,6.82-.63,1.12-1.23,2.28-1.9,3.39-.69,1.1-1.38,2.21-2.08,3.33-.67,1.13-1.44,2.2-2.21,3.27-.77,1.07-1.51,2.16-2.32,3.21-1.71,2.02-3.26,4.18-5.14,6.05l-2.72,2.88-2.91,2.66-1.45,1.32-1.54,1.2c-1.03.8-2.05,1.59-3.07,2.38-1.04.77-2.15,1.41-3.21,2.12-1.09.66-2.09,1.45-3.23,2-1.11.59-2.22,1.17-3.32,1.75l-1.64.87-1.7.71c-2.27.91-4.43,1.96-6.72,2.56-2.25.68-4.41,1.47-6.63,1.86-1.09.24-2.17.47-3.24.7-.53.12-1.06.23-1.58.34-.53.07-1.06.13-1.58.2-2.09.26-4.11.52-6.05.76-1.96.08-3.84.15-5.62.23-.89.04-1.76.07-2.6.1-.85-.03-1.67-.07-2.47-.1-3.19-.17-5.97-.12-8.25-.49-4.56-.53-7.17-.83-7.17-.83l-1.06,8.45s2.79.19,7.67.51c2.43.26,5.43.08,8.83.09.85,0,1.73-.02,2.64-.03.91-.08,1.84-.16,2.8-.24,1.91-.17,3.92-.35,6.02-.54,2.08-.36,4.25-.74,6.49-1.14.56-.1,1.12-.2,1.69-.3.56-.15,1.13-.3,1.69-.45,1.14-.3,2.29-.61,3.46-.93,2.36-.54,4.67-1.5,7.06-2.36,2.42-.78,4.72-2.02,7.11-3.13l1.79-.86,1.73-1.02c1.15-.68,2.31-1.37,3.48-2.06,1.19-.66,2.23-1.55,3.36-2.31,1.1-.81,2.25-1.57,3.32-2.44,1.05-.9,2.1-1.79,3.15-2.7l1.57-1.36,1.47-1.48,2.94-2.96,2.71-3.17c1.87-2.06,3.39-4.39,5.06-6.58.78-1.13,1.5-2.31,2.24-3.46.74-1.15,1.49-2.29,2.12-3.49.66-1.18,1.32-2.36,1.98-3.53.63-1.18,1.19-2.4,1.78-3.58,1.22-2.36,2.16-4.8,3.2-7.15,1.88-4.78,3.53-9.46,4.77-13.98,1.32-4.5,2.27-8.83,3.09-12.83.76-4.01,1.38-7.7,1.78-10.99.43-3.28.69-6.16.88-8.52.35-4.74.34-7.45.34-7.45,0,0-.12,2.71-.7,7.42-.3,2.35-.7,5.2-1.29,8.44Z"/>
      <path class="cls-1" d="M145.64,167.85c-1.96,2.65-4.32,5.53-6.94,8.61-2.67,3.04-5.61,6.3-8.94,9.51-3.28,3.27-6.97,6.46-10.88,9.61-2.02,1.5-4,3.11-6.17,4.52-1.07.72-2.13,1.47-3.23,2.17-1.11.67-2.23,1.35-3.36,2.03-1.11.71-2.28,1.31-3.45,1.91-1.17.6-2.33,1.25-3.52,1.82-2.44,1.03-4.8,2.26-7.32,3.07l-3.73,1.34-3.8,1.05-1.89.53-1.92.38c-1.28.25-2.55.49-3.82.73-1.27.21-2.56.29-3.82.44-1.27.1-2.52.35-3.79.32-1.26.02-2.51.04-3.75.06l-1.85.03-1.84-.14c-2.44-.21-4.84-.26-7.15-.75-2.32-.41-4.6-.68-6.75-1.34-1.08-.28-2.15-.56-3.2-.84-.53-.14-1.05-.27-1.56-.41-.51-.18-1.01-.36-1.5-.54-1.98-.71-3.9-1.4-5.74-2.06-1.78-.82-3.49-1.6-5.12-2.34-.81-.37-1.6-.73-2.37-1.09-.74-.41-1.46-.82-2.16-1.21-2.77-1.6-5.27-2.81-7.14-4.17-3.83-2.53-6.02-3.98-6.02-3.98l-4.77,7.06s2.41,1.43,6.61,3.92c2.05,1.33,4.81,2.52,7.84,4.07.76.38,1.55.77,2.37,1.17.84.34,1.71.69,2.6,1.05,1.78.71,3.66,1.46,5.61,2.24,2.02.61,4.12,1.26,6.3,1.92.54.16,1.09.33,1.65.49.57.12,1.14.24,1.72.36,1.15.24,2.32.49,3.5.74,2.35.59,4.84.77,7.36,1.09,2.51.4,5.13.34,7.76.43.66.02,1.32.03,1.98.05.66-.04,1.33-.09,2-.13,1.33-.09,2.68-.18,4.03-.26,1.36-.05,2.69-.37,4.05-.54,1.35-.23,2.72-.38,4.06-.67,1.34-.33,2.68-.65,4.03-.98l2.02-.5,1.98-.65,3.96-1.31,3.85-1.6c2.6-.99,5.01-2.39,7.49-3.59,1.21-.66,2.38-1.38,3.56-2.07,1.18-.69,2.36-1.37,3.47-2.16,1.12-.76,2.25-1.51,3.36-2.26,1.1-.77,2.14-1.6,3.21-2.39,2.15-1.55,4.1-3.3,6.08-4.93,3.84-3.41,7.43-6.84,10.58-10.31,3.21-3.42,6.02-6.85,8.56-10.04,2.49-3.23,4.71-6.24,6.55-9,1.87-2.73,3.4-5.18,4.64-7.21,2.45-4.07,3.67-6.49,3.67-6.49,0,0-1.33,2.36-3.98,6.3-1.33,1.96-2.97,4.32-4.97,6.95Z"/>
      <path class="cls-1" d="M142.08,164.57c-2.67,1.94-5.77,3.98-9.2,6.14-3.46,2.11-7.24,4.33-11.38,6.4-4.1,2.14-8.58,4.08-13.26,5.92-2.38.82-4.75,1.77-7.24,2.46-1.24.36-2.47.77-3.73,1.1-1.26.31-2.54.62-3.81.93-1.27.34-2.56.57-3.86.8-1.3.22-2.59.49-3.9.68-2.63.25-5.25.72-7.9.74l-3.96.16-3.94-.13-1.96-.06-1.94-.22c-1.29-.15-2.58-.29-3.86-.44-1.28-.18-2.53-.49-3.78-.72-1.24-.29-2.51-.43-3.71-.83-1.21-.36-2.41-.71-3.6-1.07l-1.78-.52-1.71-.68c-2.26-.93-4.54-1.69-6.6-2.85-2.09-1.08-4.18-2.02-6.04-3.3-.95-.59-1.88-1.18-2.8-1.76-.46-.29-.92-.57-1.37-.86-.43-.32-.85-.64-1.28-.96-1.68-1.27-3.3-2.5-4.86-3.68-1.46-1.31-2.85-2.57-4.18-3.77-.66-.6-1.31-1.18-1.94-1.74-.58-.62-1.15-1.22-1.7-1.8-2.16-2.35-4.18-4.26-5.57-6.11-2.9-3.56-4.55-5.6-4.55-5.6l-6.67,5.31s1.87,2.08,5.14,5.72c1.56,1.88,3.83,3.85,6.26,6.23.62.59,1.25,1.2,1.91,1.82.7.58,1.43,1.17,2.17,1.78,1.49,1.21,3.05,2.48,4.69,3.81,1.74,1.19,3.56,2.43,5.44,3.72.47.32.94.64,1.42.96.51.28,1.01.57,1.53.86,1.03.57,2.07,1.16,3.12,1.75,2.06,1.26,4.39,2.19,6.7,3.24,2.28,1.13,4.79,1.85,7.27,2.73l1.88.64,1.95.48c1.3.32,2.61.63,3.93.95,1.31.36,2.68.45,4.02.69,1.36.19,2.71.45,4.08.57,1.37.09,2.75.18,4.14.27l2.08.13,2.08-.03,4.17-.07,4.15-.37c2.78-.17,5.49-.78,8.22-1.18,1.35-.27,2.68-.61,4.02-.91,1.33-.3,2.66-.6,3.96-1.02,1.3-.38,2.59-.77,3.88-1.15,1.28-.41,2.53-.89,3.78-1.32,2.52-.83,4.9-1.92,7.28-2.89,4.68-2.11,9.13-4.3,13.18-6.67,4.09-2.3,7.79-4.73,11.17-7.02,3.34-2.34,6.36-4.55,8.94-6.62,2.6-2.05,4.8-3.93,6.58-5.49,3.56-3.15,5.44-5.1,5.44-5.1,0,0-1.98,1.86-5.68,4.82-1.86,1.47-4.13,3.23-6.82,5.14Z"/>
      <path class="cls-1" d="M140.62,162.39c-2.95,1.48-6.35,2.98-10.08,4.55-3.76,1.51-7.85,3.09-12.27,4.45-4.4,1.44-9.13,2.62-14.05,3.67-2.48.43-4.97.97-7.54,1.25-1.28.16-2.56.36-3.86.48-1.3.1-2.6.19-3.91.29-1.31.13-2.62.14-3.94.15-1.32,0-2.64.06-3.96.04-2.64-.18-5.3-.15-7.91-.56l-3.93-.49-3.87-.77-1.92-.38-1.88-.53c-1.25-.36-2.5-.71-3.74-1.07-1.23-.38-2.41-.9-3.61-1.33-1.18-.49-2.41-.83-3.53-1.42-1.13-.55-2.26-1.1-3.38-1.64l-1.67-.81-1.58-.95c-2.08-1.29-4.2-2.41-6.04-3.89-1.88-1.41-3.8-2.68-5.42-4.24-.84-.74-1.66-1.47-2.48-2.19-.41-.36-.81-.72-1.21-1.07-.37-.39-.74-.78-1.1-1.16-1.45-1.53-2.85-3.01-4.2-4.43-1.22-1.53-2.4-3-3.51-4.4-.56-.7-1.1-1.38-1.62-2.04-.47-.7-.93-1.39-1.38-2.05-1.75-2.68-3.43-4.88-4.49-6.94-2.28-3.99-3.58-6.27-3.58-6.27l-7.44,4.15s1.5,2.36,4.13,6.49c1.23,2.11,3.15,4.42,5.16,7.17.51.68,1.04,1.39,1.58,2.11.6.68,1.22,1.39,1.85,2.11,1.27,1.44,2.61,2.95,4,4.53,1.53,1.46,3.11,2.98,4.76,4.56.41.39.83.78,1.25,1.18.45.36.91.73,1.37,1.1.92.74,1.85,1.48,2.79,2.24,1.83,1.58,3.97,2.88,6.08,4.29,2.06,1.49,4.42,2.61,6.73,3.88l1.75.94,1.84.79c1.23.52,2.47,1.05,3.72,1.58,1.23.57,2.57.89,3.86,1.34,1.31.41,2.6.89,3.93,1.23,1.34.31,2.69.63,4.04.94l2.03.46,2.06.31,4.13.61,4.16.31c2.77.29,5.55.13,8.3.18,1.38-.04,2.75-.16,4.11-.24,1.37-.08,2.73-.16,4.07-.36,1.35-.17,2.69-.33,4.02-.5,1.33-.19,2.64-.46,3.94-.69,2.62-.41,5.15-1.1,7.65-1.66,4.96-1.32,9.71-2.75,14.09-4.43,4.41-1.6,8.46-3.39,12.17-5.1,3.68-1.76,7.02-3.45,9.91-5.07,2.9-1.6,5.37-3.09,7.39-4.34,4.02-2.53,6.2-4.14,6.2-4.14,0,0-2.26,1.51-6.39,3.83-2.07,1.15-4.6,2.51-7.57,3.96Z"/>
      <path class="cls-1" d="M143.65,166.27c-2.36,2.3-5.14,4.77-8.22,7.4-3.12,2.58-6.54,5.33-10.34,7.97-3.75,2.71-7.91,5.27-12.27,7.77-2.23,1.16-4.44,2.44-6.81,3.48-1.17.54-2.33,1.12-3.53,1.63-1.21.49-2.42.98-3.64,1.47-1.21.52-2.46.93-3.71,1.34-1.25.41-2.5.86-3.76,1.24-2.57.63-5.09,1.47-7.71,1.87l-3.89.73-3.92.44-1.95.22-1.96.07c-1.3.04-2.59.08-3.89.12-1.29,0-2.57-.12-3.85-.17-1.27-.1-2.55-.06-3.79-.28-1.25-.18-2.49-.36-3.72-.54l-1.84-.26-1.79-.43c-2.37-.59-4.74-1.02-6.94-1.87-2.22-.77-4.43-1.4-6.45-2.39-1.02-.45-2.03-.9-3.03-1.34-.5-.22-.99-.44-1.48-.65-.47-.26-.94-.51-1.4-.77-1.85-1.02-3.63-2-5.34-2.94-1.63-1.09-3.19-2.13-4.68-3.12-.74-.5-1.46-.98-2.17-1.45-.67-.53-1.31-1.04-1.94-1.53-2.48-2.02-4.75-3.61-6.39-5.25-3.38-3.11-5.31-4.89-5.31-4.89l-5.83,6.21s2.15,1.79,5.91,4.92c1.81,1.64,4.34,3.25,7.1,5.26.69.49,1.41,1,2.15,1.53.78.47,1.58.95,2.41,1.45,1.65.98,3.38,2.02,5.19,3.1,1.9.93,3.87,1.89,5.92,2.89.51.25,1.03.5,1.55.75.54.21,1.09.42,1.64.63,1.1.42,2.21.85,3.34,1.28,2.22.95,4.66,1.53,7.1,2.24,2.42.79,5.01,1.14,7.59,1.65l1.95.36,1.99.19c1.33.13,2.67.25,4.02.38,1.35.17,2.72.06,4.08.11,1.37-.01,2.74.05,4.12-.02,1.37-.11,2.75-.22,4.13-.33l2.07-.18,2.06-.33,4.12-.67,4.06-.97c2.72-.56,5.32-1.56,7.96-2.35,1.3-.46,2.57-.99,3.85-1.48,1.28-.49,2.55-.98,3.77-1.58,1.23-.57,2.46-1.13,3.68-1.7,1.21-.59,2.37-1.24,3.55-1.85,2.37-1.19,4.57-2.61,6.79-3.91,4.33-2.76,8.42-5.57,12.08-8.51,3.71-2.87,7.03-5.81,10.04-8.56,2.97-2.8,5.64-5.42,7.9-7.84,2.28-2.4,4.18-4.58,5.72-6.38,3.07-3.63,4.65-5.83,4.65-5.83,0,0-1.69,2.12-4.92,5.59-1.62,1.72-3.62,3.79-6.01,6.07Z"/>
      <path class="cls-1" d="M139.56,160.06c-3.14.99-6.74,1.93-10.68,2.89-3.95.89-8.24,1.8-12.83,2.44-4.57.72-9.44,1.13-14.46,1.38-2.51.03-5.07.17-7.65.03-1.29-.05-2.59-.06-3.89-.14-1.3-.11-2.6-.22-3.91-.34-1.31-.08-2.61-.28-3.91-.48-1.3-.2-2.62-.36-3.92-.6-2.57-.6-5.21-.99-7.72-1.82l-3.8-1.11-3.69-1.38-1.84-.69-1.77-.83c-1.18-.55-2.35-1.1-3.52-1.65-1.15-.57-2.24-1.27-3.35-1.89-1.09-.67-2.24-1.2-3.25-1.97-1.03-.72-2.06-1.44-3.07-2.16l-1.52-1.06-1.41-1.19c-1.85-1.6-3.76-3.05-5.34-4.81-1.63-1.69-3.32-3.25-4.67-5.05-.71-.87-1.41-1.72-2.1-2.56-.34-.42-.69-.84-1.03-1.25-.3-.44-.6-.88-.9-1.32-1.19-1.74-2.33-3.42-3.44-5.04-.96-1.71-1.89-3.34-2.76-4.9-.44-.78-.86-1.53-1.28-2.27-.36-.77-.7-1.52-1.04-2.25-1.3-2.92-2.61-5.37-3.33-7.57-1.61-4.3-2.53-6.76-2.53-6.76l-8.01,2.91s1.11,2.57,3.04,7.06c.88,2.28,2.4,4.87,3.95,7.9.4.75.81,1.53,1.23,2.34.48.77.98,1.56,1.49,2.38,1.03,1.62,2.1,3.33,3.23,5.11,1.27,1.68,2.6,3.44,3.97,5.26.34.45.69.91,1.04,1.37.39.43.78.86,1.17,1.3.79.87,1.59,1.76,2.4,2.66,1.55,1.86,3.47,3.47,5.32,5.21,1.8,1.8,3.95,3.28,6.03,4.91.52.4,1.05.8,1.58,1.2.56.36,1.13.71,1.69,1.07,1.13.71,2.27,1.43,3.42,2.16,1.12.76,2.4,1.28,3.59,1.94,1.22.61,2.42,1.29,3.68,1.84,1.27.52,2.55,1.05,3.84,1.57l1.93.78,1.98.63,3.97,1.26,4.06.97c2.69.73,5.45,1.01,8.17,1.5,1.37.18,2.74.28,4.1.42,1.36.14,2.72.28,4.08.3,1.35.05,2.7.1,4.05.15,1.34.02,2.68-.04,4-.05,2.65.01,5.26-.26,7.82-.41,5.11-.51,10.03-1.17,14.62-2.13,4.61-.88,8.9-2,12.83-3.1,3.92-1.15,7.48-2.28,10.59-3.43,3.12-1.11,5.8-2.19,7.99-3.11,4.37-1.85,6.78-3.1,6.78-3.1,0,0-2.47,1.13-6.92,2.76-2.23.8-4.95,1.75-8.1,2.7Z"/>
      <path class="cls-1" d="M138.61,155.32c-3.3,0-7.01-.17-11.05-.44-4.04-.33-8.4-.75-12.97-1.51-4.58-.68-9.34-1.74-14.21-3.01-2.41-.73-4.88-1.36-7.3-2.26-1.21-.43-2.45-.83-3.67-1.3-1.2-.49-2.41-.99-3.63-1.49-1.23-.47-2.41-1.05-3.59-1.63-1.18-.58-2.39-1.13-3.56-1.74-2.28-1.34-4.67-2.51-6.83-4.04l-3.29-2.2-3.11-2.42-1.55-1.2-1.45-1.32c-.96-.88-1.91-1.75-2.87-2.63-.93-.89-1.76-1.88-2.63-2.81-.84-.96-1.78-1.82-2.52-2.85-.77-1-1.53-1.99-2.29-2.98l-1.13-1.47-.98-1.56c-1.28-2.08-2.68-4.04-3.66-6.19-1.05-2.1-2.2-4.09-2.95-6.22-.42-1.04-.83-2.06-1.24-3.07-.2-.5-.4-1-.6-1.5-.16-.51-.31-1.02-.47-1.53-.61-2.02-1.2-3.97-1.77-5.84-.41-1.92-.8-3.76-1.17-5.5-.19-.87-.36-1.72-.54-2.55-.11-.84-.21-1.66-.32-2.45-.37-3.18-.88-5.9-.91-8.22-.25-4.59-.39-7.21-.39-7.21l-8.51.38s.29,2.78.79,7.65c.16,2.44.84,5.36,1.4,8.72.15.84.31,1.71.47,2.6.23.88.47,1.79.71,2.72.49,1.85,1.01,3.8,1.55,5.84.71,1.99,1.45,4.06,2.22,6.2.19.53.39,1.07.59,1.62.24.53.49,1.06.73,1.59.49,1.07.99,2.15,1.5,3.25.93,2.24,2.27,4.35,3.52,6.56,1.18,2.25,2.79,4.32,4.28,6.48l1.14,1.62,1.29,1.53c.87,1.02,1.74,2.05,2.62,3.08.85,1.06,1.9,1.94,2.85,2.93.99.95,1.93,1.95,2.96,2.86,1.06.88,2.12,1.76,3.19,2.65l1.61,1.32,1.7,1.2,3.41,2.4,3.58,2.14c2.34,1.5,4.9,2.6,7.34,3.88,1.25.58,2.53,1.09,3.78,1.63,1.26.54,2.51,1.08,3.8,1.5,1.28.45,2.55.9,3.82,1.35,1.27.42,2.56.77,3.83,1.15,2.53.8,5.1,1.32,7.59,1.94,5.03,1.05,9.92,1.89,14.59,2.35,4.66.54,9.09.75,13.17.88,4.08.07,7.82.06,11.13-.1,3.31-.13,6.19-.36,8.55-.57,4.73-.46,7.4-.93,7.4-.93,0,0-2.69.34-7.43.56-2.37.1-5.24.19-8.54.15Z"/>
      <path class="cls-1" d="M138.71,152.7c-3.25-.54-6.89-1.32-10.83-2.24-3.93-.98-8.17-2.12-12.55-3.61-4.41-1.42-8.93-3.25-13.52-5.29-2.25-1.11-4.6-2.14-6.84-3.42-1.13-.63-2.28-1.22-3.4-1.88-1.11-.68-2.22-1.37-3.34-2.06-1.13-.66-2.2-1.43-3.28-2.19-1.07-.77-2.17-1.5-3.23-2.3-2.03-1.7-4.2-3.23-6.07-5.11l-2.89-2.7-2.67-2.9-1.33-1.44-1.21-1.54c-.8-1.02-1.6-2.04-2.4-3.06-.77-1.03-1.42-2.14-2.14-3.2-.67-1.09-1.46-2.09-2.02-3.22-.59-1.11-1.18-2.22-1.77-3.31l-.88-1.63-.72-1.7c-.93-2.26-1.98-4.42-2.6-6.7-.69-2.25-1.5-4.4-1.89-6.62-.24-1.09-.48-2.17-.72-3.23-.12-.53-.23-1.06-.35-1.58-.07-.53-.14-1.06-.21-1.58-.27-2.09-.54-4.11-.79-6.05-.09-1.96-.17-3.84-.25-5.62-.04-.89-.08-1.76-.12-2.6.03-.85.06-1.67.09-2.47.16-3.19.09-5.97.45-8.26.5-4.57.79-7.18.79-7.18l-8.46-1.02s-.17,2.79-.47,7.68c-.24,2.43-.05,5.43-.04,8.84.01.85.03,1.73.04,2.64.08.91.17,1.84.26,2.8.18,1.91.37,3.92.58,6.01.38,2.08.77,4.24,1.17,6.48.1.56.21,1.12.31,1.69.15.56.31,1.12.46,1.69.31,1.13.63,2.29.95,3.45.55,2.36,1.53,4.66,2.4,7.05.8,2.42,2.04,4.71,3.16,7.1l.86,1.79,1.03,1.72c.69,1.15,1.38,2.3,2.08,3.47.66,1.18,1.56,2.23,2.33,3.35.82,1.1,1.58,2.24,2.46,3.31.9,1.04,1.81,2.09,2.71,3.14l1.37,1.57,1.49,1.46,2.98,2.92,3.18,2.7c2.07,1.86,4.41,3.37,6.61,5.02,1.14.78,2.32,1.48,3.47,2.22,1.15.74,2.3,1.47,3.5,2.1,1.19.66,2.37,1.31,3.54,1.96,1.19.62,2.4,1.18,3.59,1.76,2.36,1.21,4.81,2.14,7.17,3.16,4.79,1.85,9.47,3.48,14.01,4.7,4.51,1.29,8.84,2.23,12.84,3.02,4.02.74,7.71,1.34,11,1.72,3.29.42,6.16.66,8.53.83,4.74.32,7.45.3,7.45.3,0,0-2.71-.11-7.42-.66-2.35-.29-5.2-.67-8.45-1.25Z"/>
      <path class="cls-1" d="M138.88,157.62c-3.26.48-6.96.84-11,1.16-4.04.26-8.42.47-13.05.37-4.63-.01-9.5-.38-14.49-.93-2.49-.37-5.03-.64-7.55-1.18-1.26-.25-2.54-.47-3.81-.76-1.26-.32-2.53-.63-3.81-.95-1.28-.29-2.53-.69-3.79-1.09-1.25-.41-2.53-.77-3.77-1.21-2.45-1-4.98-1.81-7.34-3.02l-3.58-1.7-3.43-1.95-1.71-.97-1.62-1.1c-1.07-.73-2.15-1.46-3.21-2.19-1.05-.75-2.01-1.61-3.01-2.4-.97-.83-2.03-1.54-2.9-2.46-.9-.88-1.8-1.75-2.69-2.62l-1.33-1.29-1.2-1.4c-1.57-1.88-3.23-3.61-4.51-5.59-1.34-1.93-2.76-3.73-3.81-5.73-.56-.97-1.12-1.92-1.66-2.86-.27-.47-.55-.93-.81-1.4-.23-.49-.46-.97-.68-1.44-.9-1.91-1.76-3.75-2.59-5.52-.68-1.84-1.33-3.6-1.95-5.28-.31-.84-.61-1.65-.9-2.44-.23-.82-.45-1.61-.67-2.38-.82-3.09-1.73-5.71-2.09-8-.91-4.5-1.43-7.08-1.43-7.08l-8.37,1.6s.69,2.71,1.89,7.46c.51,2.39,1.6,5.19,2.65,8.43.27.81.55,1.64.84,2.5.36.84.72,1.7,1.1,2.59.75,1.76,1.55,3.62,2.38,5.55.99,1.87,2.02,3.81,3.09,5.82.27.5.54,1,.81,1.51.31.49.63.98.95,1.47.64.99,1.29,1.99,1.95,3,1.24,2.08,2.87,3.98,4.43,5.99,1.49,2.06,3.38,3.87,5.17,5.8l1.37,1.44,1.5,1.33c1,.88,2.02,1.78,3.03,2.67.99.93,2.16,1.65,3.24,2.48,1.11.8,2.19,1.66,3.34,2.4,1.18.72,2.36,1.44,3.54,2.16l1.78,1.08,1.86.94,3.72,1.88,3.85,1.6c2.54,1.14,5.22,1.86,7.82,2.78,1.32.39,2.66.71,3.98,1.06,1.32.35,2.64.7,3.98.94,1.33.26,2.65.53,3.97.79,1.32.23,2.65.39,3.96.58,2.62.43,5.23.57,7.79.83,5.13.31,10.08.44,14.77.22,4.69-.14,9.1-.57,13.16-1.02,4.05-.52,7.75-1.07,11-1.71,3.26-.6,6.07-1.25,8.38-1.8,4.61-1.13,7.19-1.98,7.19-1.98,0,0-2.62.72-7.27,1.63-2.33.44-5.16.94-8.43,1.38Z"/>
      <path class="cls-1" d="M139.22,150.19c-3.12-1.05-6.59-2.4-10.33-3.94-3.72-1.6-7.72-3.39-11.81-5.57-4.12-2.1-8.3-4.63-12.51-7.38-2.05-1.46-4.2-2.84-6.2-4.47-1.01-.8-2.06-1.57-3.06-2.4-.98-.85-1.97-1.71-2.96-2.57-1.01-.83-1.95-1.76-2.89-2.69-.94-.93-1.9-1.83-2.82-2.78-1.73-2-3.63-3.86-5.18-6.01l-2.42-3.13-2.18-3.29-1.08-1.64-.95-1.71c-.63-1.14-1.25-2.27-1.88-3.4-.6-1.14-1.06-2.34-1.6-3.5-.49-1.18-1.11-2.29-1.48-3.5-.41-1.19-.81-2.38-1.22-3.55l-.6-1.75-.44-1.79c-.55-2.38-1.25-4.68-1.5-7.03-.33-2.33-.78-4.58-.81-6.83-.06-1.12-.13-2.22-.19-3.3-.03-.54-.06-1.08-.1-1.61.02-.54.03-1.07.05-1.6.06-2.11.12-4.14.18-6.1.22-1.95.44-3.81.64-5.59.1-.89.2-1.75.3-2.59.17-.83.33-1.64.48-2.43.66-3.13,1.04-5.88,1.76-8.08,1.23-4.43,1.93-6.96,1.93-6.96l-8.19-2.36s-.61,2.73-1.69,7.5c-.63,2.36-.92,5.35-1.45,8.72-.12.84-.25,1.71-.38,2.61-.06.91-.13,1.84-.19,2.8-.12,1.91-.26,3.93-.39,6.03.04,2.11.08,4.31.12,6.58.01.57.03,1.14.04,1.72.06.58.12,1.16.18,1.74.13,1.17.25,2.36.38,3.56.17,2.41.76,4.85,1.24,7.34.4,2.51,1.26,4.98,1.99,7.51.19.63.38,1.27.57,1.9.25.62.49,1.24.74,1.86.5,1.24,1,2.49,1.5,3.75.46,1.27,1.18,2.45,1.77,3.68.63,1.21,1.2,2.47,1.9,3.66.72,1.17,1.45,2.35,2.18,3.53l1.1,1.76,1.23,1.68,2.47,3.36,2.71,3.17c1.74,2.17,3.82,4.03,5.72,6.01,1,.95,2.05,1.83,3.07,2.75,1.02.91,2.04,1.82,3.12,2.63,1.07.84,2.13,1.67,3.19,2.5,1.07.81,2.19,1.54,3.27,2.31,2.14,1.57,4.41,2.88,6.57,4.26,4.43,2.59,8.8,4.95,13.08,6.87,4.24,2,8.37,3.61,12.2,5.03,3.85,1.37,7.39,2.55,10.58,3.45,3.18.93,5.98,1.63,8.29,2.18,4.63,1.07,7.31,1.48,7.31,1.48,0,0-2.66-.54-7.22-1.84-2.28-.66-5.03-1.49-8.14-2.58Z"/>
      <path class="cls-1" d="M141.24,145.8c-2.67-1.94-5.57-4.26-8.68-6.85-3.07-2.64-6.35-5.55-9.6-8.85-3.3-3.24-6.53-6.9-9.73-10.78-1.52-2-3.16-3.97-4.58-6.12-.73-1.06-1.5-2.11-2.2-3.21-.68-1.11-1.37-2.22-2.06-3.34-.72-1.1-1.33-2.26-1.95-3.43-.61-1.17-1.27-2.31-1.86-3.5-1.05-2.42-2.31-4.77-3.14-7.28l-1.37-3.71-1.09-3.79-.55-1.89-.39-1.92c-.26-1.27-.52-2.54-.77-3.81-.23-1.27-.31-2.55-.48-3.82-.11-1.27-.37-2.52-.36-3.79-.03-1.26-.07-2.51-.1-3.75l-.05-1.85.12-1.84c.19-2.44.21-4.84.68-7.16.39-2.32.63-4.6,1.27-6.76.27-1.09.54-2.16.81-3.21.13-.53.26-1.05.39-1.57.17-.51.35-1.01.52-1.51.69-1.99,1.36-3.92,2-5.76.8-1.79,1.56-3.51,2.29-5.14.36-.81.72-1.61,1.06-2.38.41-.75.8-1.47,1.19-2.17,1.57-2.79,2.75-5.3,4.09-7.18,2.49-3.86,3.92-6.06,3.92-6.06l-7.11-4.7s-1.4,2.42-3.86,6.65c-1.31,2.06-2.47,4.83-3.99,7.88-.37.77-.75,1.56-1.14,2.38-.33.85-.67,1.72-1.02,2.62-.69,1.79-1.42,3.67-2.18,5.64-.59,2.03-1.21,4.14-1.85,6.32-.16.55-.32,1.1-.48,1.65-.11.57-.23,1.14-.35,1.72-.23,1.15-.46,2.32-.7,3.51-.56,2.35-.72,4.85-1.01,7.37-.37,2.52-.28,5.13-.35,7.76l-.03,1.98.15,2c.1,1.33.2,2.68.31,4.03.06,1.35.4,2.69.58,4.04.24,1.35.41,2.71.72,4.06.34,1.33.68,2.67,1.02,4.02l.52,2.01.67,1.97,1.35,3.94,1.64,3.84c1.02,2.59,2.44,4.98,3.66,7.45.67,1.2,1.41,2.36,2.1,3.54.7,1.18,1.4,2.35,2.19,3.45.77,1.12,1.53,2.23,2.29,3.34.78,1.09,1.62,2.13,2.42,3.18,1.57,2.14,3.34,4.07,5,6.03,3.45,3.8,6.91,7.35,10.42,10.47,3.45,3.18,6.91,5.95,10.13,8.45,3.26,2.46,6.29,4.65,9.06,6.46,2.75,1.84,5.21,3.35,7.25,4.56,4.09,2.41,6.53,3.6,6.53,3.6,0,0-2.38-1.31-6.34-3.91-1.97-1.31-4.35-2.93-7-4.9Z"/>
      <path class="cls-1" d="M142.86,143.74c-2.31-2.35-4.8-5.11-7.44-8.18-2.6-3.11-5.36-6.51-8.03-10.3-2.73-3.74-5.32-7.88-7.83-12.23-1.17-2.22-2.46-4.43-3.52-6.79-.54-1.17-1.13-2.33-1.65-3.52-.49-1.2-.99-2.41-1.49-3.63-.53-1.2-.94-2.45-1.36-3.7-.42-1.25-.87-2.49-1.26-3.76-.64-2.56-1.49-5.08-1.91-7.7l-.75-3.89-.46-3.92-.23-1.95-.08-1.96c-.05-1.3-.09-2.59-.14-3.89-.02-1.29.11-2.57.15-3.85.1-1.27.05-2.55.26-3.79.17-1.25.35-2.49.52-3.72l.25-1.84.42-1.79c.58-2.38,1-4.74,1.84-6.95.76-2.23,1.37-4.44,2.36-6.46.45-1.03.89-2.04,1.32-3.04.22-.5.43-.99.64-1.48.26-.47.51-.94.76-1.4,1.01-1.85,1.98-3.64,2.91-5.36,1.08-1.64,2.11-3.21,3.1-4.7.49-.74.97-1.47,1.44-2.17.52-.67,1.03-1.32,1.52-1.95,2-2.49,3.58-4.77,5.21-6.42,3.09-3.4,4.86-5.34,4.86-5.34l-6.24-5.8s-1.78,2.16-4.89,5.93c-1.63,1.82-3.23,4.36-5.23,7.12-.49.7-1,1.42-1.52,2.16-.47.78-.94,1.59-1.44,2.41-.97,1.65-2,3.39-3.07,5.2-.92,1.9-1.87,3.88-2.86,5.93-.24.51-.49,1.03-.74,1.55-.21.54-.41,1.09-.62,1.64-.42,1.1-.84,2.22-1.27,3.35-.94,2.23-1.51,4.67-2.2,7.11-.78,2.42-1.12,5.01-1.61,7.6l-.35,1.95-.18,1.99c-.12,1.33-.24,2.67-.36,4.03-.16,1.35-.05,2.72-.08,4.08.02,1.37-.04,2.74.04,4.12.12,1.37.23,2.75.35,4.13l.19,2.07.34,2.05.69,4.11.99,4.05c.58,2.72,1.59,5.31,2.39,7.95.46,1.3,1,2.56,1.5,3.84.5,1.27.99,2.54,1.6,3.76.57,1.23,1.15,2.45,1.72,3.67.59,1.2,1.25,2.36,1.87,3.54,1.2,2.36,2.63,4.56,3.94,6.77,2.79,4.31,5.62,8.39,8.57,12.03,2.89,3.7,5.84,7,8.61,10,2.81,2.96,5.45,5.61,7.89,7.85,2.41,2.27,4.6,4.15,6.41,5.69,3.64,3.05,5.85,4.62,5.85,4.62,0,0-2.13-1.68-5.61-4.9-1.73-1.62-3.81-3.6-6.1-5.97Z"/>
      <path class="cls-1" d="M140.11,147.82c-2.92-1.53-6.13-3.41-9.58-5.53-3.42-2.17-7.09-4.57-10.78-7.37-3.74-2.73-7.46-5.89-11.18-9.27-1.79-1.76-3.69-3.47-5.42-5.4-.87-.95-1.79-1.87-2.64-2.85-.84-1-1.68-2-2.52-3.01-.87-.98-1.64-2.05-2.42-3.11-.78-1.07-1.59-2.11-2.34-3.2-1.39-2.25-2.97-4.39-4.16-6.75l-1.9-3.48-1.63-3.59-.81-1.79-.67-1.84c-.44-1.22-.88-2.44-1.32-3.66-.41-1.22-.68-2.48-1.02-3.71-.29-1.24-.73-2.44-.9-3.69-.21-1.24-.43-2.48-.64-3.7l-.32-1.83-.15-1.84c-.17-2.44-.49-4.82-.36-7.18.05-2.35-.04-4.65.28-6.87.11-1.11.22-2.21.33-3.29.05-.54.11-1.08.16-1.61.1-.53.2-1.05.3-1.57.4-2.07.78-4.07,1.15-5.99.53-1.89,1.04-3.7,1.52-5.42.24-.86.48-1.69.71-2.51.3-.8.58-1.57.86-2.32,1.15-2.98,1.96-5.64,3.02-7.7,1.91-4.18,3-6.56,3-6.56l-7.71-3.63s-1.04,2.6-2.86,7.14c-.99,2.23-1.75,5.14-2.81,8.38-.26.81-.52,1.65-.79,2.52-.21.89-.42,1.8-.63,2.74-.43,1.87-.87,3.84-1.34,5.89-.3,2.09-.6,4.27-.92,6.52-.08.56-.15,1.13-.23,1.7-.03.58-.06,1.16-.09,1.75-.06,1.17-.12,2.37-.19,3.58-.22,2.41-.02,4.91.06,7.44,0,2.54.46,5.12.78,7.73l.26,1.97.44,1.96c.29,1.31.59,2.62.88,3.94.26,1.33.78,2.6,1.16,3.92.43,1.3.8,2.63,1.29,3.91.53,1.27,1.06,2.55,1.59,3.83l.81,1.92.95,1.85,1.91,3.71,2.17,3.56c1.38,2.42,3.13,4.58,4.7,6.84.84,1.09,1.73,2.14,2.59,3.2.86,1.06,1.72,2.12,2.67,3.1.92.99,1.84,1.99,2.75,2.97.93.97,1.91,1.87,2.86,2.8,1.86,1.89,3.9,3.54,5.81,5.25,3.97,3.26,7.9,6.28,11.82,8.86,3.87,2.64,7.7,4.89,11.25,6.9,3.58,1.96,6.9,3.69,9.9,5.08,2.99,1.43,5.64,2.56,7.84,3.47,4.4,1.79,6.98,2.62,6.98,2.62,0,0-2.54-.95-6.84-2.96-2.14-1.01-4.73-2.27-7.63-3.84Z"/>
      <path class="cls-1" d="M144.75,142.01c-1.91-2.69-3.92-5.81-6.04-9.26-2.07-3.48-4.25-7.28-6.28-11.45-2.1-4.13-3.99-8.62-5.78-13.32-.8-2.38-1.73-4.77-2.39-7.26-.35-1.24-.75-2.48-1.07-3.74-.29-1.27-.59-2.54-.89-3.82-.33-1.27-.54-2.57-.75-3.87-.21-1.3-.47-2.6-.64-3.91-.23-2.63-.66-5.26-.66-7.91l-.12-3.96.17-3.94.08-1.96.24-1.94c.16-1.29.32-2.58.48-3.86.19-1.28.52-2.52.76-3.77.3-1.24.45-2.51.86-3.7.37-1.2.74-2.4,1.1-3.59l.54-1.77.7-1.71c.95-2.25,1.74-4.52,2.92-6.57,1.11-2.08,2.06-4.16,3.36-6.01.6-.94,1.2-1.87,1.79-2.79.29-.46.58-.91.87-1.36.33-.43.65-.85.97-1.27,1.29-1.67,2.54-3.28,3.73-4.83,1.33-1.44,2.6-2.83,3.81-4.14.6-.66,1.19-1.3,1.76-1.92.62-.58,1.23-1.14,1.82-1.68,2.38-2.14,4.3-4.14,6.17-5.5,3.59-2.86,5.65-4.5,5.65-4.5l-5.24-6.72s-2.1,1.85-5.78,5.08c-1.9,1.54-3.88,3.79-6.3,6.2-.6.61-1.21,1.24-1.84,1.89-.58.7-1.18,1.42-1.8,2.15-1.23,1.48-2.51,3.03-3.86,4.65-1.21,1.73-2.47,3.53-3.77,5.4-.32.47-.65.94-.98,1.41-.29.5-.58,1.01-.88,1.52-.59,1.02-1.18,2.06-1.78,3.11-1.29,2.05-2.23,4.37-3.31,6.67-1.15,2.27-1.9,4.77-2.8,7.25-.22.62-.44,1.25-.66,1.87-.16.64-.33,1.29-.5,1.94-.33,1.3-.66,2.6-.99,3.92-.37,1.3-.48,2.67-.73,4.02-.2,1.35-.48,2.7-.61,4.07-.1,1.37-.21,2.75-.31,4.14l-.15,2.07v2.08s.04,4.17.04,4.17l.33,4.16c.14,2.78.72,5.5,1.1,8.23.25,1.35.58,2.69.87,4.03.29,1.34.58,2.67.98,3.97.37,1.3.74,2.6,1.11,3.89.39,1.28.86,2.53,1.28,3.79.81,2.53,1.87,4.92,2.81,7.31,2.06,4.7,4.21,9.17,6.54,13.25,2.26,4.11,4.65,7.84,6.91,11.24,2.31,3.37,4.48,6.41,6.53,9.01,2.02,2.62,3.88,4.83,5.42,6.64,3.11,3.59,5.04,5.5,5.04,5.5,0,0-1.83-2-4.76-5.73-1.45-1.87-3.19-4.16-5.07-6.87Z"/>
      <path class="cls-1" d="M148.97,139.64c-1.02-3.13-2-6.72-3-10.65-.93-3.94-1.88-8.22-2.57-12.8-.77-4.56-1.23-9.42-1.53-14.44-.05-2.51-.22-5.06-.11-7.64.04-1.29.03-2.59.1-3.89.1-1.3.2-2.6.3-3.91.07-1.31.25-2.61.44-3.92.19-1.3.33-2.62.56-3.92.57-2.58.94-5.22,1.74-7.74l1.07-3.81,1.34-3.71.67-1.85.81-1.78c.54-1.18,1.08-2.36,1.61-3.54.56-1.16,1.25-2.25,1.86-3.37.66-1.09,1.18-2.26,1.93-3.28.71-1.04,1.42-2.07,2.13-3.09l1.05-1.53,1.18-1.42c1.58-1.86,3.01-3.79,4.75-5.39,1.68-1.65,3.22-3.36,5-4.72.86-.72,1.71-1.43,2.54-2.12.42-.35.83-.69,1.24-1.04.44-.31.88-.61,1.31-.92,1.73-1.2,3.4-2.37,5-3.49,1.7-.98,3.33-1.92,4.87-2.81.77-.45,1.53-.88,2.26-1.3.77-.36,1.51-.72,2.23-1.06,2.91-1.33,5.34-2.66,7.53-3.4,4.29-1.66,6.73-2.6,6.73-2.6l-2.99-7.98s-2.56,1.13-7.03,3.12c-2.27.9-4.84,2.45-7.86,4.03-.75.4-1.53.82-2.32,1.25-.77.49-1.55,1-2.36,1.52-1.61,1.04-3.31,2.14-5.07,3.28-1.67,1.29-3.41,2.63-5.21,4.02-.45.35-.9.7-1.36,1.06-.43.39-.86.79-1.29,1.19-.86.8-1.74,1.61-2.63,2.43-1.84,1.57-3.44,3.5-5.15,5.37-1.78,1.82-3.24,3.98-4.84,6.08l-1.19,1.59-1.05,1.7c-.7,1.14-1.41,2.29-2.12,3.44-.75,1.13-1.26,2.41-1.9,3.61-.6,1.23-1.26,2.44-1.8,3.7-.51,1.28-1.02,2.56-1.54,3.85l-.76,1.94-.61,1.99-1.22,3.99-.93,4.06c-.7,2.69-.96,5.46-1.42,8.18-.16,1.37-.25,2.74-.38,4.1-.12,1.36-.25,2.72-.25,4.08-.04,1.36-.07,2.7-.11,4.05,0,1.34.06,2.68.09,4,.02,2.65.32,5.25.5,7.82.56,5.11,1.27,10.01,2.28,14.6.93,4.6,2.09,8.87,3.23,12.79,1.19,3.9,2.36,7.46,3.54,10.55,1.14,3.11,2.25,5.77,3.19,7.95,1.9,4.36,3.17,6.75,3.17,6.75,0,0-1.15-2.46-2.83-6.89-.83-2.22-1.8-4.93-2.78-8.07Z"/>
      <path class="cls-1" d="M151.49,138.93c-.49-3.26-.88-6.96-1.21-10.99-.28-4.04-.51-8.42-.44-13.05-.01-4.63.33-9.5.85-14.5.36-2.49.61-5.03,1.14-7.56.25-1.27.45-2.55.74-3.82.31-1.26.62-2.53.93-3.81.28-1.28.68-2.54,1.07-3.8.4-1.26.76-2.53,1.19-3.78.99-2.45,1.78-4.99,2.98-7.35l1.68-3.59,1.93-3.44.96-1.71,1.09-1.63c.73-1.08,1.45-2.15,2.17-3.23.74-1.05,1.6-2.02,2.38-3.02.83-.97,1.53-2.03,2.44-2.91.87-.91,1.74-1.81,2.6-2.7l1.28-1.34,1.39-1.21c1.87-1.58,3.59-3.25,5.57-4.54,1.92-1.35,3.72-2.78,5.71-3.84.96-.57,1.92-1.13,2.85-1.68.47-.28.93-.55,1.39-.82.48-.23.96-.46,1.44-.69,1.9-.91,3.74-1.78,5.51-2.62,1.84-.69,3.59-1.35,5.27-1.98.83-.31,1.65-.62,2.44-.91.82-.23,1.61-.46,2.38-.68,3.09-.84,5.7-1.76,7.99-2.13,4.5-.93,7.07-1.47,7.07-1.47l-1.64-8.36s-2.71.7-7.44,1.93c-2.39.52-5.18,1.63-8.42,2.69-.81.28-1.64.56-2.5.85-.84.36-1.7.73-2.58,1.11-1.76.76-3.61,1.57-5.54,2.41-1.86,1-3.8,2.04-5.8,3.12-.5.27-1,.54-1.51.82-.48.32-.97.64-1.47.96-.98.65-1.98,1.3-2.99,1.97-2.07,1.25-3.96,2.89-5.96,4.46-2.05,1.5-3.85,3.4-5.77,5.2l-1.43,1.37-1.32,1.51c-.88,1.01-1.76,2.02-2.65,3.05-.92.99-1.64,2.17-2.47,3.25-.79,1.12-1.64,2.2-2.39,3.36-.71,1.18-1.43,2.36-2.14,3.55l-1.07,1.78-.93,1.86-1.86,3.73-1.58,3.86c-1.13,2.54-1.84,5.23-2.73,7.84-.39,1.32-.7,2.66-1.04,3.99-.35,1.32-.69,2.64-.92,3.98-.26,1.33-.51,2.66-.77,3.98-.23,1.32-.38,2.65-.56,3.96-.42,2.62-.55,5.24-.79,7.79-.28,5.13-.38,10.09-.14,14.77.16,4.69.61,9.1,1.09,13.15.54,4.05,1.11,7.74,1.76,10.99.62,3.25,1.28,6.06,1.84,8.37,1.16,4.61,2.02,7.18,2.02,7.18,0,0-.74-2.61-1.66-7.26-.45-2.33-.97-5.16-1.43-8.42Z"/>
      <path class="cls-1" d="M146.87,140.61c-1.46-2.95-2.95-6.36-4.5-10.1-1.49-3.76-3.05-7.87-4.39-12.3-1.42-4.41-2.57-9.15-3.6-14.07-.41-2.48-.95-4.98-1.21-7.55-.15-1.28-.34-2.56-.46-3.86-.09-1.3-.18-2.6-.27-3.91-.12-1.31-.13-2.62-.13-3.94,0-1.32-.05-2.64-.02-3.96.2-2.64.18-5.3.6-7.91l.51-3.93.79-3.86.39-1.92.54-1.88c.36-1.25.72-2.49,1.09-3.73.39-1.23.91-2.41,1.35-3.6.49-1.18.84-2.4,1.44-3.52.56-1.13,1.11-2.25,1.66-3.37l.82-1.66.96-1.57c1.3-2.07,2.44-4.19,3.93-6.02,1.42-1.87,2.7-3.78,4.27-5.4.75-.83,1.48-1.66,2.21-2.47.36-.4.72-.81,1.08-1.21.39-.37.78-.73,1.16-1.1,1.54-1.44,3.02-2.84,4.45-4.17,1.54-1.22,3.01-2.38,4.42-3.49.7-.55,1.38-1.09,2.05-1.61.71-.47,1.39-.93,2.06-1.37,2.68-1.74,4.9-3.41,6.96-4.46,4-2.26,6.29-3.55,6.29-3.55l-4.11-7.47s-2.37,1.49-6.51,4.1c-2.12,1.22-4.44,3.13-7.2,5.12-.69.51-1.39,1.03-2.12,1.57-.69.6-1.39,1.21-2.12,1.84-1.44,1.26-2.96,2.59-4.55,3.98-1.47,1.52-3,3.1-4.58,4.73-.39.41-.79.82-1.19,1.24-.37.45-.73.9-1.1,1.36-.74.91-1.49,1.84-2.25,2.78-1.59,1.82-2.9,3.96-4.32,6.06-1.5,2.06-2.64,4.41-3.92,6.71l-.95,1.74-.8,1.84c-.53,1.23-1.06,2.47-1.6,3.71-.57,1.23-.9,2.56-1.36,3.85-.41,1.3-.9,2.59-1.25,3.92-.32,1.34-.64,2.68-.96,4.03l-.47,2.02-.32,2.06-.64,4.12-.33,4.16c-.3,2.77-.16,5.55-.22,8.3.03,1.38.15,2.75.22,4.11.07,1.37.15,2.73.34,4.07.16,1.35.32,2.69.48,4.02.19,1.33.45,2.64.67,3.95.4,2.62,1.07,5.15,1.62,7.66,1.29,4.97,2.7,9.73,4.36,14.12,1.58,4.42,3.35,8.48,5.04,12.19,1.74,3.69,3.41,7.04,5.02,9.93,1.58,2.91,3.06,5.39,4.3,7.41,2.5,4.04,4.11,6.23,4.11,6.23,0,0-1.49-2.26-3.79-6.41-1.14-2.08-2.49-4.62-3.92-7.59Z"/>
    </g>
  </g>
</svg>