<?xml version="1.0" encoding="UTF-8"?>
<svg id="Layer_2" data-name="Layer 2" xmlns="http://www.w3.org/2000/svg" viewBox="0 0 647.37 647.36">
  <defs>
    <style>
      .cls-1 {
        fill: #fddfdf;
      }
    </style>
  </defs>
  <g id="Layer_1-2" data-name="Layer 1">
    <path class="cls-1" d="M.02,325.25c.28,58.45,16.13,113.29,43.61,160.57.06.19.08.39.18.58.17.31.39.57.64.81,20.99,35.71,48.63,67.06,81.21,92.33.03.04.08.07.11.11.11.15.23.28.36.4.04.03.05.08.09.11.05.05.12.06.18.11.03.02.06.05.09.08.05.04.09.08.14.11.15.09.31.15.46.22.07.03.13.09.2.12,51.6,39.5,115.37,63.85,184.63,66.34.06,0,.12.03.19.03.08,0,.16-.01.24-.02,3.76.13,7.53.22,11.32.22,55.98,0,108.69-14.29,154.67-39.41,0,0,.02,0,.04,0,.07-.02.14-.06.21-.09.1-.03.19-.07.28-.11.1-.05.21-.07.31-.13.11-.06.2-.15.31-.23.04-.03.08-.06.12-.09.06-.05.13-.09.19-.14.03-.03.07-.05.1-.08,0,0,.02-.01.02-.02,99.32-54.98,166.85-160.64,167.42-281.85,0-.03.02-.06.02-.09s-.02-.06-.02-.09v-.02s0-.08,0-.13c0-.4.02-.81.02-1.21,0-48.87-10.91-95.23-30.38-136.81-.05-.18-.05-.37-.13-.55-.08-.18-.23-.31-.34-.46-16.76-35.48-39.79-67.43-67.64-94.44-.31-.5-.72-.9-1.21-1.18C489.47,34.38,410.52,0,323.68,0c-30.48,0-59.99,4.24-87.97,12.15-.06,0-.12.02-.17.03-.13.02-.25.08-.37.12C99.58,50.9,0,175.88,0,323.68c0,.45.02.91.02,1.36,0,.03-.02.05-.02.09h0s.02.08.02.12ZM640.45,317.93l-109.46-87.84,81-37.74c17.56,38.39,27.66,80.87,28.45,125.58ZM6.94,331.5l142.25,92.65-100.99,55.9c-25.1-44.04-39.95-94.65-41.26-148.55ZM537.45,100.53l-106.86,123.28-220.33,16.6,327.19-139.88ZM527.13,235.76l107.09,85.95h-118.92l11.83-85.95ZM629.19,328.55l-280.49,137.36,1.96-137.36h278.53ZM500.88,398.99l-24.98,191.59-58.91-150.51,83.88-41.08ZM142.06,567.1l107.18-123.65,86.72,28.69-193.9,94.96ZM254.1,437.86l89.64-103.41-1.89,132.44-87.75-29.03ZM354.78,321.71l76.03-87.72,27.67,87.72h-103.7ZM194.59,239.67L237.34,26.92l62.34,167.82-105.1,44.93ZM190.78,248.74l233.44-17.6-78.5,90.56h-171.41s0,0,0,0c-.02,0-.04,0-.07,0H20.12l170.66-72.96ZM153.44,418.76L14.94,328.55h154.68l-16.17,90.22ZM176.56,328.55h163.23l-205.78,237.39,42.54-237.39ZM288.35,503.08l19.8,137.05c-64.61-3.14-124.21-25.72-173.04-62.01l153.24-75.05ZM345.85,474.92c.19-.04.37-.07.55-.14.12-.04.22-.11.34-.17.25-.13.47-.27.68-.45,0,0,.02-.01.03-.02l63.38-31.04,60.24,153.91-172.71-98.83,47.49-23.26ZM507.81,398.77l64.84,39.41-89.6,150.48,24.76-189.89ZM576.15,432.3l-63.93-38.86,122.91-60.2-58.98,99.05ZM508.4,321.71h-42.74l-29.58-93.79,101.31-116.88-28.99,210.66ZM419.87,143.36l-9.2-124.38c48.83,13.96,92.87,39.39,129.03,73.14l-119.83,51.23ZM305.99,192.05L244.19,25.69l165.78,121.9-103.97,44.45ZM187.67,239.39l-73.84-55.34L229.77,29.92l-42.1,209.47ZM109.71,189.51l73.45,55.05L13.85,316.94l95.86-127.43ZM51.66,485.96l99.63-55.15-25.16,140.38c-29.62-23.69-54.9-52.56-74.47-85.24ZM315.09,640.4l-19.65-136.01,174.89,100.08c-43.88,23.01-93.76,36.05-146.65,36.05-2.87,0-5.74-.04-8.59-.12ZM487.29,594.92l91.82-154.21c.75-.24,1.43-.73,1.88-1.46.45-.74.55-1.59.41-2.38l58.78-98.73c-4.91,108.85-64.99,203.57-152.89,256.78ZM609.1,186.16l-80.29,37.41,16.79-121.99,1.79-2.06c25.13,25.08,46.08,54.34,61.71,86.64ZM403.68,17.08l9.18,124.15L243.93,17.01c25.49-6.63,52.21-10.17,79.75-10.17s54.43,3.56,79.99,10.24ZM227.27,21.86L6.97,314.71C10.81,177.52,102.28,61.88,227.27,21.86Z"/>
  </g>
</svg>