<?xml version="1.0" encoding="UTF-8"?>
<svg id="Layer_2" data-name="Layer 2" xmlns="http://www.w3.org/2000/svg" viewBox="0 0 645.24 645.24">
  <defs>
    <style>
      .cls-1 {
        fill: #fddfdf;
      }
    </style>
  </defs>
  <g id="Layer_1-2" data-name="Layer 1">
    <path class="cls-1" d="M557.07,101.23C498.21,38.94,414.88,0,322.62,0S147.04,38.94,88.18,101.23h-1.82v1.96C32.81,160.8,0,237.94,0,322.62s32.81,161.82,86.36,219.44v1.95h1.82c58.86,62.3,142.18,101.23,234.44,101.23s175.59-38.94,234.45-101.23h1.82v-1.96c53.55-57.62,86.35-134.76,86.35-219.44s-32.81-161.82-86.35-219.43v-1.96h-1.83ZM322.62,6.58c88.12,0,167.92,36.27,225.3,94.64H97.33C154.7,42.85,234.5,6.58,322.62,6.58ZM552.31,537.43h-203.49c102.37-17.2,180.63-106.38,180.63-213.56,0-56.38-21.67-107.77-57.08-146.35v-13.04h-13.04c-35.21-32.38-81.13-53.24-131.77-56.66h224.75v429.62ZM92.94,107.81h205.18c-50.64,3.42-96.57,24.28-131.77,56.66h-18.25v18.98c-32.3,37.85-51.87,86.87-51.87,140.41s19.57,102.57,51.87,140.41v2.31h2c32.21,36.69,76.57,62.41,126.76,70.84H92.94V107.81ZM168.98,171.06h52.21c-12.28,6.86-23.55,15.31-33.53,25.07h-2.14v2.12c-12.67,12.87-23.14,27.89-30.83,44.47v-56.81c4.52-5.18,9.29-10.13,14.29-14.84ZM154.68,176.08v-5.02h4.78c-1.63,1.64-3.2,3.33-4.78,5.02ZM359.82,171.06c14.14,6.38,27.12,14.86,38.55,25.07h-201.09c11.43-10.2,24.41-18.68,38.55-25.07h123.99ZM253.05,164.47c14.16-4.4,29.19-6.77,44.77-6.77s30.62,2.37,44.77,6.77h-89.54ZM412.78,210.88c22.54,26.41,36.2,60.62,36.2,97.98s-13.66,71.57-36.2,97.97v-195.95ZM406.19,301.27c-3.91-54.7-49.63-98.03-105.3-98.03s-105.61,47.38-105.61,105.62,47.37,105.61,105.61,105.61,101.4-43.32,105.3-98.03v97.62c-.28.29-.56.59-.84.88h-213.26v-212.24h213.21c.3.31.59.62.89.93v97.63ZM399.91,308.86c0,54.61-44.42,99.03-99.02,99.03s-99.03-44.42-99.03-99.03,44.42-99.03,99.03-99.03,99.02,44.43,99.02,99.03ZM154.68,375c7.69,16.57,18.16,31.6,30.83,44.47v2.07h2.08c18.07,17.68,40.36,31.06,65.2,38.47h-98.11v-85.01ZM154.68,260.42c6.67-19.64,17.24-37.5,30.83-52.59v202.05c-13.59-15.1-24.16-32.95-30.83-52.59v-96.87ZM148.1,329.3c-.91-6.69-1.42-13.51-1.42-20.45s.51-13.76,1.42-20.45v40.9ZM197.22,421.53h201.21c-26.74,23.91-62,38.47-100.61,38.47s-73.86-14.57-100.6-38.47ZM148.1,259.34c-5.16,15.58-8.01,32.22-8.01,49.51s2.84,33.93,8.01,49.51v95.54c-28.32-35.79-45.29-80.96-45.29-130.04s16.97-94.25,45.29-130.05v65.52ZM466.73,466.59c-38.38,41.36-93.15,67.3-153.9,67.3s-115.51-25.94-153.89-67.3h307.79ZM465.78,180.15v279.85h-122.93c24.84-7.42,47.13-20.79,65.2-38.47h4.72v-4.84c26.5-28.23,42.78-66.16,42.78-107.84s-16.28-79.61-42.78-107.84v-4.89h-4.78c-9.99-9.76-21.25-18.21-33.53-25.07h82.23c3.12,2.94,6.15,5.96,9.08,9.09ZM472.37,187.48c31.44,36.73,50.5,84.36,50.5,136.38s-19.06,99.66-50.5,136.38V187.48ZM361.24,164.47c-19.42-8.56-40.86-13.35-63.41-13.35s-43.99,4.79-63.41,13.35h-58.11c36.75-31.52,84.44-50.63,136.54-50.63s99.79,19.11,136.54,50.63h-88.14ZM6.58,322.62c0-80.37,30.18-153.82,79.77-209.65v419.3C36.76,476.44,6.58,403,6.58,322.62ZM322.62,638.66c-88.12,0-167.92-36.27-225.3-94.65h450.6c-57.38,58.38-137.18,94.65-225.3,94.65ZM638.66,322.62c0,80.37-30.17,153.82-79.77,209.65V112.98c49.6,55.83,79.77,129.27,79.77,209.64Z"/>
  </g>
</svg>