<?xml version="1.0" encoding="UTF-8"?>
<svg id="Layer_2" data-name="Layer 2" xmlns="http://www.w3.org/2000/svg" viewBox="0 0 643.13 643.13">
  <defs>
    <style>
      .cls-1 {
        fill: #fddfdf;
      }

      .cls-2 {
        fill: none;
        stroke: #fddfdf;
        stroke-miterlimit: 10;
        stroke-width: 6px;
      }
    </style>
  </defs>
  <g id="Layer_1-2" data-name="Layer 1">
    <g>
      <path class="cls-2" d="M640.13,321.56c0,175.67-142.9,318.57-318.56,318.57S3,497.23,3,321.56,145.9,3,321.57,3s318.56,142.91,318.56,318.56Z"/>
      <g>
        <path class="cls-1" d="M423.44,321.56c0,114.83-93.41,208.24-208.24,208.24S6.97,436.39,6.97,321.56,100.4,113.34,215.2,113.34s208.24,93.41,208.24,208.22ZM14.93,321.56c0,110.44,89.85,200.27,200.27,200.27s200.28-89.83,200.28-200.27-89.85-200.26-200.28-200.26S14.93,211.14,14.93,321.56Z"/>
        <path class="cls-1" d="M636.14,321.56c0,114.83-93.41,208.24-208.23,208.24s-208.23-93.41-208.23-208.24,93.41-208.22,208.23-208.22,208.23,93.41,208.23,208.22ZM227.64,321.56c0,110.44,89.84,200.27,200.27,200.27s200.27-89.83,200.27-200.27-89.84-200.26-200.27-200.26-200.27,89.84-200.27,200.26Z"/>
      </g>
      <g>
        <path class="cls-1" d="M529.79,427.92c0,114.83-93.41,208.22-208.22,208.22s-208.24-93.4-208.24-208.22,93.41-208.24,208.24-208.24,208.22,93.41,208.22,208.24ZM121.29,427.92c0,110.42,89.84,200.27,200.27,200.27s200.26-89.84,200.26-200.27-89.83-200.27-200.26-200.27-200.27,89.84-200.27,200.27Z"/>
        <path class="cls-1" d="M529.79,215.21c0,114.82-93.41,208.24-208.22,208.24s-208.24-93.42-208.24-208.24S206.74,6.98,321.57,6.98s208.22,93.41,208.22,208.23ZM121.29,215.21c0,110.44,89.84,200.27,200.27,200.27s200.26-89.84,200.26-200.27S432,14.94,321.57,14.94,121.29,104.79,121.29,215.21Z"/>
      </g>
      <path class="cls-1" d="M494.72,321.58c0,95.48-77.69,173.15-173.15,173.15s-173.16-77.67-173.16-173.15,77.67-173.16,173.16-173.16,173.15,77.67,173.15,173.16ZM156.37,321.58c0,91.09,74.1,165.18,165.2,165.18s165.18-74.09,165.18-165.18-74.09-165.2-165.18-165.2-165.2,74.09-165.2,165.2Z"/>
      <path class="cls-1" d="M389.79,321.58c0,37.61-30.61,68.21-68.22,68.21s-68.24-30.6-68.24-68.21,30.61-68.24,68.24-68.24,68.22,30.61,68.22,68.24ZM261.31,321.58c0,33.22,27.04,60.25,60.26,60.25s60.26-27.03,60.26-60.25-27.04-60.27-60.26-60.27-60.26,27.04-60.26,60.27Z"/>
      <path class="cls-1" d="M588.09,321.58c0,146.96-119.56,266.52-266.53,266.52S55.04,468.54,55.04,321.58,174.6,55.03,321.57,55.03s266.53,119.57,266.53,266.54ZM63.01,321.58c0,142.56,115.97,258.55,258.56,258.55s258.56-115.99,258.56-258.55S464.13,63.01,321.57,63.01,63.01,179,63.01,321.58Z"/>
    </g>
  </g>
</svg>