<?xml version="1.0" encoding="UTF-8"?>
<svg id="Layer_2" data-name="Layer 2" xmlns="http://www.w3.org/2000/svg" viewBox="0 0 642.11 642.08">
  <defs>
    <style>
      .cls-1 {
        fill: none;
        stroke: #fd406f;
        stroke-miterlimit: 10;
        stroke-width: 6px;
      }

      .cls-2 {
        fill: #fd406f;
      }
    </style>
  </defs>
  <g id="Layer_1-2" data-name="Layer 1">
    <g>
      <g>
        <path class="cls-2" d="M627.37,326.6v.02c0,4.97-.14,10.2-.41,15.53-.08,1.74-.2,3.46-.36,5.19l-.28,3.98c-.14,2.04-.27,4.09-.47,6.12-.27,2.67-.59,5.34-.95,8l-.39,3.1c-.16,1.36-.33,2.7-.53,4.05-.48,3.29-1.06,6.57-1.65,9.85l-.3,1.69c-.2,1.15-.42,2.32-.62,3.47-.65,3.35-1.42,6.65-2.2,9.96l-.36,1.67c-.27,1.12-.5,2.25-.76,3.35-.81,3.19-1.7,6.37-2.59,9.53l-.53,1.91c-.31,1.16-.64,2.32-.98,3.45-.84,2.8-1.76,5.57-2.7,8.33l-.72,2.14c-.47,1.44-.95,2.9-1.47,4.33-.8,2.19-1.61,4.37-2.46,6.57l-1.09,2.79c-.67,1.74-1.34,3.5-2.06,5.22-.8,1.96-1.65,3.9-2.53,5.84l-.39.83c-.81,1.92-1.67,3.81-2.56,5.72l-1.36,2.88-3.12-.69c-11.79-2.61-23.2-6.79-33.89-12.41l-1.42-.75c-44.48-24.03-72.08-70.33-72.08-120.78s27.52-96.59,71.78-120.67l.62-.31c11.26-6.04,23.25-10.45,35.7-13.15l3.15-.68,1.31,2.91c.65,1.37,1.26,2.74,1.86,4.11l.55,1.21c.81,1.82,1.62,3.66,2.37,5.49.8,1.95,1.57,3.91,2.32,5.88l.61,1.56c.94,2.39,1.84,4.75,2.68,7.13.55,1.54,1.06,3.08,1.56,4.62l.47,1.37c.98,2.93,1.96,5.86,2.85,8.8.36,1.23.7,2.49,1.08,3.74l.44,1.59c.89,3.18,1.78,6.36,2.57,9.56.28,1.12.51,2.25.78,3.38l.36,1.62c.78,3.31,1.54,6.63,2.2,9.96.19,1.11.39,2.19.58,3.28l.33,1.86c.61,3.29,1.18,6.6,1.67,9.89.2,1.33.37,2.67.53,4.01l.39,3.06c.34,2.71.69,5.4.95,8.09.2,2.01.33,4.05.47,6.11l.31,4.31c.14,1.62.25,3.24.33,4.86.27,5.33.41,10.56.41,15.52ZM592.14,452.93c.41-.87.8-1.75,1.17-2.63l.39-.84c.83-1.89,1.68-3.76,2.46-5.66.69-1.67,1.34-3.35,1.98-5.05l1.08-2.78c.84-2.11,1.64-4.25,2.4-6.38.5-1.37.94-2.75,1.42-4.16l.7-2.14c.9-2.68,1.79-5.38,2.62-8.09.33-1.11.62-2.21.94-3.32l.56-1.92c.86-3.09,1.72-6.18,2.5-9.28.25-1.06.5-2.12.73-3.19l.39-1.72c.76-3.24,1.48-6.46,2.12-9.69.22-1.08.41-2.2.59-3.3l.33-1.72c.56-3.21,1.12-6.43,1.61-9.64.17-1.28.34-2.54.48-3.82l.41-3.17c.34-2.59.65-5.18.92-7.77.2-1.96.33-3.93.47-5.89l.31-4.05c.11-1.65.25-3.31.33-4.95.25-5.21.39-10.3.39-15.15v-.02c0-4.85-.14-9.93-.39-15.13-.08-1.53-.19-3.08-.31-4.62l-.33-4.41c-.14-1.96-.27-3.93-.47-5.88-.27-2.6-.58-5.24-.92-7.83l-.41-3.13c-.14-1.26-.31-2.53-.48-3.78-.48-3.22-1.05-6.45-1.64-9.66l-.33-1.9c-.17-1.04-.36-2.08-.56-3.1-.64-3.24-1.36-6.47-2.12-9.7l-.37-1.68c-.25-1.06-.5-2.14-.75-3.19-.78-3.13-1.62-6.25-2.51-9.33l-.45-1.6c-.33-1.2-.67-2.4-1.03-3.59-.87-2.88-1.81-5.74-2.76-8.58l-.47-1.39c-.48-1.48-.98-2.97-1.51-4.46-.83-2.32-1.73-4.62-2.6-6.93l-.61-1.55c-.72-1.91-1.47-3.83-2.25-5.72-.75-1.78-1.53-3.54-2.31-5.3l-.55-1.22c-.16-.36-.31-.72-.47-1.08-10.64,2.57-20.87,6.49-30.46,11.63l-.76.39c-41.57,22.61-67.51,66.17-67.51,113.62s26.01,91.13,67.87,113.78l1.39.7c9.11,4.8,18.78,8.47,28.77,10.96Z"/>
        <path class="cls-2" d="M141.68,327.49c0,63.78-45.16,120.12-107.41,133.93l-3.12.69-1.33-2.89c-.89-1.89-1.75-3.79-2.57-5.68l-.51-1.15c-.8-1.85-1.64-3.67-2.4-5.54-.73-1.77-1.42-3.55-2.1-5.33l-.92-2.35c-.89-2.3-1.75-4.6-2.59-6.91-.53-1.5-1.04-3.03-1.54-4.55l-.48-1.44c-1.03-3.08-1.98-5.93-2.84-8.79-.34-1.18-.69-2.36-1.01-3.55l-.5-1.79c-.9-3.18-1.78-6.37-2.59-9.57-.28-1.11-.53-2.28-.78-3.42l-.36-1.55c-.76-3.33-1.54-6.65-2.18-10-.22-1.11-.42-2.22-.61-3.34l-.31-1.76c-.59-3.3-1.17-6.61-1.65-9.92-.2-1.34-.37-2.68-.53-4.02l-.37-3.03c-.34-2.7-.72-5.38-.97-8.09-.19-1.93-.33-3.87-.45-5.81l-.34-4.55c-.12-1.64-.27-3.29-.33-4.94-.53-10.67-.53-20.41,0-31.06.06-1.64.2-3.27.33-4.9l.3-3.9c.14-2.17.28-4.34.5-6.5.25-2.65.61-5.29.95-7.91l.41-3.31c.17-1.3.31-2.61.51-3.92.47-3.27,1.04-6.54,1.64-9.82l.27-1.5c.22-1.24.44-2.49.67-3.71.64-3.31,1.4-6.6,2.18-9.9l.36-1.67c.27-1.15.51-2.3.8-3.43.78-3.15,1.65-6.3,2.54-9.43l.5-1.77c.34-1.25.7-2.48,1.08-3.71.8-2.67,1.68-5.31,2.54-7.96l.86-2.57c.48-1.43.95-2.86,1.47-4.27.86-2.41,1.79-4.83,2.73-7.24l.41-1.03c.8-2.11,1.61-4.21,2.48-6.3.69-1.67,1.4-3.32,2.14-4.98l.67-1.54c.67-1.43,1.26-2.85,1.95-4.26l1.33-2.88,3.12.67c62.63,13.55,108.12,69.96,108.12,134.13ZM35.68,452.93c57-14.18,98.04-66.41,98.04-125.43s-41.34-111.72-98.73-125.64c-.19.41-.37.8-.55,1.2l-.69,1.54c-.7,1.6-1.4,3.18-2.06,4.8-.83,2.02-1.64,4.07-2.43,6.11l-.39,1.06c-.92,2.32-1.82,4.67-2.65,7.03-.5,1.37-.95,2.74-1.39,4.1l-.87,2.56c-.86,2.59-1.7,5.18-2.5,7.75-.36,1.18-.67,2.37-1.01,3.56l-.5,1.79c-.86,3.04-1.72,6.11-2.48,9.17-.27,1.1-.51,2.19-.76,3.27l-.37,1.72c-.75,3.21-1.47,6.41-2.1,9.64-.23,1.15-.45,2.34-.62,3.51l-.27,1.57c-.61,3.2-1.17,6.37-1.64,9.57-.17,1.23-.34,2.5-.48,3.73l-.44,3.35c-.31,2.56-.64,5.11-.89,7.69-.2,2.07-.34,4.16-.5,6.27l-.3,3.99c-.12,1.54-.23,3.09-.31,4.63-.5,10.42-.5,19.9,0,30.31.08,1.56.19,3.13.31,4.69l.34,4.62c.14,1.87.25,3.74.45,5.59.25,2.63.58,5.24.92,7.85l.41,3.09c.12,1.28.3,2.54.48,3.8.47,3.24,1.03,6.46,1.64,9.67l.31,1.82c.17,1.06.37,2.12.58,3.16.64,3.28,1.37,6.51,2.1,9.74l.37,1.61c.25,1.08.48,2.17.73,3.24.81,3.13,1.67,6.24,2.56,9.33l.5,1.82c.31,1.15.62,2.28.97,3.42.83,2.76,1.75,5.52,2.68,8.3l.56,1.68c.48,1.47.97,2.94,1.48,4.4.83,2.25,1.67,4.47,2.53,6.71l.9,2.34c.69,1.72,1.34,3.45,2.03,5.15.75,1.8,1.56,3.59,2.34,5.37l.51,1.17c.41.86.8,1.72,1.17,2.6Z"/>
      </g>
      <path class="cls-1" d="M639.11,321.05c0,175.37-142.69,318.03-318.05,318.03S3,496.42,3,321.05,145.69,3,321.06,3s318.05,142.67,318.05,318.05Z"/>
      <g>
        <path class="cls-2" d="M480.57,327.41c0,88.67-72.14,160.82-160.81,160.82s-160.84-72.15-160.84-160.82,72.16-160.83,160.84-160.83,160.81,72.15,160.81,160.83ZM166.87,327.41c0,84.28,68.58,152.85,152.89,152.85s152.87-68.57,152.87-152.85-68.6-152.88-152.87-152.88-152.89,68.58-152.89,152.88Z"/>
        <g>
          <rect class="cls-2" x="162.38" y="323.5" width="314.73" height="7.95"/>
          <rect class="cls-2" x="315.78" y="170.12" width="7.95" height="314.72"/>
        </g>
        <g>
          <polygon class="cls-2" points="433.82 435.92 428.22 441.55 205.67 219.02 211.3 213.39 433.82 435.92"/>
          <polygon class="cls-2" points="433.82 219.02 211.3 441.55 205.67 435.92 428.22 213.39 433.82 219.02"/>
        </g>
      </g>
      <rect class="cls-2" x="138.91" y="72.62" width="7.95" height="508.74"/>
      <g>
        <rect class="cls-2" x="134.66" y="515.48" width="474.45" height="7.95" transform="translate(-122.66 115.04) rotate(-15.13)"/>
        <polygon class="cls-2" points="277 480.76 145.35 584.47 140.41 578.22 272.09 474.52 277 480.76"/>
        <rect class="cls-2" x="123.77" y="490.05" width="418.08" height="7.95" transform="translate(-175.95 184.2) rotate(-24.69)"/>
      </g>
      <g>
        <polygon class="cls-2" points="601.92 192.4 599.85 200.09 141.84 76.26 143.92 68.59 601.92 192.4"/>
        <polygon class="cls-2" points="277 173.03 272.09 179.27 140.41 75.56 145.35 69.31 277 173.03"/>
        <rect class="cls-2" x="328.83" y="-49.29" width="7.95" height="418.08" transform="translate(48.69 395.45) rotate(-65.32)"/>
      </g>
    </g>
  </g>
</svg>