<?xml version="1.0" encoding="UTF-8"?>
<svg id="Layer_2" data-name="Layer 2" xmlns="http://www.w3.org/2000/svg" viewBox="0 0 647.32 647.32">
  <defs>
    <style>
      .cls-1 {
        fill: #fddfdf;
      }
    </style>
  </defs>
  <g id="Layer_1-2" data-name="Layer 1">
    <path class="cls-1" d="M323.67,0C145.2,0,0,145.19,0,323.65s145.2,323.67,323.67,323.67c106.38,0,200.92-51.6,259.96-131.07.09-.04.17-.1.25-.15.1-.05.18-.12.27-.19.05-.03.09-.06.13-.09.02-.02.05-.03.07-.04,0,0,0-.01,0-.02.08-.07.15-.16.22-.24.08-.09.16-.18.24-.28.04-.05.09-.09.13-.15.04-.06.04-.13.08-.19.05-.1.12-.18.16-.28.02-.05.05-.08.07-.12.04-.1.03-.21.05-.32.04-.14.1-.26.12-.4,38.91-53.42,61.91-119.14,61.91-190.13C647.32,145.19,502.13,0,323.67,0ZM420.82,404.15v-69.85l143.11,163.21-143.17-93.01c.01-.12.05-.23.05-.35ZM420.82,244.94l143.11-92.98-143.11,163.21v-70.23ZM417.04,239.52l-48.78-15.85,184.8-72.52-136.02,88.37ZM360.11,419.33c-.08-.06-.13-.15-.22-.21-1.53-.99-3.58-.55-4.57.98l-.65.99-89.02,28.92-91.81-126.36,91.81-126.37,90.31,29.34s.1.06.14.1c.09.06.17.13.27.19.18.11.36.19.56.26.09.04.17.08.26.1.29.08.58.13.88.14h0c.07,0,.14-.03.22-.03l55.9,18.16v156.2l-54.11,17.58ZM268.4,191.22c0-.28.04-.56-.02-.85l-34.66-152.66,116.35,180.04-81.66-26.53ZM261.82,191.36s-.07.06-.1.1l-30.33,41.75-2.22-185.63,32.65,143.78ZM168.08,320.35H25.41l191.38-67.04-48.7,67.04ZM168.08,326.96l48.7,67.03L25.41,326.96h142.68ZM261.59,455.64l-32.39,140.72,2.18-182.29,30.21,41.57ZM268.26,456.11l80.74-26.23-116.02,179.54,35.28-153.31ZM415.03,408.43c.2.25.41.5.69.68l137.34,89.22-187.84-73.72,49.81-16.18ZM421.22,324.74l157.64-179.78v359.56l-157.64-179.78ZM359.41,220.05L234.41,26.63l338.02,109.83-213.02,83.6ZM224.9,241.96c0,.05.03.09.03.14l-1.32,1.83L13.7,317.45,222.36,30.25l2.53,211.71ZM223.6,403.37l1.28,1.76-2.54,211.89L13.7,329.85l209.91,73.52ZM357.62,428.72l211.76,83.11-336.03,109.18,124.27-192.29ZM585.47,145.03c34.84,50.9,55.25,112.43,55.25,178.63s-20.41,127.73-55.25,178.63V145.03ZM574.72,130.25L233.98,19.55c28.45-8.41,58.55-12.94,89.69-12.94,102.08,0,193.02,48.5,251.05,123.65ZM218.28,24.63L6.71,315.84C9.97,181.34,97.44,67.34,218.28,24.63ZM6.71,331.46l211.6,291.23C97.44,579.98,9.97,465.98,6.71,331.46ZM323.67,640.71c-31.15,0-61.26-4.54-89.72-12.95l340.79-110.74c-58.03,75.17-148.98,123.69-251.07,123.69Z"/>
  </g>
</svg>