<?xml version="1.0" encoding="UTF-8"?>
<svg id="Layer_2" data-name="Layer 2" xmlns="http://www.w3.org/2000/svg" viewBox="0 0 647.31 647.3">
  <defs>
    <style>
      .cls-1 {
        fill: #fff;
      }
    </style>
  </defs>
  <g id="Layer_1-2" data-name="Layer 1">
    <path class="cls-1" d="M404.83,10.31c-.14-.04-.26-.08-.39-.1-.01,0-.03,0-.04-.01-.05,0-.08-.03-.13-.04-.01,0-.03,0-.04,0-25.77-6.62-52.77-10.15-80.58-10.15-30.22,0-59.48,4.17-87.25,11.96-.22.04-.42.09-.63.17-29.46,8.32-57.22,20.73-82.64,36.55,0,0-.02,0-.03.01-.2.06-.37.18-.56.27-.2.1-.4.16-.58.3-.13.1-.21.24-.32.35-28.9,18.2-54.73,40.84-76.53,66.97-.07.04-.15.07-.22.12-.14.11-.23.27-.35.41-.17.19-.35.36-.48.59,0,.01-.02.02-.03.04-.03.06-.03.12-.05.19C27.78,173.89,0,245.58,0,323.65c0,51.36,12.05,99.95,33.43,143.13.02.07,0,.15.03.22,0,.01,0,.02,0,.03.12.38.31.72.54,1.02.04.05.09.1.13.14,14.63,29.18,33.53,55.87,55.9,79.21.06.12.12.23.2.34.04.05.06.11.1.16.24.3.54.55.86.75.05.03.1.06.15.09,21.11,21.78,45.24,40.62,71.71,55.82.16.15.33.3.52.41.08.05.18.08.26.13.21.1.41.19.64.25,47.03,26.69,101.36,41.95,159.19,41.95.6,0,1.19-.02,1.79-.03.05,0,.1.03.15.03.05,0,.09-.03.14-.03.07,0,.14,0,.22,0,.12.01.24.03.36.03.05,0,.1-.03.15-.03,83.25-.71,159.09-33,216.12-85.46.57-.29,1.05-.72,1.37-1.28.42-.39.85-.79,1.27-1.18.52-.28.92-.66,1.22-1.14,62.1-59.01,100.87-142.34,100.87-234.56,0-150.44-103.18-277.23-242.48-313.34ZM579,135.95L421.44,22.05c63.7,20.71,118.62,61.07,157.56,113.89ZM140.43,430.43l-31.13,9.64,34.82-281.61,25.92,13.67-29.61,258.3ZM102.38,442.21l-61.9,19.18L79.67,124.45l58.2,30.7-35.49,287.06ZM101.49,449.41l-10.98,88.85c-19.35-21-35.92-44.61-49.08-70.24l60.07-18.62ZM108.42,447.26l36.03-11.16s.06-.04.09-.05c.29-.1.54-.26.79-.43.09-.06.21-.1.3-.18.6-.52,1.03-1.26,1.12-2.12l30.12-262.68s0-.03,0-.05c.03-.28-.03-.54-.07-.81-.02-.15,0-.32-.05-.47-.06-.21-.19-.37-.29-.56-.1-.19-.16-.39-.29-.55-.1-.12-.25-.21-.37-.32-.2-.18-.38-.37-.62-.5-.02-.01-.02-.03-.04-.03l-30.14-15.91,11.64-94.19,67.11,38.93-50.62,414.45-76.27,30.11,11.56-93.48ZM160.55,51.87c22.51-13.56,46.84-24.4,72.52-32.06l-8.45,69.24-64.07-37.17ZM229.96,99.79l47.27,27.42-41.55,358.73-55.56,21.94,49.84-408.09ZM239.91,491.37s.01,0,.02,0h.02s.05-.05.09-.06c.35-.15.67-.35.95-.61.12-.11.19-.25.29-.37.16-.19.31-.39.42-.62.08-.17.12-.35.17-.54.05-.17.14-.32.15-.5l42.02-362.8s0,0,0-.01v-.03c.02-.12-.03-.22-.02-.34,0-.32,0-.63-.08-.93-.05-.21-.18-.38-.27-.57-.1-.19-.16-.39-.29-.57-.18-.23-.41-.39-.64-.57-.11-.08-.18-.2-.31-.27l-51.59-29.93,8.84-72.35,73.16,50.24-55.74,491.22-87.86,35.27,9.98-81.7,60.7-23.96ZM324.73,24.24l68.42,49.24-5.01,40.77-68.3-46.9,4.89-43.11ZM456.85,522.46l-118.22,48.25,4.47-36.37,38.99-15.65h.01l.05-.02c.06-.03.11-.08.17-.12.31-.15.59-.32.84-.55.12-.12.2-.25.3-.38.15-.19.3-.38.41-.61.08-.17.12-.35.17-.54.05-.15.13-.3.15-.47l46.23-370.54c.02-.15-.03-.3-.04-.45,0-.24,0-.47-.05-.7-.05-.21-.14-.39-.23-.58-.09-.19-.16-.39-.29-.56-.14-.19-.31-.34-.48-.5-.11-.1-.19-.24-.32-.33l-34.75-23.87,4.99-40.58,104.22,75-46.63,369.57ZM331.62,573.56l-72.59,29.63,4.17-36.77,72.9-29.26-4.48,36.41ZM377.89,513.26l-33.86,13.6,49.33-401,30.27,20.78-45.75,366.62ZM387.23,121.63l-50.2,408.03-72.97,29.3,54.94-484.18,68.23,46.86ZM256.25,569.21l-4.4,38.77c0,.06.02.1.01.16-.01.22.03.43.06.66.03.22.05.44.12.64.02.05,0,.1.03.15.1.25.25.47.41.68.04.05.05.1.09.14.25.3.54.55.87.74.09.05.18.08.27.13.28.13.56.23.86.28.06.01.12.05.19.06.12.02.25.03.37.03h0c.43,0,.84-.09,1.21-.24.01,0,.02,0,.03,0l74.33-30.34-7.33,59.61c-54.35-.04-105.55-13.84-150.29-38.09l83.17-33.39ZM330.29,638.56l7.42-60.34,123.61-50.45c1.49-.61,2.23-2.19,1.92-3.72.03-.12.09-.21.11-.33l46.93-371.95c.02-.15-.03-.3-.03-.45,0-.23,0-.45-.05-.68-.05-.21-.13-.39-.22-.59-.08-.19-.16-.37-.28-.55-.14-.19-.3-.34-.47-.5-.11-.1-.17-.23-.3-.32l-108.75-78.27,6.28-51.03,179.86,130.02-48.12,405.72-207.92,83.44ZM526.92,566.76c-50.1,41.96-113.31,68.74-182.5,73.24l182.5-73.24ZM400.22,15.97l-6.15,50.04-70.06-50.42c-.05-.03-.11-.04-.16-.07-.19-.12-.39-.19-.6-.27-.21-.08-.41-.17-.63-.2-.06-.01-.11-.05-.17-.06-.17-.02-.32.03-.48.04-.19,0-.38,0-.57.04-.28.06-.54.16-.79.29-.12.06-.24.11-.35.18-.25.17-.44.37-.64.59-.07.08-.16.12-.23.21-.03.04-.03.09-.06.13-.13.21-.21.43-.3.66-.07.19-.15.39-.19.59-.01.06-.05.11-.06.17l-5.13,45.22-68.1-46.76c24.99-6.35,51.14-9.74,78.08-9.74s52.04,3.26,76.57,9.37ZM149.8,58.65l-11.06,89.49-56.48-29.8c19.54-22.94,42.29-43.07,67.54-59.69ZM72.31,130.64l-37.62,323.43c-18.03-39.8-28.08-83.96-28.08-130.42,0-72.57,24.52-139.51,65.7-193.01ZM98.89,547.03l73.33-28.94-9.6,78.56c-23.32-13.8-44.73-30.5-63.73-49.62ZM545.47,549.94l46.79-394.53c30.67,48.79,48.44,106.48,48.44,168.24,0,88.54-36.5,168.71-95.23,226.29Z"/>
  </g>
</svg>